courier-prime_regular.sfdir
StartChar: exclam
Encoding: 33 33 377
Width: 1228
Flags: W
LayerCount: 2
Back
Fore
SplineSet
679 1209 m 2,0,1
 724 1209 724 1209 720 1159 c 2,2,-1
 671 512 l 2,3,4
 668 464 668 464 614 464 c 0,5,6
 588 464 588 464 573 476.5 c 128,-1,7
 558 489 558 489 556 512 c 2,8,-1
 508 1159 l 2,9,10
 504 1209 504 1209 549 1209 c 2,11,-1
 679 1209 l 2,0,1
460 132 m 256,12,13
 460 164 460 164 472 192 c 128,-1,14
 484 220 484 220 505 241 c 128,-1,15
 526 262 526 262 554 274 c 128,-1,16
 582 286 582 286 614 286 c 256,17,18
 646 286 646 286 674 274 c 128,-1,19
 702 262 702 262 723 241 c 128,-1,20
 744 220 744 220 756 192 c 128,-1,21
 768 164 768 164 768 132 c 256,22,23
 768 100 768 100 756 72 c 128,-1,24
 744 44 744 44 723 23 c 128,-1,25
 702 2 702 2 674 -10 c 128,-1,26
 646 -22 646 -22 614 -22 c 256,27,28
 582 -22 582 -22 554 -10 c 128,-1,29
 526 2 526 2 505 23 c 128,-1,30
 484 44 484 44 472 72 c 128,-1,31
 460 100 460 100 460 132 c 256,12,13
EndSplineSet
EndChar
StartChar: quotedbl
Encoding: 34 34 378
Width: 1228
Flags: W
LayerCount: 2
Back
Fore
SplineSet
506 1209 m 2,0,1
 553 1209 553 1209 547 1159 c 2,2,-1
 492 709 l 2,3,4
 489 683 489 683 471.5 669 c 128,-1,5
 454 655 454 655 424 655 c 0,6,7
 395 655 395 655 377 669 c 128,-1,8
 359 683 359 683 356 709 c 2,9,-1
 301 1159 l 2,10,11
 295 1209 295 1209 342 1209 c 2,12,-1
 506 1209 l 2,0,1
886 1209 m 2,13,14
 933 1209 933 1209 927 1159 c 2,15,-1
 872 709 l 2,16,17
 869 683 869 683 851.5 669 c 128,-1,18
 834 655 834 655 804 655 c 0,19,20
 775 655 775 655 757 669 c 128,-1,21
 739 683 739 683 736 709 c 2,22,-1
 681 1159 l 2,23,24
 675 1209 675 1209 722 1209 c 2,25,-1
 886 1209 l 2,13,14
EndSplineSet
EndChar
StartChar: numbersign
Encoding: 35 35 376
Width: 1228
Flags: W
LayerCount: 2
Back
Fore
SplineSet
288 332 m 1,0,-1
 103 332 l 2,1,2
 69 332 69 332 54.5 348.5 c 128,-1,3
 40 365 40 365 40 404 c 256,4,5
 40 443 40 443 54.5 459.5 c 128,-1,6
 69 476 69 476 103 476 c 2,7,-1
 333 476 l 1,8,-1
 409 721 l 1,9,-1
 203 721 l 2,10,11
 169 721 169 721 154.5 737.5 c 128,-1,12
 140 754 140 754 140 793 c 256,13,14
 140 832 140 832 154.5 848.5 c 128,-1,15
 169 865 169 865 203 865 c 2,16,-1
 454 865 l 1,17,-1
 552 1176 l 2,18,19
 557 1193 557 1193 572.5 1201 c 128,-1,20
 588 1209 588 1209 606 1209 c 0,21,22
 621 1209 621 1209 635.5 1204.5 c 128,-1,23
 650 1200 650 1200 660.5 1191 c 128,-1,24
 671 1182 671 1182 676 1169.5 c 128,-1,25
 681 1157 681 1157 676 1142 c 2,26,-1
 589 865 l 1,27,-1
 808 865 l 1,28,-1
 906 1176 l 2,29,30
 911 1193 911 1193 926.5 1201 c 128,-1,31
 942 1209 942 1209 960 1209 c 0,32,33
 975 1209 975 1209 989.5 1204.5 c 128,-1,34
 1004 1200 1004 1200 1014.5 1191 c 128,-1,35
 1025 1182 1025 1182 1030 1169.5 c 128,-1,36
 1035 1157 1035 1157 1030 1142 c 2,37,-1
 943 865 l 1,38,-1
 1125 865 l 2,39,40
 1159 865 1159 865 1173.5 848.5 c 128,-1,41
 1188 832 1188 832 1188 793 c 256,42,43
 1188 754 1188 754 1173.5 737.5 c 128,-1,44
 1159 721 1159 721 1125 721 c 2,45,-1
 898 721 l 1,46,-1
 821 476 l 1,47,-1
 1025 476 l 2,48,49
 1059 476 1059 476 1073.5 459.5 c 128,-1,50
 1088 443 1088 443 1088 404 c 256,51,52
 1088 365 1088 365 1073.5 348.5 c 128,-1,53
 1059 332 1059 332 1025 332 c 2,54,-1
 776 332 l 1,55,-1
 676 11 l 2,56,57
 671 -6 671 -6 655.5 -14 c 128,-1,58
 640 -22 640 -22 622 -22 c 0,59,60
 607 -22 607 -22 592.5 -17.5 c 128,-1,61
 578 -13 578 -13 567.5 -4 c 128,-1,62
 557 5 557 5 552 17.5 c 128,-1,63
 547 30 547 30 552 45 c 2,64,-1
 642 332 l 1,65,-1
 422 332 l 1,66,-1
 322 11 l 2,67,68
 317 -6 317 -6 301.5 -14 c 128,-1,69
 286 -22 286 -22 268 -22 c 0,70,71
 253 -22 253 -22 238.5 -17.5 c 128,-1,72
 224 -13 224 -13 213.5 -4 c 128,-1,73
 203 5 203 5 198 17.5 c 128,-1,74
 193 30 193 30 198 45 c 2,75,-1
 288 332 l 1,0,-1
467 476 m 1,76,-1
 687 476 l 1,77,-1
 763 721 l 1,78,-1
 544 721 l 1,79,-1
 467 476 l 1,76,-1
EndSplineSet
EndChar
StartChar: dollar
Encoding: 36 36 4
Width: 1228
Flags: W
LayerCount: 2
Back
Fore
SplineSet
678 688 m 1,0,1
 731 682 731 682 783 672.5 c 128,-1,2
 835 663 835 663 881 646 c 0,3,4
 918 632 918 632 949 612.5 c 128,-1,5
 980 593 980 593 1002.5 565.5 c 128,-1,6
 1025 538 1025 538 1037.5 501.5 c 128,-1,7
 1050 465 1050 465 1050 417 c 0,8,9
 1050 351 1050 351 1025.5 297 c 128,-1,10
 1001 243 1001 243 953.5 204 c 128,-1,11
 906 165 906 165 837 142.5 c 128,-1,12
 768 120 768 120 678 118 c 1,13,-1
 678 -60 l 2,14,15
 678 -95 678 -95 661.5 -110 c 128,-1,16
 645 -125 645 -125 608 -125 c 256,17,18
 571 -125 571 -125 554.5 -110 c 128,-1,19
 538 -95 538 -95 538 -60 c 2,20,-1
 538 129 l 1,21,22
 474 142 474 142 422.5 169.5 c 128,-1,23
 371 197 371 197 329 239 c 1,24,-1
 329 183 l 2,25,26
 329 148 329 148 312.5 133 c 128,-1,27
 296 118 296 118 254 118 c 256,28,29
 212 118 212 118 195.5 133 c 128,-1,30
 179 148 179 148 179 183 c 2,31,-1
 179 423 l 2,32,33
 179 458 179 458 195.5 473 c 128,-1,34
 212 488 212 488 254 488 c 0,35,36
 276 488 276 488 288 478 c 128,-1,37
 300 468 300 468 308 447 c 0,38,39
 337 372 337 372 393 329 c 128,-1,40
 449 286 449 286 538 271 c 1,41,-1
 538 550 l 1,42,43
 484 557 484 557 433.5 567 c 128,-1,44
 383 577 383 577 338 595 c 0,45,46
 304 608 304 608 276 627 c 128,-1,47
 248 646 248 646 227.5 672 c 128,-1,48
 207 698 207 698 195.5 732 c 128,-1,49
 184 766 184 766 184 810 c 0,50,51
 184 877 184 877 211 928.5 c 128,-1,52
 238 980 238 980 285.5 1015 c 128,-1,53
 333 1050 333 1050 397.5 1068 c 128,-1,54
 462 1086 462 1086 538 1086 c 1,55,-1
 538 1247 l 2,56,57
 538 1282 538 1282 554.5 1297 c 128,-1,58
 571 1312 571 1312 608 1312 c 256,59,60
 645 1312 645 1312 661.5 1297 c 128,-1,61
 678 1282 678 1282 678 1247 c 2,62,-1
 678 1073 l 1,63,64
 731 1059 731 1059 775 1033.5 c 128,-1,65
 819 1008 819 1008 854 976 c 1,66,-1
 854 1021 l 2,67,68
 854 1056 854 1056 870.5 1071 c 128,-1,69
 887 1086 887 1086 929 1086 c 256,70,71
 971 1086 971 1086 987.5 1071 c 128,-1,72
 1004 1056 1004 1056 1004 1021 c 2,73,-1
 1004 831 l 2,74,75
 1004 796 1004 796 987.5 781 c 128,-1,76
 971 766 971 766 929 766 c 0,77,78
 895 766 895 766 881 792 c 0,79,80
 849 853 849 853 798 887.5 c 128,-1,81
 747 922 747 922 678 935 c 1,82,-1
 678 688 l 1,0,1
678 263 m 1,83,84
 785 268 785 268 838.5 310 c 128,-1,85
 892 352 892 352 892 417 c 0,86,87
 892 453 892 453 869 474.5 c 128,-1,88
 846 496 846 496 807 509 c 0,89,90
 780 518 780 518 747.5 523.5 c 128,-1,91
 715 529 715 529 678 534 c 1,92,-1
 678 263 l 1,83,84
538 941 m 1,93,94
 445 939 445 939 393.5 905 c 128,-1,95
 342 871 342 871 342 810 c 0,96,97
 342 777 342 777 363.5 757 c 128,-1,98
 385 737 385 737 423 725 c 0,99,100
 447 717 447 717 476 712 c 128,-1,101
 505 707 505 707 538 702 c 1,102,-1
 538 941 l 1,93,94
EndSplineSet
EndChar
StartChar: percent
Encoding: 37 37 5
Width: 1228
Flags: W
LayerCount: 2
Back
Fore
SplineSet
50 935 m 256,0,1
 50 992 50 992 71.5 1041.5 c 128,-1,2
 93 1091 93 1091 130.5 1128.5 c 128,-1,3
 168 1166 168 1166 217.5 1187.5 c 128,-1,4
 267 1209 267 1209 324 1209 c 256,5,6
 381 1209 381 1209 430.5 1187.5 c 128,-1,7
 480 1166 480 1166 517.5 1128.5 c 128,-1,8
 555 1091 555 1091 576.5 1041.5 c 128,-1,9
 598 992 598 992 598 935 c 256,10,11
 598 878 598 878 576.5 828.5 c 128,-1,12
 555 779 555 779 517.5 741.5 c 128,-1,13
 480 704 480 704 430.5 682.5 c 128,-1,14
 381 661 381 661 324 661 c 256,15,16
 267 661 267 661 217.5 682.5 c 128,-1,17
 168 704 168 704 130.5 741.5 c 128,-1,18
 93 779 93 779 71.5 828.5 c 128,-1,19
 50 878 50 878 50 935 c 256,0,1
630 252 m 256,20,21
 630 309 630 309 651.5 358.5 c 128,-1,22
 673 408 673 408 710.5 445.5 c 128,-1,23
 748 483 748 483 797.5 504.5 c 128,-1,24
 847 526 847 526 904 526 c 256,25,26
 961 526 961 526 1010.5 504.5 c 128,-1,27
 1060 483 1060 483 1097.5 445.5 c 128,-1,28
 1135 408 1135 408 1156.5 358.5 c 128,-1,29
 1178 309 1178 309 1178 252 c 256,30,31
 1178 195 1178 195 1156.5 145.5 c 128,-1,32
 1135 96 1135 96 1097.5 58.5 c 128,-1,33
 1060 21 1060 21 1010.5 -0.5 c 128,-1,34
 961 -22 961 -22 904 -22 c 256,35,36
 847 -22 847 -22 797.5 -0.5 c 128,-1,37
 748 21 748 21 710.5 58.5 c 128,-1,38
 673 96 673 96 651.5 145.5 c 128,-1,39
 630 195 630 195 630 252 c 256,20,21
180 935 m 256,40,41
 180 905 180 905 191.5 879 c 128,-1,42
 203 853 203 853 222.5 833.5 c 128,-1,43
 242 814 242 814 268 802.5 c 128,-1,44
 294 791 294 791 324 791 c 256,45,46
 354 791 354 791 380 802.5 c 128,-1,47
 406 814 406 814 425.5 833.5 c 128,-1,48
 445 853 445 853 456.5 879 c 128,-1,49
 468 905 468 905 468 935 c 256,50,51
 468 965 468 965 456.5 991 c 128,-1,52
 445 1017 445 1017 425.5 1036.5 c 128,-1,53
 406 1056 406 1056 380 1067.5 c 128,-1,54
 354 1079 354 1079 324 1079 c 256,55,56
 294 1079 294 1079 268 1067.5 c 128,-1,57
 242 1056 242 1056 222.5 1036.5 c 128,-1,58
 203 1017 203 1017 191.5 991 c 128,-1,59
 180 965 180 965 180 935 c 256,40,41
760 252 m 256,60,61
 760 222 760 222 771.5 196 c 128,-1,62
 783 170 783 170 802.5 150.5 c 128,-1,63
 822 131 822 131 848 119.5 c 128,-1,64
 874 108 874 108 904 108 c 256,65,66
 934 108 934 108 960 119.5 c 128,-1,67
 986 131 986 131 1005.5 150.5 c 128,-1,68
 1025 170 1025 170 1036.5 196 c 128,-1,69
 1048 222 1048 222 1048 252 c 256,70,71
 1048 282 1048 282 1036.5 308 c 128,-1,72
 1025 334 1025 334 1005.5 353.5 c 128,-1,73
 986 373 986 373 960 384.5 c 128,-1,74
 934 396 934 396 904 396 c 256,75,76
 874 396 874 396 848 384.5 c 128,-1,77
 822 373 822 373 802.5 353.5 c 128,-1,78
 783 334 783 334 771.5 308 c 128,-1,79
 760 282 760 282 760 252 c 256,60,61
1003 1059 m 2,80,81
 1051 1104 1051 1104 1098 1054 c 0,82,83
 1147 1004 1147 1004 1099 959 c 2,84,-1
 225 129 l 2,85,86
 177 84 177 84 130 134 c 0,87,88
 81 184 81 184 129 229 c 2,89,-1
 1003 1059 l 2,80,81
EndSplineSet
EndChar
StartChar: ampersand
Encoding: 38 38 6
Width: 1228
Flags: W
LayerCount: 2
Back
Fore
SplineSet
791 130 m 1,0,1
 729 58 729 58 653 18 c 128,-1,2
 577 -22 577 -22 486 -22 c 0,3,4
 405 -22 405 -22 342 4.5 c 128,-1,5
 279 31 279 31 235.5 76.5 c 128,-1,6
 192 122 192 122 169.5 182.5 c 128,-1,7
 147 243 147 243 147 310 c 0,8,9
 147 363 147 363 161 409 c 128,-1,10
 175 455 175 455 200.5 494.5 c 128,-1,11
 226 534 226 534 262 569 c 128,-1,12
 298 604 298 604 342 634 c 1,13,14
 298 685 298 685 270.5 748 c 128,-1,15
 243 811 243 811 243 890 c 0,16,17
 243 957 243 957 266.5 1015 c 128,-1,18
 290 1073 290 1073 333.5 1116 c 128,-1,19
 377 1159 377 1159 439 1184 c 128,-1,20
 501 1209 501 1209 578 1209 c 0,21,22
 668 1209 668 1209 746.5 1179.5 c 128,-1,23
 825 1150 825 1150 891 1105 c 0,24,25
 912 1090 912 1090 912 1051 c 2,26,-1
 912 924 l 2,27,28
 912 889 912 889 895.5 874 c 128,-1,29
 879 859 879 859 837 859 c 256,30,31
 795 859 795 859 778.5 874 c 128,-1,32
 762 889 762 889 762 924 c 2,33,-1
 762 1014 l 1,34,35
 727 1036 727 1036 680.5 1048.5 c 128,-1,36
 634 1061 634 1061 577 1061 c 0,37,38
 534 1061 534 1061 501 1047.5 c 128,-1,39
 468 1034 468 1034 445.5 1010.5 c 128,-1,40
 423 987 423 987 411 956 c 128,-1,41
 399 925 399 925 399 890 c 0,42,43
 399 836 399 836 420.5 791.5 c 128,-1,44
 442 747 442 747 482 702 c 2,45,-1
 775 372 l 1,46,47
 815 460 815 460 847 569 c 0,48,49
 852 587 852 587 864 599 c 128,-1,50
 876 611 876 611 899 611 c 2,51,-1
 1056 611 l 2,52,53
 1090 611 1090 611 1104.5 596 c 128,-1,54
 1119 581 1119 581 1119 543 c 256,55,56
 1119 505 1119 505 1104.5 490 c 128,-1,57
 1090 475 1090 475 1056 475 c 2,58,-1
 963 475 l 1,59,60
 946 415 946 415 924.5 360.5 c 128,-1,61
 903 306 903 306 877 258 c 1,62,-1
 986 136 l 1,63,-1
 1070 136 l 2,64,65
 1104 136 1104 136 1118.5 121 c 128,-1,66
 1133 106 1133 106 1133 68 c 256,67,68
 1133 30 1133 30 1118.5 15 c 128,-1,69
 1104 0 1104 0 1070 0 c 2,70,-1
 956 0 l 2,71,72
 934 0 934 0 914 8 c 128,-1,73
 894 16 894 16 878 33 c 2,74,-1
 791 130 l 1,0,1
486 126 m 0,75,76
 549 126 549 126 600.5 155.5 c 128,-1,77
 652 185 652 185 695 238 c 1,78,-1
 434 532 l 1,79,80
 365 483 365 483 335 430 c 128,-1,81
 305 377 305 377 305 310 c 0,82,83
 305 271 305 271 318 237 c 128,-1,84
 331 203 331 203 355 178.5 c 128,-1,85
 379 154 379 154 412 140 c 128,-1,86
 445 126 445 126 486 126 c 0,75,76
EndSplineSet
EndChar
StartChar: quotesingle
Encoding: 39 39 7
Width: 1228
Flags: W
LayerCount: 2
Back
Fore
SplineSet
696 1209 m 2,0,1
 743 1209 743 1209 737 1159 c 2,2,-1
 682 709 l 2,3,4
 679 683 679 683 661.5 669 c 128,-1,5
 644 655 644 655 614 655 c 0,6,7
 585 655 585 655 567 669 c 128,-1,8
 549 683 549 683 546 709 c 2,9,-1
 491 1159 l 2,10,11
 485 1209 485 1209 532 1209 c 2,12,-1
 696 1209 l 2,0,1
EndSplineSet
EndChar
StartChar: parenleft
Encoding: 40 40 8
Width: 1228
Flags: W
LayerCount: 2
Back
Fore
SplineSet
771 -397 m 0,0,1
 687 -347 687 -347 602.5 -266.5 c 128,-1,2
 518 -186 518 -186 450 -78 c 128,-1,3
 382 30 382 30 339.5 164 c 128,-1,4
 297 298 297 298 297 457 c 256,5,6
 297 616 297 616 339.5 751 c 128,-1,7
 382 886 382 886 450 994.5 c 128,-1,8
 518 1103 518 1103 602.5 1184 c 128,-1,9
 687 1265 687 1265 771 1315 c 0,10,11
 793 1328 793 1328 813.5 1316 c 128,-1,12
 834 1304 834 1304 848 1281 c 256,13,14
 862 1258 862 1258 865 1233.5 c 128,-1,15
 868 1209 868 1209 852 1198 c 0,16,17
 778 1149 778 1149 705 1079.5 c 128,-1,18
 632 1010 632 1010 574 918 c 128,-1,19
 516 826 516 826 480.5 711 c 128,-1,20
 445 596 445 596 445 457 c 256,21,22
 445 318 445 318 480.5 203.5 c 128,-1,23
 516 89 516 89 574 -2 c 128,-1,24
 632 -93 632 -93 705 -162 c 128,-1,25
 778 -231 778 -231 852 -280 c 0,26,27
 868 -291 868 -291 865 -315.5 c 128,-1,28
 862 -340 862 -340 848 -363 c 256,29,30
 834 -386 834 -386 813.5 -398 c 128,-1,31
 793 -410 793 -410 771 -397 c 0,0,1
EndSplineSet
EndChar
StartChar: parenright
Encoding: 41 41 9
Width: 1228
Flags: W
LayerCount: 2
Back
Fore
SplineSet
457 -397 m 0,0,1
 435 -410 435 -410 414.5 -398 c 128,-1,2
 394 -386 394 -386 380 -363 c 256,3,4
 366 -340 366 -340 363 -315.5 c 128,-1,5
 360 -291 360 -291 376 -280 c 0,6,7
 450 -231 450 -231 523 -162 c 128,-1,8
 596 -93 596 -93 653.5 -2 c 128,-1,9
 711 89 711 89 747 203.5 c 128,-1,10
 783 318 783 318 783 457 c 256,11,12
 783 596 783 596 747 711 c 128,-1,13
 711 826 711 826 653.5 918 c 128,-1,14
 596 1010 596 1010 523 1079.5 c 128,-1,15
 450 1149 450 1149 376 1198 c 0,16,17
 360 1209 360 1209 363 1233.5 c 128,-1,18
 366 1258 366 1258 380 1281 c 256,19,20
 394 1304 394 1304 414.5 1316 c 128,-1,21
 435 1328 435 1328 457 1315 c 0,22,23
 541 1265 541 1265 625.5 1184 c 128,-1,24
 710 1103 710 1103 778 994.5 c 128,-1,25
 846 886 846 886 888.5 751 c 128,-1,26
 931 616 931 616 931 457 c 256,27,28
 931 298 931 298 888.5 164 c 128,-1,29
 846 30 846 30 778 -78 c 128,-1,30
 710 -186 710 -186 625.5 -266.5 c 128,-1,31
 541 -347 541 -347 457 -397 c 0,0,1
EndSplineSet
EndChar
StartChar: asterisk
Encoding: 42 42 10
Width: 1228
Flags: W
LayerCount: 2
Back
Fore
SplineSet
872 415 m 0,0,1
 834 387 834 387 801.5 395.5 c 128,-1,2
 769 404 769 404 749 440 c 2,3,-1
 614 685 l 1,4,-1
 479 440 l 2,5,6
 459 404 459 404 426.5 395.5 c 128,-1,7
 394 387 394 387 356 415 c 0,8,9
 318 442 318 442 314 474 c 128,-1,10
 310 506 310 506 339 536 c 2,11,-1
 533 744 l 1,12,-1
 257 797 l 2,13,14
 216 805 216 805 199.5 833 c 128,-1,15
 183 861 183 861 197 906 c 256,16,17
 211 951 211 951 240.5 964 c 128,-1,18
 270 977 270 977 308 960 c 2,19,-1
 564 839 l 1,20,-1
 528 1119 l 2,21,22
 523 1161 523 1161 545 1185 c 128,-1,23
 567 1209 567 1209 614 1209 c 256,24,25
 661 1209 661 1209 683 1185 c 128,-1,26
 705 1161 705 1161 700 1119 c 2,27,-1
 664 839 l 1,28,-1
 920 960 l 2,29,30
 958 977 958 977 987.5 964 c 128,-1,31
 1017 951 1017 951 1031 906 c 256,32,33
 1045 861 1045 861 1028.5 833 c 128,-1,34
 1012 805 1012 805 971 797 c 2,35,-1
 693 744 l 1,36,-1
 889 536 l 2,37,38
 918 506 918 506 914 474 c 128,-1,39
 910 442 910 442 872 415 c 0,0,1
EndSplineSet
EndChar
StartChar: plus
Encoding: 43 43 11
Width: 1228
Flags: W
LayerCount: 2
Back
Fore
SplineSet
546 650 m 1,0,-1
 546 963 l 2,1,2
 546 997 546 997 561 1011.5 c 128,-1,3
 576 1026 576 1026 614 1026 c 256,4,5
 652 1026 652 1026 667 1011.5 c 128,-1,6
 682 997 682 997 682 963 c 2,7,-1
 682 650 l 1,8,-1
 995 650 l 2,9,10
 1029 650 1029 650 1043.5 635 c 128,-1,11
 1058 620 1058 620 1058 582 c 256,12,13
 1058 544 1058 544 1043.5 529 c 128,-1,14
 1029 514 1029 514 995 514 c 2,15,-1
 682 514 l 1,16,-1
 682 201 l 2,17,18
 682 167 682 167 667 152.5 c 128,-1,19
 652 138 652 138 614 138 c 256,20,21
 576 138 576 138 561 152.5 c 128,-1,22
 546 167 546 167 546 201 c 2,23,-1
 546 514 l 1,24,-1
 233 514 l 2,25,26
 199 514 199 514 184.5 529 c 128,-1,27
 170 544 170 544 170 582 c 256,28,29
 170 620 170 620 184.5 635 c 128,-1,30
 199 650 199 650 233 650 c 2,31,-1
 546 650 l 1,0,-1
EndSplineSet
EndChar
StartChar: comma
Encoding: 44 44 12
Width: 1228
Flags: W
LayerCount: 2
Back
Fore
SplineSet
500 -253 m 2,0,1
 489 -274 489 -274 471.5 -284 c 128,-1,2
 454 -294 454 -294 434 -294 c 0,3,4
 420 -294 420 -294 408 -289.5 c 128,-1,5
 396 -285 396 -285 387 -276.5 c 128,-1,6
 378 -268 378 -268 374.5 -256 c 128,-1,7
 371 -244 371 -244 374 -228 c 2,8,-1
 478 254 l 2,9,10
 487 294 487 294 530 294 c 2,11,-1
 724 294 l 2,12,13
 749 294 749 294 757.5 275.5 c 128,-1,14
 766 257 766 257 752 231 c 2,15,-1
 500 -253 l 2,0,1
EndSplineSet
EndChar
StartChar: period
Encoding: 46 46 14
Width: 1228
Flags: W
LayerCount: 2
Back
Fore
SplineSet
445 147 m 256,0,1
 445 182 445 182 458.5 212.5 c 128,-1,2
 472 243 472 243 495 266 c 128,-1,3
 518 289 518 289 548.5 302.5 c 128,-1,4
 579 316 579 316 614 316 c 256,5,6
 649 316 649 316 679.5 302.5 c 128,-1,7
 710 289 710 289 733 266 c 128,-1,8
 756 243 756 243 769.5 212.5 c 128,-1,9
 783 182 783 182 783 147 c 256,10,11
 783 112 783 112 769.5 81.5 c 128,-1,12
 756 51 756 51 733 28 c 128,-1,13
 710 5 710 5 679.5 -8.5 c 128,-1,14
 649 -22 649 -22 614 -22 c 256,15,16
 579 -22 579 -22 548.5 -8.5 c 128,-1,17
 518 5 518 5 495 28 c 128,-1,18
 472 51 472 51 458.5 81.5 c 128,-1,19
 445 112 445 112 445 147 c 256,0,1
EndSplineSet
EndChar
StartChar: slash
Encoding: 47 47 15
Width: 1228
Flags: W
LayerCount: 2
Back
Fore
SplineSet
883 1305 m 2,0,1
 890 1321 890 1321 908.5 1328 c 128,-1,2
 927 1335 927 1335 948 1335 c 0,3,4
 966 1335 966 1335 982.5 1330.5 c 128,-1,5
 999 1326 999 1326 1011 1317.5 c 128,-1,6
 1023 1309 1023 1309 1028 1297.5 c 128,-1,7
 1033 1286 1033 1286 1027 1271 c 2,8,-1
 345 -267 l 2,9,10
 338 -283 338 -283 319.5 -290 c 128,-1,11
 301 -297 301 -297 280 -297 c 0,12,13
 262 -297 262 -297 245 -292.5 c 128,-1,14
 228 -288 228 -288 216 -279.5 c 128,-1,15
 204 -271 204 -271 199.5 -259.5 c 128,-1,16
 195 -248 195 -248 201 -233 c 2,17,-1
 883 1305 l 2,0,1
EndSplineSet
EndChar
StartChar: zero
Encoding: 48 48 16
Width: 1228
Flags: W
LayerCount: 2
Back
Fore
SplineSet
188 593 m 256,0,1
 188 732 188 732 218 845.5 c 128,-1,2
 248 959 248 959 303.5 1040 c 128,-1,3
 359 1121 359 1121 437.5 1165 c 128,-1,4
 516 1209 516 1209 614 1209 c 0,5,6
 711 1209 711 1209 790 1165 c 128,-1,7
 869 1121 869 1121 924.5 1040 c 128,-1,8
 980 959 980 959 1010 845.5 c 128,-1,9
 1040 732 1040 732 1040 593 c 256,10,11
 1040 454 1040 454 1010 340.5 c 128,-1,12
 980 227 980 227 924.5 146.5 c 128,-1,13
 869 66 869 66 790 22 c 128,-1,14
 711 -22 711 -22 614 -22 c 0,15,16
 516 -22 516 -22 437.5 22 c 128,-1,17
 359 66 359 66 303.5 146.5 c 128,-1,18
 248 227 248 227 218 340.5 c 128,-1,19
 188 454 188 454 188 593 c 256,0,1
346 593 m 256,20,21
 346 481 346 481 366 394 c 128,-1,22
 386 307 386 307 421.5 247.5 c 128,-1,23
 457 188 457 188 506 157 c 128,-1,24
 555 126 555 126 614 126 c 256,25,26
 673 126 673 126 722 157 c 128,-1,27
 771 188 771 188 806.5 247.5 c 128,-1,28
 842 307 842 307 862 394 c 128,-1,29
 882 481 882 481 882 593 c 256,30,31
 882 705 882 705 862 792 c 128,-1,32
 842 879 842 879 806.5 939 c 128,-1,33
 771 999 771 999 722 1030 c 128,-1,34
 673 1061 673 1061 614 1061 c 256,35,36
 555 1061 555 1061 506 1030 c 128,-1,37
 457 999 457 999 421.5 939 c 128,-1,38
 386 879 386 879 366 792 c 128,-1,39
 346 705 346 705 346 593 c 256,20,21
EndSplineSet
EndChar
StartChar: one
Encoding: 49 49 17
Width: 1228
Flags: W
LayerCount: 2
Back
Fore
SplineSet
569 136 m 1,0,-1
 569 1032 l 1,1,-1
 321 942 l 2,2,3
 299 934 299 934 279.5 943.5 c 128,-1,4
 260 953 260 953 248 990 c 256,5,6
 236 1027 236 1027 245 1048 c 128,-1,7
 254 1069 254 1069 278 1077 c 2,8,-1
 643 1208 l 2,9,10
 675 1219 675 1219 697 1201.5 c 128,-1,11
 719 1184 719 1184 719 1146 c 2,12,-1
 719 136 l 1,13,-1
 974 136 l 2,14,15
 1008 136 1008 136 1022.5 121 c 128,-1,16
 1037 106 1037 106 1037 68 c 256,17,18
 1037 30 1037 30 1022.5 15 c 128,-1,19
 1008 0 1008 0 974 0 c 2,20,-1
 300 0 l 2,21,22
 266 0 266 0 251.5 15 c 128,-1,23
 237 30 237 30 237 68 c 256,24,25
 237 106 237 106 251.5 121 c 128,-1,26
 266 136 266 136 300 136 c 2,27,-1
 569 136 l 1,0,-1
EndSplineSet
EndChar
StartChar: two
Encoding: 50 50 18
Width: 1228
Flags: W
LayerCount: 2
Back
Fore
SplineSet
250 0 m 2,0,1
 216 0 216 0 201.5 15 c 128,-1,2
 187 30 187 30 187 68 c 0,3,4
 187 105 187 105 202 122 c 2,5,-1
 642 568 l 2,6,7
 686 613 686 613 717.5 650 c 128,-1,8
 749 687 749 687 769.5 721 c 128,-1,9
 790 755 790 755 799.5 788 c 128,-1,10
 809 821 809 821 809 859 c 0,11,12
 809 951 809 951 751 1006 c 128,-1,13
 693 1061 693 1061 581 1061 c 0,14,15
 520 1061 520 1061 468.5 1045.5 c 128,-1,16
 417 1030 417 1030 374 1005 c 1,17,-1
 374 895 l 2,18,19
 374 860 374 860 357.5 845 c 128,-1,20
 341 830 341 830 299 830 c 256,21,22
 257 830 257 830 240.5 845 c 128,-1,23
 224 860 224 860 224 895 c 2,24,-1
 224 1042 l 2,25,26
 224 1081 224 1081 247 1097 c 0,27,28
 319 1149 319 1149 403 1179 c 128,-1,29
 487 1209 487 1209 580 1209 c 0,30,31
 667 1209 667 1209 738.5 1185.5 c 128,-1,32
 810 1162 810 1162 861 1117 c 128,-1,33
 912 1072 912 1072 939.5 1007 c 128,-1,34
 967 942 967 942 967 859 c 0,35,36
 967 805 967 805 952.5 756.5 c 128,-1,37
 938 708 938 708 911 662.5 c 128,-1,38
 884 617 884 617 845.5 571.5 c 128,-1,39
 807 526 807 526 759 477 c 2,40,-1
 423 136 l 1,41,-1
 857 136 l 1,42,-1
 857 282 l 2,43,44
 857 317 857 317 873.5 332 c 128,-1,45
 890 347 890 347 932 347 c 256,46,47
 974 347 974 347 990.5 332 c 128,-1,48
 1007 317 1007 317 1007 282 c 2,49,-1
 1007 68 l 2,50,51
 1007 30 1007 30 992.5 15 c 128,-1,52
 978 0 978 0 944 0 c 2,53,-1
 250 0 l 2,0,1
EndSplineSet
EndChar
StartChar: three
Encoding: 51 51 19
Width: 1228
Flags: W
LayerCount: 2
Back
Fore
SplineSet
221 104 m 0,0,1
 197 121 197 121 192 144.5 c 128,-1,2
 187 168 187 168 208 203 c 0,3,4
 230 238 230 238 254 243.5 c 128,-1,5
 278 249 278 249 300 232 c 0,6,7
 364 184 364 184 441 155 c 128,-1,8
 518 126 518 126 598 126 c 0,9,10
 725 126 725 126 788.5 186 c 128,-1,11
 852 246 852 246 852 345 c 0,12,13
 852 450 852 450 786 502.5 c 128,-1,14
 720 555 720 555 603 555 c 2,15,-1
 530 555 l 2,16,17
 496 555 496 555 481.5 570 c 128,-1,18
 467 585 467 585 467 623 c 256,19,20
 467 661 467 661 481.5 676 c 128,-1,21
 496 691 496 691 530 691 c 2,22,-1
 585 691 l 2,23,24
 700 691 700 691 758.5 739 c 128,-1,25
 817 787 817 787 817 879 c 0,26,27
 817 964 817 964 758.5 1012.5 c 128,-1,28
 700 1061 700 1061 591 1061 c 0,29,30
 475 1061 475 1061 394 1022 c 1,31,-1
 394 955 l 2,32,33
 394 920 394 920 377.5 905 c 128,-1,34
 361 890 361 890 319 890 c 256,35,36
 277 890 277 890 260.5 905 c 128,-1,37
 244 920 244 920 244 955 c 2,38,-1
 244 1064 l 2,39,40
 244 1086 244 1086 250.5 1099 c 128,-1,41
 257 1112 257 1112 271 1121 c 0,42,43
 340 1163 340 1163 418.5 1186 c 128,-1,44
 497 1209 497 1209 590 1209 c 0,45,46
 677 1209 677 1209 747 1185.5 c 128,-1,47
 817 1162 817 1162 867 1119 c 128,-1,48
 917 1076 917 1076 944 1015 c 128,-1,49
 971 954 971 954 971 879 c 0,50,51
 971 789 971 789 929.5 728 c 128,-1,52
 888 667 888 667 818 631 c 1,53,54
 907 594 907 594 958.5 522 c 128,-1,55
 1010 450 1010 450 1010 345 c 0,56,57
 1010 264 1010 264 982.5 196.5 c 128,-1,58
 955 129 955 129 902.5 80.5 c 128,-1,59
 850 32 850 32 773 5 c 128,-1,60
 696 -22 696 -22 598 -22 c 0,61,62
 548 -22 548 -22 497.5 -13 c 128,-1,63
 447 -4 447 -4 398.5 12.5 c 128,-1,64
 350 29 350 29 305 52 c 128,-1,65
 260 75 260 75 221 104 c 0,0,1
EndSplineSet
EndChar
StartChar: four
Encoding: 52 52 20
Width: 1228
Flags: W
LayerCount: 2
Back
Fore
SplineSet
688 136 m 1,0,-1
 688 360 l 1,1,-1
 210 360 l 2,2,3
 176 360 176 360 161.5 375 c 128,-1,4
 147 390 147 390 147 428 c 0,5,6
 147 461 147 461 157 475 c 2,7,-1
 641 1148 l 2,8,9
 662 1178 662 1178 687 1193.5 c 128,-1,10
 712 1209 712 1209 751 1209 c 0,11,12
 798 1209 798 1209 818 1187.5 c 128,-1,13
 838 1166 838 1166 838 1131 c 2,14,-1
 838 496 l 1,15,-1
 1000 496 l 2,16,17
 1034 496 1034 496 1048.5 481 c 128,-1,18
 1063 466 1063 466 1063 428 c 256,19,20
 1063 390 1063 390 1048.5 375 c 128,-1,21
 1034 360 1034 360 1000 360 c 2,22,-1
 838 360 l 1,23,-1
 838 136 l 1,24,-1
 970 136 l 2,25,26
 1004 136 1004 136 1018.5 121 c 128,-1,27
 1033 106 1033 106 1033 68 c 256,28,29
 1033 30 1033 30 1018.5 15 c 128,-1,30
 1004 0 1004 0 970 0 c 2,31,-1
 540 0 l 2,32,33
 506 0 506 0 491.5 15 c 128,-1,34
 477 30 477 30 477 68 c 256,35,36
 477 106 477 106 491.5 121 c 128,-1,37
 506 136 506 136 540 136 c 2,38,-1
 688 136 l 1,0,-1
696 992 m 1,39,-1
 346 496 l 1,40,-1
 688 496 l 1,41,-1
 696 992 l 1,39,-1
EndSplineSet
EndChar
StartChar: five
Encoding: 53 53 21
Width: 1228
Flags: W
LayerCount: 2
Back
Fore
SplineSet
219 97 m 0,0,1
 195 114 195 114 189 137.5 c 128,-1,2
 183 161 183 161 204 196 c 256,3,4
 225 231 225 231 249 237 c 128,-1,5
 273 243 273 243 296 226 c 0,6,7
 359 181 359 181 434.5 153.5 c 128,-1,8
 510 126 510 126 588 126 c 0,9,10
 650 126 650 126 699 144.5 c 128,-1,11
 748 163 748 163 782 197.5 c 128,-1,12
 816 232 816 232 834 279.5 c 128,-1,13
 852 327 852 327 852 386 c 0,14,15
 852 441 852 441 835 487.5 c 128,-1,16
 818 534 818 534 786.5 567.5 c 128,-1,17
 755 601 755 601 710 619.5 c 128,-1,18
 665 638 665 638 608 638 c 0,19,20
 536 638 536 638 483 619.5 c 128,-1,21
 430 601 430 601 381 567 c 0,22,23
 365 557 365 557 331 557 c 0,24,25
 289 557 289 557 271.5 572 c 128,-1,26
 254 587 254 587 256 622 c 2,27,-1
 276 1122 l 2,28,29
 278 1157 278 1157 293.5 1172 c 128,-1,30
 309 1187 309 1187 351 1187 c 2,31,-1
 885 1187 l 2,32,33
 919 1187 919 1187 933.5 1172 c 128,-1,34
 948 1157 948 1157 948 1119 c 256,35,36
 948 1081 948 1081 933.5 1066 c 128,-1,37
 919 1051 919 1051 885 1051 c 2,38,-1
 419 1051 l 1,39,-1
 406 730 l 1,40,41
 454 757 454 757 507.5 771.5 c 128,-1,42
 561 786 561 786 621 786 c 0,43,44
 712 786 712 786 784.5 756.5 c 128,-1,45
 857 727 857 727 907 673.5 c 128,-1,46
 957 620 957 620 983.5 546.5 c 128,-1,47
 1010 473 1010 473 1010 386 c 0,48,49
 1010 298 1010 298 980.5 223.5 c 128,-1,50
 951 149 951 149 896 94.5 c 128,-1,51
 841 40 841 40 763 9 c 128,-1,52
 685 -22 685 -22 588 -22 c 0,53,54
 490 -22 490 -22 393.5 10.5 c 128,-1,55
 297 43 297 43 219 97 c 0,0,1
EndSplineSet
EndChar
StartChar: six
Encoding: 54 54 22
Width: 1228
Flags: W
LayerCount: 2
Back
Fore
SplineSet
372 368 m 0,0,1
 372 315 372 315 390 270.5 c 128,-1,2
 408 226 408 226 441 194 c 128,-1,3
 474 162 474 162 521 144 c 128,-1,4
 568 126 568 126 626 126 c 0,5,6
 683 126 683 126 729.5 142 c 128,-1,7
 776 158 776 158 809 188 c 128,-1,8
 842 218 842 218 860 260 c 128,-1,9
 878 302 878 302 878 353 c 0,10,11
 878 405 878 405 860.5 447.5 c 128,-1,12
 843 490 843 490 810.5 520 c 128,-1,13
 778 550 778 550 731.5 566.5 c 128,-1,14
 685 583 685 583 626 583 c 0,15,16
 570 583 570 583 523.5 567.5 c 128,-1,17
 477 552 477 552 443.5 523.5 c 128,-1,18
 410 495 410 495 391 455.5 c 128,-1,19
 372 416 372 416 372 368 c 0,0,1
938 1062 m 0,20,21
 800 1055 800 1055 697.5 1018.5 c 128,-1,22
 595 982 595 982 524 920.5 c 128,-1,23
 453 859 453 859 412 775 c 128,-1,24
 371 691 371 691 358 589 c 1,25,26
 411 658 411 658 486.5 694.5 c 128,-1,27
 562 731 562 731 648 731 c 0,28,29
 731 731 731 731 802 704 c 128,-1,30
 873 677 873 677 925 627.5 c 128,-1,31
 977 578 977 578 1006.5 508 c 128,-1,32
 1036 438 1036 438 1036 353 c 0,33,34
 1036 272 1036 272 1006.5 203 c 128,-1,35
 977 134 977 134 923.5 84 c 128,-1,36
 870 34 870 34 794.5 6 c 128,-1,37
 719 -22 719 -22 626 -22 c 0,38,39
 573 -22 573 -22 522.5 -10 c 128,-1,40
 472 2 472 2 427 26.5 c 128,-1,41
 382 51 382 51 344 87.5 c 128,-1,42
 306 124 306 124 278 173 c 0,43,44
 240 238 240 238 220.5 320.5 c 128,-1,45
 201 403 201 403 201 512 c 0,46,47
 201 592 201 592 217.5 673.5 c 128,-1,48
 234 755 234 755 270 830.5 c 128,-1,49
 306 906 306 906 362.5 972.5 c 128,-1,50
 419 1039 419 1039 498.5 1089.5 c 128,-1,51
 578 1140 578 1140 682 1171.5 c 128,-1,52
 786 1203 786 1203 917 1209 c 0,53,54
 939 1210 939 1210 954.5 1196.5 c 128,-1,55
 970 1183 970 1183 974 1142 c 0,56,57
 978 1097 978 1097 968 1080 c 128,-1,58
 958 1063 958 1063 938 1062 c 0,20,21
EndSplineSet
EndChar
StartChar: seven
Encoding: 55 55 23
Width: 1228
Flags: W
LayerCount: 2
Back
Fore
SplineSet
597 24 m 2,0,1
 586 -4 586 -4 560 -15 c 128,-1,2
 534 -26 534 -26 499 -20 c 0,3,4
 465 -14 465 -14 449 5.5 c 128,-1,5
 433 25 433 25 446 56 c 2,6,-1
 853 1051 l 1,7,-1
 379 1051 l 1,8,-1
 379 905 l 2,9,10
 379 870 379 870 362.5 855 c 128,-1,11
 346 840 346 840 304 840 c 256,12,13
 262 840 262 840 245.5 855 c 128,-1,14
 229 870 229 870 229 905 c 2,15,-1
 229 1119 l 2,16,17
 229 1157 229 1157 243.5 1172 c 128,-1,18
 258 1187 258 1187 292 1187 c 2,19,-1
 966 1187 l 2,20,21
 1000 1187 1000 1187 1014.5 1172 c 128,-1,22
 1029 1157 1029 1157 1029 1119 c 0,23,24
 1029 1106 1029 1106 1027 1095.5 c 128,-1,25
 1025 1085 1025 1085 1023 1079 c 2,26,-1
 597 24 l 2,0,1
EndSplineSet
EndChar
StartChar: eight
Encoding: 56 56 24
Width: 1228
Flags: W
LayerCount: 2
Back
Fore
SplineSet
245 879 m 0,0,1
 245 948 245 948 273 1008.5 c 128,-1,2
 301 1069 301 1069 350 1113.5 c 128,-1,3
 399 1158 399 1158 466.5 1183.5 c 128,-1,4
 534 1209 534 1209 614 1209 c 0,5,6
 693 1209 693 1209 761 1183.5 c 128,-1,7
 829 1158 829 1158 878 1113.5 c 128,-1,8
 927 1069 927 1069 955 1008.5 c 128,-1,9
 983 948 983 948 983 879 c 0,10,11
 983 837 983 837 970 799.5 c 128,-1,12
 957 762 957 762 934.5 730.5 c 128,-1,13
 912 699 912 699 882 674 c 128,-1,14
 852 649 852 649 817 630 c 1,15,16
 861 610 861 610 898.5 581.5 c 128,-1,17
 936 553 936 553 963.5 516 c 128,-1,18
 991 479 991 479 1006.5 435 c 128,-1,19
 1022 391 1022 391 1022 340 c 0,20,21
 1022 262 1022 262 991 195.5 c 128,-1,22
 960 129 960 129 905.5 80.5 c 128,-1,23
 851 32 851 32 776.5 5 c 128,-1,24
 702 -22 702 -22 614 -22 c 256,25,26
 526 -22 526 -22 451.5 5 c 128,-1,27
 377 32 377 32 322.5 80.5 c 128,-1,28
 268 129 268 129 237 195.5 c 128,-1,29
 206 262 206 262 206 340 c 0,30,31
 206 391 206 391 221.5 435 c 128,-1,32
 237 479 237 479 264 516 c 128,-1,33
 291 553 291 553 328.5 581.5 c 128,-1,34
 366 610 366 610 410 630 c 1,35,36
 375 649 375 649 345 674 c 128,-1,37
 315 699 315 699 292.5 730.5 c 128,-1,38
 270 762 270 762 257.5 799.5 c 128,-1,39
 245 837 245 837 245 879 c 0,0,1
366 341 m 256,40,41
 366 294 366 294 384 254.5 c 128,-1,42
 402 215 402 215 435 186.5 c 128,-1,43
 468 158 468 158 513.5 142 c 128,-1,44
 559 126 559 126 614 126 c 256,45,46
 669 126 669 126 714.5 142 c 128,-1,47
 760 158 760 158 793 186.5 c 128,-1,48
 826 215 826 215 844 254.5 c 128,-1,49
 862 294 862 294 862 341 c 256,50,51
 862 388 862 388 844 427.5 c 128,-1,52
 826 467 826 467 793 495 c 128,-1,53
 760 523 760 523 714.5 538.5 c 128,-1,54
 669 554 669 554 614 554 c 256,55,56
 559 554 559 554 513.5 538.5 c 128,-1,57
 468 523 468 523 435 495 c 128,-1,58
 402 467 402 467 384 427.5 c 128,-1,59
 366 388 366 388 366 341 c 256,40,41
399 876 m 0,60,61
 399 837 399 837 415.5 804 c 128,-1,62
 432 771 432 771 460.5 746 c 128,-1,63
 489 721 489 721 528.5 707 c 128,-1,64
 568 693 568 693 614 693 c 256,65,66
 660 693 660 693 699.5 707 c 128,-1,67
 739 721 739 721 767.5 746 c 128,-1,68
 796 771 796 771 812.5 804 c 128,-1,69
 829 837 829 837 829 876 c 0,70,71
 829 919 829 919 812.5 953 c 128,-1,72
 796 987 796 987 767.5 1011 c 128,-1,73
 739 1035 739 1035 699.5 1048 c 128,-1,74
 660 1061 660 1061 614 1061 c 256,75,76
 568 1061 568 1061 528.5 1048 c 128,-1,77
 489 1035 489 1035 460.5 1011 c 128,-1,78
 432 987 432 987 415.5 953 c 128,-1,79
 399 919 399 919 399 876 c 0,60,61
EndSplineSet
EndChar
StartChar: nine
Encoding: 57 57 25
Width: 1228
Flags: W
LayerCount: 2
Back
Fore
SplineSet
856 819 m 0,0,1
 856 872 856 872 838 916.5 c 128,-1,2
 820 961 820 961 787 993 c 128,-1,3
 754 1025 754 1025 707 1043 c 128,-1,4
 660 1061 660 1061 602 1061 c 0,5,6
 545 1061 545 1061 498.5 1045 c 128,-1,7
 452 1029 452 1029 419 999 c 128,-1,8
 386 969 386 969 368 927 c 128,-1,9
 350 885 350 885 350 834 c 0,10,11
 350 782 350 782 367.5 739.5 c 128,-1,12
 385 697 385 697 417.5 667 c 128,-1,13
 450 637 450 637 496.5 620.5 c 128,-1,14
 543 604 543 604 602 604 c 0,15,16
 657 604 657 604 704 619.5 c 128,-1,17
 751 635 751 635 784.5 663.5 c 128,-1,18
 818 692 818 692 837 731.5 c 128,-1,19
 856 771 856 771 856 819 c 0,0,1
290 125 m 0,20,21
 428 132 428 132 530.5 168.5 c 128,-1,22
 633 205 633 205 704 266.5 c 128,-1,23
 775 328 775 328 815.5 412 c 128,-1,24
 856 496 856 496 870 598 c 1,25,26
 817 529 817 529 741.5 492.5 c 128,-1,27
 666 456 666 456 580 456 c 0,28,29
 497 456 497 456 426 483 c 128,-1,30
 355 510 355 510 303 559.5 c 128,-1,31
 251 609 251 609 221.5 678.5 c 128,-1,32
 192 748 192 748 192 834 c 0,33,34
 192 915 192 915 221.5 984 c 128,-1,35
 251 1053 251 1053 304.5 1103 c 128,-1,36
 358 1153 358 1153 433.5 1181 c 128,-1,37
 509 1209 509 1209 602 1209 c 0,38,39
 655 1209 655 1209 705.5 1197 c 128,-1,40
 756 1185 756 1185 801 1160.5 c 128,-1,41
 846 1136 846 1136 883.5 1099.5 c 128,-1,42
 921 1063 921 1063 950 1014 c 0,43,44
 988 949 988 949 1007.5 866.5 c 128,-1,45
 1027 784 1027 784 1027 675 c 0,46,47
 1027 595 1027 595 1010.5 513.5 c 128,-1,48
 994 432 994 432 958 356.5 c 128,-1,49
 922 281 922 281 865.5 214.5 c 128,-1,50
 809 148 809 148 729.5 97.5 c 128,-1,51
 650 47 650 47 546 15.5 c 128,-1,52
 442 -16 442 -16 311 -22 c 0,53,54
 289 -23 289 -23 273.5 -9.5 c 128,-1,55
 258 4 258 4 254 45 c 0,56,57
 250 90 250 90 260 107 c 128,-1,58
 270 124 270 124 290 125 c 0,20,21
EndSplineSet
EndChar
StartChar: colon
Encoding: 58 58 26
Width: 1228
Flags: W
LayerCount: 2
Back
Fore
SplineSet
445 147 m 256,0,1
 445 182 445 182 458.5 212.5 c 128,-1,2
 472 243 472 243 495 266 c 128,-1,3
 518 289 518 289 548.5 302.5 c 128,-1,4
 579 316 579 316 614 316 c 256,5,6
 649 316 649 316 679.5 302.5 c 128,-1,7
 710 289 710 289 733 266 c 128,-1,8
 756 243 756 243 769.5 212.5 c 128,-1,9
 783 182 783 182 783 147 c 256,10,11
 783 112 783 112 769.5 81.5 c 128,-1,12
 756 51 756 51 733 28 c 128,-1,13
 710 5 710 5 679.5 -8.5 c 128,-1,14
 649 -22 649 -22 614 -22 c 256,15,16
 579 -22 579 -22 548.5 -8.5 c 128,-1,17
 518 5 518 5 495 28 c 128,-1,18
 472 51 472 51 458.5 81.5 c 128,-1,19
 445 112 445 112 445 147 c 256,0,1
445 777 m 256,20,21
 445 812 445 812 458.5 842.5 c 128,-1,22
 472 873 472 873 495 896 c 128,-1,23
 518 919 518 919 548.5 932.5 c 128,-1,24
 579 946 579 946 614 946 c 256,25,26
 649 946 649 946 679.5 932.5 c 128,-1,27
 710 919 710 919 733 896 c 128,-1,28
 756 873 756 873 769.5 842.5 c 128,-1,29
 783 812 783 812 783 777 c 256,30,31
 783 742 783 742 769.5 711.5 c 128,-1,32
 756 681 756 681 733 658 c 128,-1,33
 710 635 710 635 679.5 621.5 c 128,-1,34
 649 608 649 608 614 608 c 256,35,36
 579 608 579 608 548.5 621.5 c 128,-1,37
 518 635 518 635 495 658 c 128,-1,38
 472 681 472 681 458.5 711.5 c 128,-1,39
 445 742 445 742 445 777 c 256,20,21
EndSplineSet
EndChar
StartChar: semicolon
Encoding: 59 59 27
Width: 1228
Flags: W
LayerCount: 2
Back
Fore
SplineSet
445 777 m 256,0,1
 445 812 445 812 458.5 842.5 c 128,-1,2
 472 873 472 873 495 896 c 128,-1,3
 518 919 518 919 548.5 932.5 c 128,-1,4
 579 946 579 946 614 946 c 256,5,6
 649 946 649 946 679.5 932.5 c 128,-1,7
 710 919 710 919 733 896 c 128,-1,8
 756 873 756 873 769.5 842.5 c 128,-1,9
 783 812 783 812 783 777 c 256,10,11
 783 742 783 742 769.5 711.5 c 128,-1,12
 756 681 756 681 733 658 c 128,-1,13
 710 635 710 635 679.5 621.5 c 128,-1,14
 649 608 649 608 614 608 c 256,15,16
 579 608 579 608 548.5 621.5 c 128,-1,17
 518 635 518 635 495 658 c 128,-1,18
 472 681 472 681 458.5 711.5 c 128,-1,19
 445 742 445 742 445 777 c 256,0,1
500 -253 m 2,20,21
 489 -274 489 -274 471.5 -284 c 128,-1,22
 454 -294 454 -294 434 -294 c 0,23,24
 420 -294 420 -294 408 -289.5 c 128,-1,25
 396 -285 396 -285 387 -276.5 c 128,-1,26
 378 -268 378 -268 374.5 -256 c 128,-1,27
 371 -244 371 -244 374 -228 c 2,28,-1
 478 254 l 2,29,30
 487 294 487 294 530 294 c 2,31,-1
 724 294 l 2,32,33
 749 294 749 294 757.5 275.5 c 128,-1,34
 766 257 766 257 752 231 c 2,35,-1
 500 -253 l 2,20,21
EndSplineSet
EndChar
StartChar: less
Encoding: 60 60 28
Width: 1228
Flags: W
LayerCount: 2
Back
Fore
SplineSet
1012 261 m 2,0,1
 1044 246 1044 246 1051 223.5 c 128,-1,2
 1058 201 1058 201 1041 166 c 0,3,4
 1024 133 1024 133 1002 125.5 c 128,-1,5
 980 118 980 118 949 133 c 2,6,-1
 172 514 l 2,7,8
 148 526 148 526 136.5 541.5 c 128,-1,9
 125 557 125 557 125 583 c 256,10,11
 125 609 125 609 136.5 624.5 c 128,-1,12
 148 640 148 640 172 652 c 2,13,-1
 949 1033 l 2,14,15
 980 1048 980 1048 1002 1040.5 c 128,-1,16
 1024 1033 1024 1033 1041 1000 c 0,17,18
 1058 965 1058 965 1051 942.5 c 128,-1,19
 1044 920 1044 920 1012 905 c 2,20,-1
 340 583 l 1,21,-1
 1012 261 l 2,0,1
EndSplineSet
EndChar
StartChar: equal
Encoding: 61 61 29
Width: 1228
Flags: W
LayerCount: 2
Back
Fore
SplineSet
995 850 m 2,0,1
 1029 850 1029 850 1043.5 835 c 128,-1,2
 1058 820 1058 820 1058 782 c 256,3,4
 1058 744 1058 744 1043.5 729 c 128,-1,5
 1029 714 1029 714 995 714 c 2,6,-1
 233 714 l 2,7,8
 199 714 199 714 184.5 729 c 128,-1,9
 170 744 170 744 170 782 c 256,10,11
 170 820 170 820 184.5 835 c 128,-1,12
 199 850 199 850 233 850 c 2,13,-1
 995 850 l 2,0,1
995 450 m 2,14,15
 1029 450 1029 450 1043.5 435 c 128,-1,16
 1058 420 1058 420 1058 382 c 256,17,18
 1058 344 1058 344 1043.5 329 c 128,-1,19
 1029 314 1029 314 995 314 c 2,20,-1
 233 314 l 2,21,22
 199 314 199 314 184.5 329 c 128,-1,23
 170 344 170 344 170 382 c 256,24,25
 170 420 170 420 184.5 435 c 128,-1,26
 199 450 199 450 233 450 c 2,27,-1
 995 450 l 2,14,15
EndSplineSet
EndChar
StartChar: greater
Encoding: 62 62 30
Width: 1228
Flags: W
LayerCount: 2
Back
Fore
SplineSet
888 583 m 1,0,-1
 216 905 l 2,1,2
 184 920 184 920 177 942.5 c 128,-1,3
 170 965 170 965 187 1000 c 0,4,5
 204 1033 204 1033 226 1040.5 c 128,-1,6
 248 1048 248 1048 279 1033 c 2,7,-1
 1056 652 l 2,8,9
 1080 640 1080 640 1091.5 624.5 c 128,-1,10
 1103 609 1103 609 1103 583 c 256,11,12
 1103 557 1103 557 1091.5 541.5 c 128,-1,13
 1080 526 1080 526 1056 514 c 2,14,-1
 279 133 l 2,15,16
 248 118 248 118 226 125.5 c 128,-1,17
 204 133 204 133 187 166 c 0,18,19
 170 201 170 201 177 223.5 c 128,-1,20
 184 246 184 246 216 261 c 2,21,-1
 888 583 l 1,0,-1
EndSplineSet
EndChar
StartChar: question
Encoding: 63 63 31
Width: 1228
Flags: W
LayerCount: 2
Back
Fore
SplineSet
254 1062 m 2,0,1
 254 1103 254 1103 279 1118 c 0,2,3
 355 1164 355 1164 440.5 1186.5 c 128,-1,4
 526 1209 526 1209 618 1209 c 0,5,6
 701 1209 701 1209 766.5 1186 c 128,-1,7
 832 1163 832 1163 877 1122 c 128,-1,8
 922 1081 922 1081 946 1023 c 128,-1,9
 970 965 970 965 970 896 c 0,10,11
 970 829 970 829 949.5 778.5 c 128,-1,12
 929 728 929 728 889 688 c 128,-1,13
 849 648 849 648 789.5 615 c 128,-1,14
 730 582 730 582 653 551 c 1,15,-1
 643 410 l 2,16,17
 641 387 641 387 623.5 373 c 128,-1,18
 606 359 606 359 574 359 c 256,19,20
 542 359 542 359 524.5 373 c 128,-1,21
 507 387 507 387 505 410 c 2,22,-1
 495 605 l 2,23,24
 494 625 494 625 501 637 c 128,-1,25
 508 649 508 649 525 656 c 2,26,-1
 594 684 l 2,27,28
 651 707 651 707 692 729 c 128,-1,29
 733 751 733 751 760 775.5 c 128,-1,30
 787 800 787 800 799.5 829 c 128,-1,31
 812 858 812 858 812 896 c 0,32,33
 812 969 812 969 762.5 1015 c 128,-1,34
 713 1061 713 1061 619 1061 c 0,35,36
 558 1061 558 1061 504.5 1052.5 c 128,-1,37
 451 1044 451 1044 404 1024 c 1,38,-1
 404 935 l 2,39,40
 404 900 404 900 387.5 885 c 128,-1,41
 371 870 371 870 329 870 c 256,42,43
 287 870 287 870 270.5 885 c 128,-1,44
 254 900 254 900 254 935 c 2,45,-1
 254 1062 l 2,0,1
436 116 m 0,46,47
 436 144 436 144 447 169.5 c 128,-1,48
 458 195 458 195 476.5 213.5 c 128,-1,49
 495 232 495 232 520 243 c 128,-1,50
 545 254 545 254 574 254 c 0,51,52
 602 254 602 254 627.5 243 c 128,-1,53
 653 232 653 232 671.5 213.5 c 128,-1,54
 690 195 690 195 701 169.5 c 128,-1,55
 712 144 712 144 712 116 c 0,56,57
 712 87 712 87 701 62 c 128,-1,58
 690 37 690 37 671.5 18.5 c 128,-1,59
 653 0 653 0 627.5 -11 c 128,-1,60
 602 -22 602 -22 574 -22 c 0,61,62
 545 -22 545 -22 520 -11 c 128,-1,63
 495 0 495 0 476.5 18.5 c 128,-1,64
 458 37 458 37 447 62 c 128,-1,65
 436 87 436 87 436 116 c 0,46,47
EndSplineSet
EndChar
StartChar: at
Encoding: 64 64 32
Width: 1228
Flags: W
LayerCount: 2
Back
Fore
SplineSet
50 389 m 0,0,1
 50 536 50 536 96 662 c 128,-1,2
 142 788 142 788 223.5 880.5 c 128,-1,3
 305 973 305 973 416.5 1025.5 c 128,-1,4
 528 1078 528 1078 660 1078 c 0,5,6
 776 1078 776 1078 870.5 1037.5 c 128,-1,7
 965 997 965 997 1031.5 924.5 c 128,-1,8
 1098 852 1098 852 1134 751.5 c 128,-1,9
 1170 651 1170 651 1170 531 c 0,10,11
 1170 443 1170 443 1149.5 370.5 c 128,-1,12
 1129 298 1129 298 1092.5 246 c 128,-1,13
 1056 194 1056 194 1004 165.5 c 128,-1,14
 952 137 952 137 889 137 c 0,15,16
 823 137 823 137 777 170 c 128,-1,17
 731 203 731 203 708 266 c 1,18,19
 685 236 685 236 662 211.5 c 128,-1,20
 639 187 639 187 614 169.5 c 128,-1,21
 589 152 589 152 561 142 c 128,-1,22
 533 132 533 132 499 132 c 0,23,24
 462 132 462 132 430 147 c 128,-1,25
 398 162 398 162 374 191 c 128,-1,26
 350 220 350 220 336.5 261.5 c 128,-1,27
 323 303 323 303 323 357 c 0,28,29
 323 402 323 402 334 451 c 128,-1,30
 345 500 345 500 365 547.5 c 128,-1,31
 385 595 385 595 414 638 c 128,-1,32
 443 681 443 681 478 713.5 c 128,-1,33
 513 746 513 746 554 765.5 c 128,-1,34
 595 785 595 785 640 785 c 0,35,36
 688 785 688 785 718.5 757.5 c 128,-1,37
 749 730 749 730 768 685 c 1,38,-1
 799 748 l 2,39,40
 804 759 804 759 822 759 c 128,-1,41
 840 759 840 759 858 752 c 256,42,43
 876 745 876 745 888.5 733 c 128,-1,44
 901 721 901 721 897 706 c 2,45,-1
 820 404 l 2,46,47
 803 339 803 339 823 301 c 128,-1,48
 843 263 843 263 888 263 c 0,49,50
 926 263 926 263 956 282.5 c 128,-1,51
 986 302 986 302 1006.5 337.5 c 128,-1,52
 1027 373 1027 373 1038 422 c 128,-1,53
 1049 471 1049 471 1049 531 c 0,54,55
 1049 629 1049 629 1021.5 707.5 c 128,-1,56
 994 786 994 786 943 841 c 128,-1,57
 892 896 892 896 819 925.5 c 128,-1,58
 746 955 746 955 655 955 c 0,59,60
 551 955 551 955 463 911.5 c 128,-1,61
 375 868 375 868 310.5 792 c 128,-1,62
 246 716 246 716 209.5 612.5 c 128,-1,63
 173 509 173 509 173 389 c 0,64,65
 173 293 173 293 198.5 215.5 c 128,-1,66
 224 138 224 138 273 83.5 c 128,-1,67
 322 29 322 29 394.5 -0.5 c 128,-1,68
 467 -30 467 -30 560 -30 c 0,69,70
 632 -30 632 -30 698 -19.5 c 128,-1,71
 764 -9 764 -9 815 7 c 0,72,73
 851 18 851 18 867 -36 c 0,74,75
 875 -63 875 -63 869.5 -78.5 c 128,-1,76
 864 -94 864 -94 848 -101 c 0,77,78
 795 -124 795 -124 720 -138.5 c 128,-1,79
 645 -153 645 -153 562 -153 c 0,80,81
 442 -153 442 -153 347 -115.5 c 128,-1,82
 252 -78 252 -78 186 -7.5 c 128,-1,83
 120 63 120 63 85 163 c 128,-1,84
 50 263 50 263 50 389 c 0,0,1
458 359 m 0,85,86
 458 310 458 310 476.5 288 c 128,-1,87
 495 266 495 266 524 266 c 0,88,89
 563 266 563 266 597 293.5 c 128,-1,90
 631 321 631 321 656.5 364 c 128,-1,91
 682 407 682 407 697 459.5 c 128,-1,92
 712 512 712 512 712 561 c 0,93,94
 712 608 712 608 691.5 633 c 128,-1,95
 671 658 671 658 636 658 c 0,96,97
 609 658 609 658 577.5 632 c 128,-1,98
 546 606 546 606 519.5 564 c 128,-1,99
 493 522 493 522 475.5 468.5 c 128,-1,100
 458 415 458 415 458 359 c 0,85,86
EndSplineSet
EndChar
StartChar: A
Encoding: 65 65 33
Width: 1228
Flags: W
LayerCount: 2
Back
Fore
SplineSet
407 136 m 2,0,1
 441 136 441 136 455.5 121 c 128,-1,2
 470 106 470 106 470 68 c 256,3,4
 470 30 470 30 455.5 15 c 128,-1,5
 441 0 441 0 407 0 c 2,6,-1
 73 0 l 2,7,8
 39 0 39 0 24.5 15 c 128,-1,9
 10 30 10 30 10 68 c 256,10,11
 10 106 10 106 24.5 121 c 128,-1,12
 39 136 39 136 73 136 c 2,13,-1
 129 136 l 1,14,-1
 460 1051 l 1,15,-1
 273 1051 l 2,16,17
 239 1051 239 1051 224.5 1066 c 128,-1,18
 210 1081 210 1081 210 1119 c 256,19,20
 210 1157 210 1157 224.5 1172 c 128,-1,21
 239 1187 239 1187 273 1187 c 2,22,-1
 640 1187 l 2,23,24
 680 1187 680 1187 704.5 1172 c 128,-1,25
 729 1157 729 1157 741 1122 c 2,26,-1
 1094 136 l 1,27,-1
 1155 136 l 2,28,29
 1189 136 1189 136 1203.5 121 c 128,-1,30
 1218 106 1218 106 1218 68 c 256,31,32
 1218 30 1218 30 1203.5 15 c 128,-1,33
 1189 0 1189 0 1155 0 c 2,34,-1
 801 0 l 2,35,36
 767 0 767 0 752.5 15 c 128,-1,37
 738 30 738 30 738 68 c 256,38,39
 738 106 738 106 752.5 121 c 128,-1,40
 767 136 767 136 801 136 c 2,41,-1
 936 136 l 1,42,-1
 854 374 l 1,43,-1
 369 374 l 1,44,-1
 286 136 l 1,45,-1
 407 136 l 2,0,1
416 510 m 1,46,-1
 808 510 l 1,47,-1
 622 1051 l 1,48,-1
 603 1051 l 1,49,-1
 416 510 l 1,46,-1
EndSplineSet
EndChar
StartChar: B
Encoding: 66 66 34
Width: 1228
Flags: W
LayerCount: 2
Back
Fore
SplineSet
265 1051 m 1,0,-1
 143 1051 l 2,1,2
 109 1051 109 1051 94.5 1066 c 128,-1,3
 80 1081 80 1081 80 1119 c 256,4,5
 80 1157 80 1157 94.5 1172 c 128,-1,6
 109 1187 109 1187 143 1187 c 2,7,-1
 644 1187 l 2,8,9
 734 1187 734 1187 802 1164 c 128,-1,10
 870 1141 870 1141 915.5 1098.5 c 128,-1,11
 961 1056 961 1056 984.5 996.5 c 128,-1,12
 1008 937 1008 937 1008 865 c 0,13,14
 1008 787 1008 787 973 729 c 128,-1,15
 938 671 938 671 875 635 c 1,16,17
 981 601 981 601 1037.5 526 c 128,-1,18
 1094 451 1094 451 1094 339 c 0,19,20
 1094 260 1094 260 1068.5 197.5 c 128,-1,21
 1043 135 1043 135 994 91 c 128,-1,22
 945 47 945 47 873.5 23.5 c 128,-1,23
 802 0 802 0 710 0 c 2,24,-1
 143 0 l 2,25,26
 109 0 109 0 94.5 15 c 128,-1,27
 80 30 80 30 80 68 c 256,28,29
 80 106 80 106 94.5 121 c 128,-1,30
 109 136 109 136 143 136 c 2,31,-1
 265 136 l 1,32,-1
 265 1051 l 1,0,-1
680 136 m 2,33,34
 805 136 805 136 870.5 189 c 128,-1,35
 936 242 936 242 936 339 c 0,36,37
 936 545 936 545 685 545 c 2,38,-1
 415 545 l 1,39,-1
 415 136 l 1,40,-1
 680 136 l 2,33,34
622 681 m 2,41,42
 740 681 740 681 797.5 729 c 128,-1,43
 855 777 855 777 855 865 c 0,44,45
 855 956 855 956 797.5 1003.5 c 128,-1,46
 740 1051 740 1051 622 1051 c 2,47,-1
 415 1051 l 1,48,-1
 415 681 l 1,49,-1
 622 681 l 2,41,42
EndSplineSet
EndChar
StartChar: C
Encoding: 67 67 35
Width: 1228
Flags: W
LayerCount: 2
Back
Fore
SplineSet
1062 109 m 0,0,1
 967 43 967 43 858 10.5 c 128,-1,2
 749 -22 749 -22 634 -22 c 0,3,4
 516 -22 516 -22 420.5 22 c 128,-1,5
 325 66 325 66 258 146.5 c 128,-1,6
 191 227 191 227 154.5 340.5 c 128,-1,7
 118 454 118 454 118 593 c 256,8,9
 118 732 118 732 155.5 845.5 c 128,-1,10
 193 959 193 959 261.5 1040 c 128,-1,11
 330 1121 330 1121 425 1165 c 128,-1,12
 520 1209 520 1209 634 1209 c 0,13,14
 731 1209 731 1209 803 1176.5 c 128,-1,15
 875 1144 875 1144 924 1086 c 1,16,-1
 924 1144 l 2,17,18
 924 1179 924 1179 940.5 1194 c 128,-1,19
 957 1209 957 1209 999 1209 c 256,20,21
 1041 1209 1041 1209 1057.5 1194 c 128,-1,22
 1074 1179 1074 1179 1074 1144 c 2,23,-1
 1074 814 l 2,24,25
 1074 779 1074 779 1057.5 764 c 128,-1,26
 1041 749 1041 749 999 749 c 256,27,28
 957 749 957 749 940.5 764 c 128,-1,29
 924 779 924 779 924 814 c 0,30,31
 924 863 924 863 907.5 908 c 128,-1,32
 891 953 891 953 856.5 987 c 128,-1,33
 822 1021 822 1021 769 1041 c 128,-1,34
 716 1061 716 1061 644 1061 c 0,35,36
 563 1061 563 1061 495 1028.5 c 128,-1,37
 427 996 427 996 378.5 935 c 128,-1,38
 330 874 330 874 303 787.5 c 128,-1,39
 276 701 276 701 276 593 c 256,40,41
 276 485 276 485 301.5 398.5 c 128,-1,42
 327 312 327 312 373.5 251.5 c 128,-1,43
 420 191 420 191 486.5 158.5 c 128,-1,44
 553 126 553 126 634 126 c 0,45,46
 734 126 734 126 823.5 154.5 c 128,-1,47
 913 183 913 183 985 239 c 0,48,49
 1005 255 1005 255 1029 253 c 128,-1,50
 1053 251 1053 251 1075 214 c 0,51,52
 1096 179 1096 179 1092 153.5 c 128,-1,53
 1088 128 1088 128 1062 109 c 0,0,1
EndSplineSet
EndChar
StartChar: D
Encoding: 68 68 36
Width: 1228
Flags: W
LayerCount: 2
Back
Fore
SplineSet
255 1051 m 1,0,-1
 143 1051 l 2,1,2
 109 1051 109 1051 94.5 1066 c 128,-1,3
 80 1081 80 1081 80 1119 c 256,4,5
 80 1157 80 1157 94.5 1172 c 128,-1,6
 109 1187 109 1187 143 1187 c 2,7,-1
 614 1187 l 2,8,9
 732 1187 732 1187 829 1146 c 128,-1,10
 926 1105 926 1105 995 1028.5 c 128,-1,11
 1064 952 1064 952 1102 842 c 128,-1,12
 1140 732 1140 732 1140 593 c 256,13,14
 1140 454 1140 454 1102 344 c 128,-1,15
 1064 234 1064 234 995 157.5 c 128,-1,16
 926 81 926 81 829 40.5 c 128,-1,17
 732 0 732 0 614 0 c 2,18,-1
 143 0 l 2,19,20
 109 0 109 0 94.5 15 c 128,-1,21
 80 30 80 30 80 68 c 256,22,23
 80 106 80 106 94.5 121 c 128,-1,24
 109 136 109 136 143 136 c 2,25,-1
 255 136 l 1,26,-1
 255 1051 l 1,0,-1
591 136 m 2,27,28
 680 136 680 136 752 165.5 c 128,-1,29
 824 195 824 195 875 252.5 c 128,-1,30
 926 310 926 310 954 395.5 c 128,-1,31
 982 481 982 481 982 593 c 256,32,33
 982 705 982 705 954 790.5 c 128,-1,34
 926 876 926 876 875 934 c 128,-1,35
 824 992 824 992 752 1021.5 c 128,-1,36
 680 1051 680 1051 591 1051 c 2,37,-1
 405 1051 l 1,38,-1
 405 136 l 1,39,-1
 591 136 l 2,27,28
EndSplineSet
EndChar
StartChar: E
Encoding: 69 69 37
Width: 1228
Flags: W
LayerCount: 2
Back
Fore
SplineSet
245 1051 m 1,0,-1
 143 1051 l 2,1,2
 109 1051 109 1051 94.5 1066 c 128,-1,3
 80 1081 80 1081 80 1119 c 256,4,5
 80 1157 80 1157 94.5 1172 c 128,-1,6
 109 1187 109 1187 143 1187 c 2,7,-1
 1017 1187 l 2,8,9
 1051 1187 1051 1187 1065.5 1172 c 128,-1,10
 1080 1157 1080 1157 1080 1119 c 2,11,-1
 1080 865 l 2,12,13
 1080 830 1080 830 1063.5 815 c 128,-1,14
 1047 800 1047 800 1005 800 c 256,15,16
 963 800 963 800 946.5 815 c 128,-1,17
 930 830 930 830 930 865 c 2,18,-1
 930 1051 l 1,19,-1
 395 1051 l 1,20,-1
 395 680 l 1,21,-1
 645 680 l 1,22,-1
 645 771 l 2,23,24
 645 806 645 806 661.5 821 c 128,-1,25
 678 836 678 836 720 836 c 256,26,27
 762 836 762 836 778.5 821 c 128,-1,28
 795 806 795 806 795 771 c 2,29,-1
 795 453 l 2,30,31
 795 418 795 418 778.5 403 c 128,-1,32
 762 388 762 388 720 388 c 256,33,34
 678 388 678 388 661.5 403 c 128,-1,35
 645 418 645 418 645 453 c 2,36,-1
 645 544 l 1,37,-1
 395 544 l 1,38,-1
 395 136 l 1,39,-1
 950 136 l 1,40,-1
 950 365 l 2,41,42
 950 400 950 400 966.5 415 c 128,-1,43
 983 430 983 430 1025 430 c 256,44,45
 1067 430 1067 430 1083.5 415 c 128,-1,46
 1100 400 1100 400 1100 365 c 2,47,-1
 1100 68 l 2,48,49
 1100 30 1100 30 1085.5 15 c 128,-1,50
 1071 0 1071 0 1037 0 c 2,51,-1
 143 0 l 2,52,53
 109 0 109 0 94.5 15 c 128,-1,54
 80 30 80 30 80 68 c 256,55,56
 80 106 80 106 94.5 121 c 128,-1,57
 109 136 109 136 143 136 c 2,58,-1
 245 136 l 1,59,-1
 245 1051 l 1,0,-1
EndSplineSet
EndChar
StartChar: F
Encoding: 70 70 38
Width: 1228
Flags: W
LayerCount: 2
Back
Fore
SplineSet
275 1051 m 1,0,-1
 143 1051 l 2,1,2
 109 1051 109 1051 94.5 1066 c 128,-1,3
 80 1081 80 1081 80 1119 c 256,4,5
 80 1157 80 1157 94.5 1172 c 128,-1,6
 109 1187 109 1187 143 1187 c 2,7,-1
 1047 1187 l 2,8,9
 1081 1187 1081 1187 1095.5 1172 c 128,-1,10
 1110 1157 1110 1157 1110 1119 c 2,11,-1
 1110 855 l 2,12,13
 1110 820 1110 820 1093.5 805 c 128,-1,14
 1077 790 1077 790 1035 790 c 256,15,16
 993 790 993 790 976.5 805 c 128,-1,17
 960 820 960 820 960 855 c 2,18,-1
 960 1051 l 1,19,-1
 425 1051 l 1,20,-1
 425 660 l 1,21,-1
 675 660 l 1,22,-1
 675 751 l 2,23,24
 675 786 675 786 691.5 801 c 128,-1,25
 708 816 708 816 750 816 c 256,26,27
 792 816 792 816 808.5 801 c 128,-1,28
 825 786 825 786 825 751 c 2,29,-1
 825 433 l 2,30,31
 825 398 825 398 808.5 383 c 128,-1,32
 792 368 792 368 750 368 c 256,33,34
 708 368 708 368 691.5 383 c 128,-1,35
 675 398 675 398 675 433 c 2,36,-1
 675 524 l 1,37,-1
 425 524 l 1,38,-1
 425 136 l 1,39,-1
 657 136 l 2,40,41
 691 136 691 136 705.5 121 c 128,-1,42
 720 106 720 106 720 68 c 256,43,44
 720 30 720 30 705.5 15 c 128,-1,45
 691 0 691 0 657 0 c 2,46,-1
 143 0 l 2,47,48
 109 0 109 0 94.5 15 c 128,-1,49
 80 30 80 30 80 68 c 256,50,51
 80 106 80 106 94.5 121 c 128,-1,52
 109 136 109 136 143 136 c 2,53,-1
 275 136 l 1,54,-1
 275 1051 l 1,0,-1
EndSplineSet
EndChar
StartChar: G
Encoding: 71 71 39
Width: 1228
Flags: W
LayerCount: 2
Back
Fore
SplineSet
676 410 m 2,0,1
 642 410 642 410 627.5 425 c 128,-1,2
 613 440 613 440 613 478 c 256,3,4
 613 516 613 516 627.5 531 c 128,-1,5
 642 546 642 546 676 546 c 2,6,-1
 1105 546 l 2,7,8
 1139 546 1139 546 1153.5 531 c 128,-1,9
 1168 516 1168 516 1168 478 c 256,10,11
 1168 440 1168 440 1153.5 425 c 128,-1,12
 1139 410 1139 410 1105 410 c 2,13,-1
 1073 410 l 1,14,-1
 1073 143 l 2,15,16
 1073 94 1073 94 1037 74 c 0,17,18
 954 26 954 26 847 2 c 128,-1,19
 740 -22 740 -22 624 -22 c 0,20,21
 506 -22 506 -22 409 22 c 128,-1,22
 312 66 312 66 243 146.5 c 128,-1,23
 174 227 174 227 136 340.5 c 128,-1,24
 98 454 98 454 98 593 c 256,25,26
 98 732 98 732 137.5 845.5 c 128,-1,27
 177 959 177 959 247 1040 c 128,-1,28
 317 1121 317 1121 413.5 1165 c 128,-1,29
 510 1209 510 1209 624 1209 c 0,30,31
 721 1209 721 1209 792.5 1179 c 128,-1,32
 864 1149 864 1149 912 1095 c 1,33,-1
 912 1144 l 2,34,35
 912 1179 912 1179 928.5 1194 c 128,-1,36
 945 1209 945 1209 987 1209 c 256,37,38
 1029 1209 1029 1209 1045.5 1194 c 128,-1,39
 1062 1179 1062 1179 1062 1144 c 2,40,-1
 1062 854 l 2,41,42
 1062 819 1062 819 1045.5 804 c 128,-1,43
 1029 789 1029 789 987 789 c 256,44,45
 945 789 945 789 928.5 804 c 128,-1,46
 912 819 912 819 912 854 c 0,47,48
 912 899 912 899 893.5 937 c 128,-1,49
 875 975 875 975 840 1002.5 c 128,-1,50
 805 1030 805 1030 753 1045.5 c 128,-1,51
 701 1061 701 1061 634 1061 c 0,52,53
 551 1061 551 1061 481.5 1028.5 c 128,-1,54
 412 996 412 996 362 935 c 128,-1,55
 312 874 312 874 284 787.5 c 128,-1,56
 256 701 256 701 256 593 c 256,57,58
 256 485 256 485 282.5 398.5 c 128,-1,59
 309 312 309 312 357 251.5 c 128,-1,60
 405 191 405 191 473 158.5 c 128,-1,61
 541 126 541 126 624 126 c 0,62,63
 709 126 709 126 783 139.5 c 128,-1,64
 857 153 857 153 923 183 c 1,65,-1
 923 410 l 1,66,-1
 676 410 l 2,0,1
EndSplineSet
EndChar
StartChar: H
Encoding: 72 72 40
Width: 1228
Flags: W
LayerCount: 2
Back
Fore
SplineSet
215 1051 m 1,0,-1
 143 1051 l 2,1,2
 109 1051 109 1051 94.5 1066 c 128,-1,3
 80 1081 80 1081 80 1119 c 256,4,5
 80 1157 80 1157 94.5 1172 c 128,-1,6
 109 1187 109 1187 143 1187 c 2,7,-1
 457 1187 l 2,8,9
 491 1187 491 1187 505.5 1172 c 128,-1,10
 520 1157 520 1157 520 1119 c 256,11,12
 520 1081 520 1081 505.5 1066 c 128,-1,13
 491 1051 491 1051 457 1051 c 2,14,-1
 365 1051 l 1,15,-1
 365 680 l 1,16,-1
 863 680 l 1,17,-1
 863 1051 l 1,18,-1
 771 1051 l 2,19,20
 737 1051 737 1051 722.5 1066 c 128,-1,21
 708 1081 708 1081 708 1119 c 256,22,23
 708 1157 708 1157 722.5 1172 c 128,-1,24
 737 1187 737 1187 771 1187 c 2,25,-1
 1085 1187 l 2,26,27
 1119 1187 1119 1187 1133.5 1172 c 128,-1,28
 1148 1157 1148 1157 1148 1119 c 256,29,30
 1148 1081 1148 1081 1133.5 1066 c 128,-1,31
 1119 1051 1119 1051 1085 1051 c 2,32,-1
 1013 1051 l 1,33,-1
 1013 136 l 1,34,-1
 1085 136 l 2,35,36
 1119 136 1119 136 1133.5 121 c 128,-1,37
 1148 106 1148 106 1148 68 c 256,38,39
 1148 30 1148 30 1133.5 15 c 128,-1,40
 1119 0 1119 0 1085 0 c 2,41,-1
 771 0 l 2,42,43
 737 0 737 0 722.5 15 c 128,-1,44
 708 30 708 30 708 68 c 256,45,46
 708 106 708 106 722.5 121 c 128,-1,47
 737 136 737 136 771 136 c 2,48,-1
 863 136 l 1,49,-1
 863 544 l 1,50,-1
 365 544 l 1,51,-1
 365 136 l 1,52,-1
 457 136 l 2,53,54
 491 136 491 136 505.5 121 c 128,-1,55
 520 106 520 106 520 68 c 256,56,57
 520 30 520 30 505.5 15 c 128,-1,58
 491 0 491 0 457 0 c 2,59,-1
 143 0 l 2,60,61
 109 0 109 0 94.5 15 c 128,-1,62
 80 30 80 30 80 68 c 256,63,64
 80 106 80 106 94.5 121 c 128,-1,65
 109 136 109 136 143 136 c 2,66,-1
 215 136 l 1,67,-1
 215 1051 l 1,0,-1
EndSplineSet
EndChar
StartChar: I
Encoding: 73 73 41
Width: 1228
Flags: W
LayerCount: 2
Back
Fore
SplineSet
539 1051 m 1,0,-1
 283 1051 l 2,1,2
 249 1051 249 1051 234.5 1066 c 128,-1,3
 220 1081 220 1081 220 1119 c 256,4,5
 220 1157 220 1157 234.5 1172 c 128,-1,6
 249 1187 249 1187 283 1187 c 2,7,-1
 945 1187 l 2,8,9
 979 1187 979 1187 993.5 1172 c 128,-1,10
 1008 1157 1008 1157 1008 1119 c 256,11,12
 1008 1081 1008 1081 993.5 1066 c 128,-1,13
 979 1051 979 1051 945 1051 c 2,14,-1
 689 1051 l 1,15,-1
 689 136 l 1,16,-1
 965 136 l 2,17,18
 999 136 999 136 1013.5 121 c 128,-1,19
 1028 106 1028 106 1028 68 c 256,20,21
 1028 30 1028 30 1013.5 15 c 128,-1,22
 999 0 999 0 965 0 c 2,23,-1
 263 0 l 2,24,25
 229 0 229 0 214.5 15 c 128,-1,26
 200 30 200 30 200 68 c 256,27,28
 200 106 200 106 214.5 121 c 128,-1,29
 229 136 229 136 263 136 c 2,30,-1
 539 136 l 1,31,-1
 539 1051 l 1,0,-1
EndSplineSet
EndChar
StartChar: J
Encoding: 74 74 42
Width: 1228
Flags: W
LayerCount: 2
Back
Fore
SplineSet
403 1051 m 2,0,1
 369 1051 369 1051 354.5 1066 c 128,-1,2
 340 1081 340 1081 340 1119 c 256,3,4
 340 1157 340 1157 354.5 1172 c 128,-1,5
 369 1187 369 1187 403 1187 c 2,6,-1
 1095 1187 l 2,7,8
 1129 1187 1129 1187 1143.5 1172 c 128,-1,9
 1158 1157 1158 1157 1158 1119 c 256,10,11
 1158 1081 1158 1081 1143.5 1066 c 128,-1,12
 1129 1051 1129 1051 1095 1051 c 2,13,-1
 894 1051 l 1,14,-1
 894 333 l 2,15,16
 894 156 894 156 792 67 c 128,-1,17
 690 -22 690 -22 494 -22 c 0,18,19
 375 -22 375 -22 283.5 20 c 128,-1,20
 192 62 192 62 131 129 c 0,21,22
 115 148 115 148 115 180 c 2,23,-1
 115 465 l 2,24,25
 115 500 115 500 131.5 515 c 128,-1,26
 148 530 148 530 190 530 c 256,27,28
 232 530 232 530 248.5 515 c 128,-1,29
 265 500 265 500 265 465 c 2,30,-1
 265 201 l 1,31,32
 349 126 349 126 495 126 c 0,33,34
 628 126 628 126 686 185 c 128,-1,35
 744 244 744 244 744 363 c 2,36,-1
 744 1051 l 1,37,-1
 403 1051 l 2,0,1
EndSplineSet
EndChar
StartChar: K
Encoding: 75 75 43
Width: 1228
Flags: W
LayerCount: 2
Back
Fore
SplineSet
255 1051 m 1,0,-1
 143 1051 l 2,1,2
 109 1051 109 1051 94.5 1066 c 128,-1,3
 80 1081 80 1081 80 1119 c 256,4,5
 80 1157 80 1157 94.5 1172 c 128,-1,6
 109 1187 109 1187 143 1187 c 2,7,-1
 497 1187 l 2,8,9
 531 1187 531 1187 545.5 1172 c 128,-1,10
 560 1157 560 1157 560 1119 c 256,11,12
 560 1081 560 1081 545.5 1066 c 128,-1,13
 531 1051 531 1051 497 1051 c 2,14,-1
 405 1051 l 1,15,-1
 405 630 l 1,16,-1
 839 1051 l 1,17,-1
 771 1051 l 2,18,19
 737 1051 737 1051 722.5 1066 c 128,-1,20
 708 1081 708 1081 708 1119 c 256,21,22
 708 1157 708 1157 722.5 1172 c 128,-1,23
 737 1187 737 1187 771 1187 c 2,24,-1
 1095 1187 l 2,25,26
 1129 1187 1129 1187 1143.5 1172 c 128,-1,27
 1158 1157 1158 1157 1158 1119 c 256,28,29
 1158 1081 1158 1081 1143.5 1066 c 128,-1,30
 1129 1051 1129 1051 1095 1051 c 2,31,-1
 1038 1051 l 1,32,-1
 615 646 l 1,33,34
 683 651 683 651 742 629 c 128,-1,35
 801 607 801 607 848 547 c 0,36,37
 876 510 876 510 898 465 c 128,-1,38
 920 420 920 420 938 374 c 128,-1,39
 956 328 956 328 972.5 284.5 c 128,-1,40
 989 241 989 241 1007 208 c 256,41,42
 1025 175 1025 175 1046.5 155.5 c 128,-1,43
 1068 136 1068 136 1097 136 c 2,44,-1
 1125 136 l 2,45,46
 1159 136 1159 136 1173.5 121 c 128,-1,47
 1188 106 1188 106 1188 68 c 256,48,49
 1188 30 1188 30 1173.5 15 c 128,-1,50
 1159 0 1159 0 1125 0 c 2,51,-1
 1043 0 l 2,52,53
 998 0 998 0 954 31 c 128,-1,54
 910 62 910 62 871 139 c 0,55,56
 851 179 851 179 834 222.5 c 128,-1,57
 817 266 817 266 801 308.5 c 128,-1,58
 785 351 785 351 767.5 390 c 128,-1,59
 750 429 750 429 728 460 c 0,60,61
 704 495 704 495 668 513.5 c 128,-1,62
 632 532 632 532 585 532 c 0,63,64
 544 532 544 532 505 517.5 c 128,-1,65
 466 503 466 503 435 473 c 2,66,-1
 405 444 l 1,67,-1
 405 136 l 1,68,-1
 567 136 l 2,69,70
 601 136 601 136 615.5 121 c 128,-1,71
 630 106 630 106 630 68 c 256,72,73
 630 30 630 30 615.5 15 c 128,-1,74
 601 0 601 0 567 0 c 2,75,-1
 143 0 l 2,76,77
 109 0 109 0 94.5 15 c 128,-1,78
 80 30 80 30 80 68 c 256,79,80
 80 106 80 106 94.5 121 c 128,-1,81
 109 136 109 136 143 136 c 2,82,-1
 255 136 l 1,83,-1
 255 1051 l 1,0,-1
EndSplineSet
EndChar
StartChar: L
Encoding: 76 76 44
Width: 1228
Flags: W
LayerCount: 2
Back
Fore
SplineSet
305 1051 m 1,0,-1
 143 1051 l 2,1,2
 109 1051 109 1051 94.5 1066 c 128,-1,3
 80 1081 80 1081 80 1119 c 256,4,5
 80 1157 80 1157 94.5 1172 c 128,-1,6
 109 1187 109 1187 143 1187 c 2,7,-1
 697 1187 l 2,8,9
 731 1187 731 1187 745.5 1172 c 128,-1,10
 760 1157 760 1157 760 1119 c 256,11,12
 760 1081 760 1081 745.5 1066 c 128,-1,13
 731 1051 731 1051 697 1051 c 2,14,-1
 455 1051 l 1,15,-1
 455 136 l 1,16,-1
 950 136 l 1,17,-1
 950 465 l 2,18,19
 950 500 950 500 966.5 515 c 128,-1,20
 983 530 983 530 1025 530 c 256,21,22
 1067 530 1067 530 1083.5 515 c 128,-1,23
 1100 500 1100 500 1100 465 c 2,24,-1
 1100 68 l 2,25,26
 1100 30 1100 30 1085.5 15 c 128,-1,27
 1071 0 1071 0 1037 0 c 2,28,-1
 143 0 l 2,29,30
 109 0 109 0 94.5 15 c 128,-1,31
 80 30 80 30 80 68 c 256,32,33
 80 106 80 106 94.5 121 c 128,-1,34
 109 136 109 136 143 136 c 2,35,-1
 305 136 l 1,36,-1
 305 1051 l 1,0,-1
EndSplineSet
EndChar
StartChar: M
Encoding: 77 77 45
Width: 1228
Flags: W
LayerCount: 2
Back
Fore
SplineSet
172 1051 m 1,0,-1
 123 1051 l 2,1,2
 89 1051 89 1051 74.5 1066 c 128,-1,3
 60 1081 60 1081 60 1119 c 256,4,5
 60 1157 60 1157 74.5 1172 c 128,-1,6
 89 1187 89 1187 123 1187 c 2,7,-1
 334 1187 l 2,8,9
 381 1187 381 1187 392 1154 c 2,10,-1
 614 545 l 1,11,-1
 835 1154 l 2,12,13
 846 1187 846 1187 894 1187 c 2,14,-1
 1105 1187 l 2,15,16
 1139 1187 1139 1187 1153.5 1172 c 128,-1,17
 1168 1157 1168 1157 1168 1119 c 256,18,19
 1168 1081 1168 1081 1153.5 1066 c 128,-1,20
 1139 1051 1139 1051 1105 1051 c 2,21,-1
 1055 1051 l 1,22,-1
 1081 136 l 1,23,-1
 1135 136 l 2,24,25
 1169 136 1169 136 1183.5 121 c 128,-1,26
 1198 106 1198 106 1198 68 c 256,27,28
 1198 30 1198 30 1183.5 15 c 128,-1,29
 1169 0 1169 0 1135 0 c 2,30,-1
 821 0 l 2,31,32
 787 0 787 0 772.5 15 c 128,-1,33
 758 30 758 30 758 68 c 256,34,35
 758 106 758 106 772.5 121 c 128,-1,36
 787 136 787 136 821 136 c 2,37,-1
 932 136 l 1,38,-1
 910 955 l 1,39,-1
 706 385 l 2,40,41
 693 350 693 350 671 335 c 128,-1,42
 649 320 649 320 614 320 c 256,43,44
 579 320 579 320 557 335 c 128,-1,45
 535 350 535 350 522 385 c 2,46,-1
 317 955 l 1,47,-1
 296 136 l 1,48,-1
 407 136 l 2,49,50
 441 136 441 136 455.5 121 c 128,-1,51
 470 106 470 106 470 68 c 256,52,53
 470 30 470 30 455.5 15 c 128,-1,54
 441 0 441 0 407 0 c 2,55,-1
 93 0 l 2,56,57
 59 0 59 0 44.5 15 c 128,-1,58
 30 30 30 30 30 68 c 256,59,60
 30 106 30 106 44.5 121 c 128,-1,61
 59 136 59 136 93 136 c 2,62,-1
 147 136 l 1,63,-1
 172 1051 l 1,0,-1
EndSplineSet
EndChar
StartChar: N
Encoding: 78 78 46
Width: 1228
Flags: W
LayerCount: 2
Back
Fore
SplineSet
210 1051 m 1,0,-1
 133 1051 l 2,1,2
 99 1051 99 1051 84.5 1066 c 128,-1,3
 70 1081 70 1081 70 1119 c 256,4,5
 70 1157 70 1157 84.5 1172 c 128,-1,6
 99 1187 99 1187 133 1187 c 2,7,-1
 357 1187 l 2,8,9
 398 1187 398 1187 414 1159 c 2,10,-1
 888 311 l 1,11,-1
 888 1051 l 1,12,-1
 771 1051 l 2,13,14
 737 1051 737 1051 722.5 1066 c 128,-1,15
 708 1081 708 1081 708 1119 c 256,16,17
 708 1157 708 1157 722.5 1172 c 128,-1,18
 737 1187 737 1187 771 1187 c 2,19,-1
 1095 1187 l 2,20,21
 1129 1187 1129 1187 1143.5 1172 c 128,-1,22
 1158 1157 1158 1157 1158 1119 c 256,23,24
 1158 1081 1158 1081 1143.5 1066 c 128,-1,25
 1129 1051 1129 1051 1095 1051 c 2,26,-1
 1038 1051 l 1,27,-1
 1038 37 l 2,28,29
 1038 11 1038 11 1020 -5.5 c 128,-1,30
 1002 -22 1002 -22 963 -22 c 0,31,32
 934 -22 934 -22 914 -7.5 c 128,-1,33
 894 7 894 7 879 33 c 2,34,-1
 360 960 l 1,35,-1
 360 136 l 1,36,-1
 497 136 l 2,37,38
 531 136 531 136 545.5 121 c 128,-1,39
 560 106 560 106 560 68 c 256,40,41
 560 30 560 30 545.5 15 c 128,-1,42
 531 0 531 0 497 0 c 2,43,-1
 143 0 l 2,44,45
 109 0 109 0 94.5 15 c 128,-1,46
 80 30 80 30 80 68 c 256,47,48
 80 106 80 106 94.5 121 c 128,-1,49
 109 136 109 136 143 136 c 2,50,-1
 210 136 l 1,51,-1
 210 1051 l 1,0,-1
EndSplineSet
EndChar
StartChar: O
Encoding: 79 79 47
Width: 1228
Flags: W
LayerCount: 2
Back
Fore
SplineSet
88 593 m 256,0,1
 88 732 88 732 126 845.5 c 128,-1,2
 164 959 164 959 233 1040 c 128,-1,3
 302 1121 302 1121 399 1165 c 128,-1,4
 496 1209 496 1209 614 1209 c 256,5,6
 732 1209 732 1209 829 1165 c 128,-1,7
 926 1121 926 1121 995 1040 c 128,-1,8
 1064 959 1064 959 1102 845.5 c 128,-1,9
 1140 732 1140 732 1140 593 c 256,10,11
 1140 454 1140 454 1102 340.5 c 128,-1,12
 1064 227 1064 227 995 146.5 c 128,-1,13
 926 66 926 66 829 22 c 128,-1,14
 732 -22 732 -22 614 -22 c 256,15,16
 496 -22 496 -22 399 22 c 128,-1,17
 302 66 302 66 233 146.5 c 128,-1,18
 164 227 164 227 126 340.5 c 128,-1,19
 88 454 88 454 88 593 c 256,0,1
246 593 m 256,20,21
 246 485 246 485 272.5 398.5 c 128,-1,22
 299 312 299 312 347 251.5 c 128,-1,23
 395 191 395 191 463 158.5 c 128,-1,24
 531 126 531 126 614 126 c 256,25,26
 697 126 697 126 765 158.5 c 128,-1,27
 833 191 833 191 881 251.5 c 128,-1,28
 929 312 929 312 955.5 398.5 c 128,-1,29
 982 485 982 485 982 593 c 256,30,31
 982 701 982 701 955.5 787.5 c 128,-1,32
 929 874 929 874 881 935 c 128,-1,33
 833 996 833 996 765 1028.5 c 128,-1,34
 697 1061 697 1061 614 1061 c 256,35,36
 531 1061 531 1061 463 1028.5 c 128,-1,37
 395 996 395 996 347 935 c 128,-1,38
 299 874 299 874 272.5 787.5 c 128,-1,39
 246 701 246 701 246 593 c 256,20,21
EndSplineSet
EndChar
StartChar: P
Encoding: 80 80 48
Width: 1228
Flags: W
LayerCount: 2
Back
Fore
SplineSet
305 1051 m 1,0,-1
 143 1051 l 2,1,2
 109 1051 109 1051 94.5 1066 c 128,-1,3
 80 1081 80 1081 80 1119 c 256,4,5
 80 1157 80 1157 94.5 1172 c 128,-1,6
 109 1187 109 1187 143 1187 c 2,7,-1
 690 1187 l 2,8,9
 791 1187 791 1187 869.5 1159.5 c 128,-1,10
 948 1132 948 1132 1002 1082 c 128,-1,11
 1056 1032 1056 1032 1084 962.5 c 128,-1,12
 1112 893 1112 893 1112 808 c 0,13,14
 1112 724 1112 724 1084 654.5 c 128,-1,15
 1056 585 1056 585 1002 536 c 128,-1,16
 948 487 948 487 869.5 460 c 128,-1,17
 791 433 791 433 690 433 c 2,18,-1
 455 433 l 1,19,-1
 455 136 l 1,20,-1
 695 136 l 2,21,22
 729 136 729 136 743.5 121 c 128,-1,23
 758 106 758 106 758 68 c 256,24,25
 758 30 758 30 743.5 15 c 128,-1,26
 729 0 729 0 695 0 c 2,27,-1
 143 0 l 2,28,29
 109 0 109 0 94.5 15 c 128,-1,30
 80 30 80 30 80 68 c 256,31,32
 80 106 80 106 94.5 121 c 128,-1,33
 109 136 109 136 143 136 c 2,34,-1
 305 136 l 1,35,-1
 305 1051 l 1,0,-1
669 569 m 2,36,37
 810 569 810 569 882 632.5 c 128,-1,38
 954 696 954 696 954 808 c 0,39,40
 954 922 954 922 882 986.5 c 128,-1,41
 810 1051 810 1051 669 1051 c 2,42,-1
 455 1051 l 1,43,-1
 455 569 l 1,44,-1
 669 569 l 2,36,37
EndSplineSet
EndChar
StartChar: Q
Encoding: 81 81 49
Width: 1228
Flags: W
LayerCount: 2
Back
Fore
SplineSet
246 618 m 256,0,1
 246 514 246 514 272.5 432 c 128,-1,2
 299 350 299 350 347 293 c 128,-1,3
 395 236 395 236 463 206 c 128,-1,4
 531 176 531 176 614 176 c 256,5,6
 697 176 697 176 765 206 c 128,-1,7
 833 236 833 236 881 293 c 128,-1,8
 929 350 929 350 955.5 432 c 128,-1,9
 982 514 982 514 982 618 c 256,10,11
 982 722 982 722 955.5 804.5 c 128,-1,12
 929 887 929 887 881 944 c 128,-1,13
 833 1001 833 1001 765 1031 c 128,-1,14
 697 1061 697 1061 614 1061 c 256,15,16
 531 1061 531 1061 463 1031 c 128,-1,17
 395 1001 395 1001 347 944 c 128,-1,18
 299 887 299 887 272.5 804.5 c 128,-1,19
 246 722 246 722 246 618 c 256,0,1
417 62 m 1,20,21
 341 91 341 91 280 142 c 128,-1,22
 219 193 219 193 176.5 264 c 128,-1,23
 134 335 134 335 111 424 c 128,-1,24
 88 513 88 513 88 618 c 0,25,26
 88 753 88 753 126 862 c 128,-1,27
 164 971 164 971 233 1048.5 c 128,-1,28
 302 1126 302 1126 399 1167.5 c 128,-1,29
 496 1209 496 1209 614 1209 c 256,30,31
 732 1209 732 1209 829 1167.5 c 128,-1,32
 926 1126 926 1126 995 1048.5 c 128,-1,33
 1064 971 1064 971 1102 862 c 128,-1,34
 1140 753 1140 753 1140 618 c 256,35,36
 1140 483 1140 483 1102 374 c 128,-1,37
 1064 265 1064 265 995 188 c 128,-1,38
 926 111 926 111 829 69.5 c 128,-1,39
 732 28 732 28 614 28 c 0,40,41
 599 28 599 28 585 28.5 c 128,-1,42
 571 29 571 29 562 30 c 1,43,-1
 433 -105 l 1,44,45
 479 -87 479 -87 518.5 -80 c 128,-1,46
 558 -73 558 -73 593 -73 c 256,47,48
 628 -73 628 -73 659 -78 c 128,-1,49
 690 -83 690 -83 719.5 -89 c 128,-1,50
 749 -95 749 -95 776.5 -100 c 128,-1,51
 804 -105 804 -105 833 -105 c 0,52,53
 870 -105 870 -105 909 -93 c 128,-1,54
 948 -81 948 -81 993 -48 c 0,55,56
 1010 -35 1010 -35 1031.5 -46.5 c 128,-1,57
 1053 -58 1053 -58 1070 -86 c 0,58,59
 1086 -112 1086 -112 1087 -137 c 128,-1,60
 1088 -162 1088 -162 1065 -179 c 0,61,62
 1003 -225 1003 -225 952 -241.5 c 128,-1,63
 901 -258 901 -258 853 -258 c 0,64,65
 818 -258 818 -258 784.5 -252 c 128,-1,66
 751 -246 751 -246 715.5 -239 c 128,-1,67
 680 -232 680 -232 642.5 -226 c 128,-1,68
 605 -220 605 -220 562 -220 c 0,69,70
 517 -220 517 -220 460 -230.5 c 128,-1,71
 403 -241 403 -241 337 -269 c 0,72,73
 317 -277 317 -277 295.5 -264.5 c 128,-1,74
 274 -252 274 -252 254 -226 c 256,75,76
 234 -200 234 -200 229 -178 c 128,-1,77
 224 -156 224 -156 237 -142 c 2,78,-1
 417 62 l 1,20,21
EndSplineSet
EndChar
StartChar: R
Encoding: 82 82 50
Width: 1228
Flags: W
LayerCount: 2
Back
Fore
SplineSet
265 1051 m 1,0,-1
 143 1051 l 2,1,2
 109 1051 109 1051 94.5 1066 c 128,-1,3
 80 1081 80 1081 80 1119 c 256,4,5
 80 1157 80 1157 94.5 1172 c 128,-1,6
 109 1187 109 1187 143 1187 c 2,7,-1
 649 1187 l 2,8,9
 745 1187 745 1187 819 1162.5 c 128,-1,10
 893 1138 893 1138 943.5 1094 c 128,-1,11
 994 1050 994 1050 1020 987.5 c 128,-1,12
 1046 925 1046 925 1046 850 c 0,13,14
 1046 792 1046 792 1026.5 743 c 128,-1,15
 1007 694 1007 694 971 656 c 128,-1,16
 935 618 935 618 883.5 590.5 c 128,-1,17
 832 563 832 563 769 549 c 1,18,19
 795 537 795 537 817 519 c 128,-1,20
 839 501 839 501 859 479 c 0,21,22
 884 451 884 451 906.5 418 c 128,-1,23
 929 385 929 385 948.5 351.5 c 128,-1,24
 968 318 968 318 986 285 c 128,-1,25
 1004 252 1004 252 1021 224 c 0,26,27
 1045 184 1045 184 1070 160 c 128,-1,28
 1095 136 1095 136 1126 136 c 2,29,-1
 1145 136 l 2,30,31
 1179 136 1179 136 1193.5 121 c 128,-1,32
 1208 106 1208 106 1208 68 c 256,33,34
 1208 30 1208 30 1193.5 15 c 128,-1,35
 1179 0 1179 0 1145 0 c 2,36,-1
 1075 0 l 2,37,38
 1032 0 1032 0 989.5 30.5 c 128,-1,39
 947 61 947 61 899 139 c 0,40,41
 879 172 879 172 860 207 c 128,-1,42
 841 242 841 242 822 276.5 c 128,-1,43
 803 311 803 311 783 342.5 c 128,-1,44
 763 374 763 374 742 401 c 0,45,46
 716 434 716 434 688.5 456 c 128,-1,47
 661 478 661 478 629 491 c 128,-1,48
 597 504 597 504 560 509.5 c 128,-1,49
 523 515 523 515 477 515 c 2,50,-1
 415 515 l 1,51,-1
 415 136 l 1,52,-1
 545 136 l 2,53,54
 579 136 579 136 593.5 121 c 128,-1,55
 608 106 608 106 608 68 c 256,56,57
 608 30 608 30 593.5 15 c 128,-1,58
 579 0 579 0 545 0 c 2,59,-1
 143 0 l 2,60,61
 109 0 109 0 94.5 15 c 128,-1,62
 80 30 80 30 80 68 c 256,63,64
 80 106 80 106 94.5 121 c 128,-1,65
 109 136 109 136 143 136 c 2,66,-1
 265 136 l 1,67,-1
 265 1051 l 1,0,-1
415 1051 m 1,68,-1
 415 651 l 1,69,-1
 618 651 l 2,70,71
 680 651 680 651 730 662 c 128,-1,72
 780 673 780 673 815 697 c 128,-1,73
 850 721 850 721 869 759 c 128,-1,74
 888 797 888 797 888 850 c 0,75,76
 888 947 888 947 820.5 999 c 128,-1,77
 753 1051 753 1051 628 1051 c 2,78,-1
 415 1051 l 1,68,-1
EndSplineSet
EndChar
StartChar: S
Encoding: 83 83 51
Width: 1228
Flags: W
LayerCount: 2
Back
Fore
SplineSet
308 43 m 2,0,1
 308 8 308 8 291.5 -7 c 128,-1,2
 275 -22 275 -22 233 -22 c 256,3,4
 191 -22 191 -22 174.5 -7 c 128,-1,5
 158 8 158 8 158 43 c 2,6,-1
 158 343 l 2,7,8
 158 378 158 378 174.5 393 c 128,-1,9
 191 408 191 408 233 408 c 0,10,11
 276 408 276 408 291 366 c 0,12,13
 332 250 332 250 421 188 c 128,-1,14
 510 126 510 126 642 126 c 0,15,16
 708 126 708 126 757.5 141 c 128,-1,17
 807 156 807 156 840 182.5 c 128,-1,18
 873 209 873 209 890 246 c 128,-1,19
 907 283 907 283 907 327 c 0,20,21
 907 393 907 393 873.5 432 c 128,-1,22
 840 471 840 471 784 495 c 0,23,24
 738 514 738 514 682 526.5 c 128,-1,25
 626 539 626 539 566.5 551 c 128,-1,26
 507 563 507 563 448 577 c 128,-1,27
 389 591 389 591 338 614 c 0,28,29
 301 630 301 630 270 653 c 128,-1,30
 239 676 239 676 216.5 707 c 128,-1,31
 194 738 194 738 181.5 779 c 128,-1,32
 169 820 169 820 169 873 c 0,33,34
 169 951 169 951 198 1013.5 c 128,-1,35
 227 1076 227 1076 278.5 1119.5 c 128,-1,36
 330 1163 330 1163 401.5 1186 c 128,-1,37
 473 1209 473 1209 558 1209 c 0,38,39
 649 1209 649 1209 730 1174.5 c 128,-1,40
 811 1140 811 1140 868 1083 c 1,41,-1
 868 1144 l 2,42,43
 868 1179 868 1179 884.5 1194 c 128,-1,44
 901 1209 901 1209 943 1209 c 256,45,46
 985 1209 985 1209 1001.5 1194 c 128,-1,47
 1018 1179 1018 1179 1018 1144 c 2,48,-1
 1018 914 l 2,49,50
 1018 879 1018 879 1001.5 864 c 128,-1,51
 985 849 985 849 943 849 c 0,52,53
 905 849 905 849 891 875 c 0,54,55
 842 968 842 968 755 1014.5 c 128,-1,56
 668 1061 668 1061 558 1061 c 0,57,58
 446 1061 446 1061 386.5 1009 c 128,-1,59
 327 957 327 957 327 873 c 0,60,61
 327 830 327 830 349 802.5 c 128,-1,62
 371 775 371 775 408 756 c 0,63,64
 448 736 448 736 501.5 724 c 128,-1,65
 555 712 555 712 614 700.5 c 128,-1,66
 673 689 673 689 734.5 675.5 c 128,-1,67
 796 662 796 662 852 640 c 0,68,69
 897 622 897 622 936 596 c 128,-1,70
 975 570 975 570 1003.5 532.5 c 128,-1,71
 1032 495 1032 495 1048.5 444.5 c 128,-1,72
 1065 394 1065 394 1065 327 c 0,73,74
 1065 250 1065 250 1037.5 185.5 c 128,-1,75
 1010 121 1010 121 956.5 75 c 128,-1,76
 903 29 903 29 824 3.5 c 128,-1,77
 745 -22 745 -22 642 -22 c 0,78,79
 542 -22 542 -22 456.5 14 c 128,-1,80
 371 50 371 50 308 121 c 1,81,-1
 308 43 l 2,0,1
EndSplineSet
EndChar
StartChar: T
Encoding: 84 84 52
Width: 1228
Flags: W
LayerCount: 2
Back
Fore
SplineSet
539 1051 m 1,0,-1
 272 1051 l 1,1,-1
 272 742 l 2,2,3
 272 707 272 707 255.5 692 c 128,-1,4
 239 677 239 677 197 677 c 256,5,6
 155 677 155 677 138.5 692 c 128,-1,7
 122 707 122 707 122 742 c 2,8,-1
 122 1119 l 2,9,10
 122 1157 122 1157 136.5 1172 c 128,-1,11
 151 1187 151 1187 185 1187 c 2,12,-1
 1043 1187 l 2,13,14
 1077 1187 1077 1187 1091.5 1172 c 128,-1,15
 1106 1157 1106 1157 1106 1119 c 2,16,-1
 1106 742 l 2,17,18
 1106 707 1106 707 1089.5 692 c 128,-1,19
 1073 677 1073 677 1031 677 c 256,20,21
 989 677 989 677 972.5 692 c 128,-1,22
 956 707 956 707 956 742 c 2,23,-1
 956 1051 l 1,24,-1
 689 1051 l 1,25,-1
 689 136 l 1,26,-1
 925 136 l 2,27,28
 959 136 959 136 973.5 121 c 128,-1,29
 988 106 988 106 988 68 c 256,30,31
 988 30 988 30 973.5 15 c 128,-1,32
 959 0 959 0 925 0 c 2,33,-1
 303 0 l 2,34,35
 269 0 269 0 254.5 15 c 128,-1,36
 240 30 240 30 240 68 c 256,37,38
 240 106 240 106 254.5 121 c 128,-1,39
 269 136 269 136 303 136 c 2,40,-1
 539 136 l 1,41,-1
 539 1051 l 1,0,-1
EndSplineSet
EndChar
StartChar: U
Encoding: 85 85 53
Width: 1228
Flags: W
LayerCount: 2
Back
Fore
SplineSet
133 1051 m 2,0,1
 99 1051 99 1051 84.5 1066 c 128,-1,2
 70 1081 70 1081 70 1119 c 256,3,4
 70 1157 70 1157 84.5 1172 c 128,-1,5
 99 1187 99 1187 133 1187 c 2,6,-1
 457 1187 l 2,7,8
 491 1187 491 1187 505.5 1172 c 128,-1,9
 520 1157 520 1157 520 1119 c 256,10,11
 520 1081 520 1081 505.5 1066 c 128,-1,12
 491 1051 491 1051 457 1051 c 2,13,-1
 345 1051 l 1,14,-1
 345 413 l 2,15,16
 345 335 345 335 361.5 280.5 c 128,-1,17
 378 226 378 226 411.5 191.5 c 128,-1,18
 445 157 445 157 495.5 141.5 c 128,-1,19
 546 126 546 126 614 126 c 256,20,21
 682 126 682 126 732.5 141.5 c 128,-1,22
 783 157 783 157 816.5 191.5 c 128,-1,23
 850 226 850 226 866.5 280.5 c 128,-1,24
 883 335 883 335 883 413 c 2,25,-1
 883 1051 l 1,26,-1
 771 1051 l 2,27,28
 737 1051 737 1051 722.5 1066 c 128,-1,29
 708 1081 708 1081 708 1119 c 256,30,31
 708 1157 708 1157 722.5 1172 c 128,-1,32
 737 1187 737 1187 771 1187 c 2,33,-1
 1095 1187 l 2,34,35
 1129 1187 1129 1187 1143.5 1172 c 128,-1,36
 1158 1157 1158 1157 1158 1119 c 256,37,38
 1158 1081 1158 1081 1143.5 1066 c 128,-1,39
 1129 1051 1129 1051 1095 1051 c 2,40,-1
 1033 1051 l 1,41,-1
 1033 393 l 2,42,43
 1033 286 1033 286 1004 208 c 128,-1,44
 975 130 975 130 921 79 c 128,-1,45
 867 28 867 28 789 3 c 128,-1,46
 711 -22 711 -22 614 -22 c 0,47,48
 516 -22 516 -22 438.5 3 c 128,-1,49
 361 28 361 28 307 79 c 128,-1,50
 253 130 253 130 224 208 c 128,-1,51
 195 286 195 286 195 393 c 2,52,-1
 195 1051 l 1,53,-1
 133 1051 l 2,0,1
EndSplineSet
EndChar
StartChar: V
Encoding: 86 86 54
Width: 1228
Flags: W
LayerCount: 2
Back
Fore
SplineSet
73 1051 m 2,0,1
 39 1051 39 1051 24.5 1066 c 128,-1,2
 10 1081 10 1081 10 1119 c 256,3,4
 10 1157 10 1157 24.5 1172 c 128,-1,5
 39 1187 39 1187 73 1187 c 2,6,-1
 447 1187 l 2,7,8
 481 1187 481 1187 495.5 1172 c 128,-1,9
 510 1157 510 1157 510 1119 c 256,10,11
 510 1081 510 1081 495.5 1066 c 128,-1,12
 481 1051 481 1051 447 1051 c 2,13,-1
 306 1051 l 1,14,-1
 612 167 l 1,15,-1
 921 1051 l 1,16,-1
 821 1051 l 2,17,18
 787 1051 787 1051 772.5 1066 c 128,-1,19
 758 1081 758 1081 758 1119 c 256,20,21
 758 1157 758 1157 772.5 1172 c 128,-1,22
 787 1187 787 1187 821 1187 c 2,23,-1
 1155 1187 l 2,24,25
 1189 1187 1189 1187 1203.5 1172 c 128,-1,26
 1218 1157 1218 1157 1218 1119 c 256,27,28
 1218 1081 1218 1081 1203.5 1066 c 128,-1,29
 1189 1051 1189 1051 1155 1051 c 2,30,-1
 1078 1051 l 1,31,-1
 719 43 l 2,32,33
 706 8 706 8 680 -7 c 128,-1,34
 654 -22 654 -22 611 -22 c 256,35,36
 568 -22 568 -22 542.5 -7 c 128,-1,37
 517 8 517 8 505 43 c 2,38,-1
 149 1051 l 1,39,-1
 73 1051 l 2,0,1
EndSplineSet
EndChar
StartChar: W
Encoding: 87 87 55
Width: 1228
Flags: W
LayerCount: 2
Back
Fore
SplineSet
53 1051 m 2,0,1
 19 1051 19 1051 4.5 1066 c 128,-1,2
 -10 1081 -10 1081 -10 1119 c 256,3,4
 -10 1157 -10 1157 4.5 1172 c 128,-1,5
 19 1187 19 1187 53 1187 c 2,6,-1
 397 1187 l 2,7,8
 431 1187 431 1187 445.5 1172 c 128,-1,9
 460 1157 460 1157 460 1119 c 256,10,11
 460 1081 460 1081 445.5 1066 c 128,-1,12
 431 1051 431 1051 397 1051 c 2,13,-1
 251 1051 l 1,14,-1
 351 250 l 1,15,-1
 539 838 l 2,16,17
 545 858 545 858 562 871.5 c 128,-1,18
 579 885 579 885 611 885 c 0,19,20
 644 885 644 885 661 875 c 128,-1,21
 678 865 678 865 684 845 c 2,22,-1
 871 250 l 1,23,-1
 975 1051 l 1,24,-1
 851 1051 l 2,25,26
 817 1051 817 1051 802.5 1066 c 128,-1,27
 788 1081 788 1081 788 1119 c 256,28,29
 788 1157 788 1157 802.5 1172 c 128,-1,30
 817 1187 817 1187 851 1187 c 2,31,-1
 1175 1187 l 2,32,33
 1209 1187 1209 1187 1223.5 1172 c 128,-1,34
 1238 1157 1238 1157 1238 1119 c 256,35,36
 1238 1081 1238 1081 1223.5 1066 c 128,-1,37
 1209 1051 1209 1051 1175 1051 c 2,38,-1
 1121 1051 l 1,39,-1
 983 43 l 2,40,41
 978 6 978 6 956.5 -8 c 128,-1,42
 935 -22 935 -22 897 -22 c 256,43,44
 859 -22 859 -22 832.5 -7 c 128,-1,45
 806 8 806 8 795 43 c 2,46,-1
 610 624 l 1,47,-1
 423 43 l 2,48,49
 412 8 412 8 384.5 -7 c 128,-1,50
 357 -22 357 -22 319 -22 c 256,51,52
 281 -22 281 -22 260.5 -7.5 c 128,-1,53
 240 7 240 7 235 43 c 2,54,-1
 102 1051 l 1,55,-1
 53 1051 l 2,0,1
EndSplineSet
EndChar
StartChar: X
Encoding: 88 88 56
Width: 1228
Flags: W
LayerCount: 2
Back
Fore
SplineSet
524 619 m 1,0,-1
 212 1051 l 1,1,-1
 143 1051 l 2,2,3
 109 1051 109 1051 94.5 1066 c 128,-1,4
 80 1081 80 1081 80 1119 c 256,5,6
 80 1157 80 1157 94.5 1172 c 128,-1,7
 109 1187 109 1187 143 1187 c 2,8,-1
 487 1187 l 2,9,10
 521 1187 521 1187 535.5 1172 c 128,-1,11
 550 1157 550 1157 550 1119 c 256,12,13
 550 1081 550 1081 535.5 1066 c 128,-1,14
 521 1051 521 1051 487 1051 c 2,15,-1
 398 1051 l 1,16,-1
 619 735 l 1,17,-1
 841 1051 l 1,18,-1
 781 1051 l 2,19,20
 747 1051 747 1051 732.5 1066 c 128,-1,21
 718 1081 718 1081 718 1119 c 256,22,23
 718 1157 718 1157 732.5 1172 c 128,-1,24
 747 1187 747 1187 781 1187 c 2,25,-1
 1085 1187 l 2,26,27
 1119 1187 1119 1187 1133.5 1172 c 128,-1,28
 1148 1157 1148 1157 1148 1119 c 256,29,30
 1148 1081 1148 1081 1133.5 1066 c 128,-1,31
 1119 1051 1119 1051 1085 1051 c 2,32,-1
 1020 1051 l 1,33,-1
 711 617 l 1,34,-1
 1057 136 l 1,35,-1
 1115 136 l 2,36,37
 1149 136 1149 136 1163.5 121 c 128,-1,38
 1178 106 1178 106 1178 68 c 256,39,40
 1178 30 1178 30 1163.5 15 c 128,-1,41
 1149 0 1149 0 1115 0 c 2,42,-1
 761 0 l 2,43,44
 727 0 727 0 712.5 15 c 128,-1,45
 698 30 698 30 698 68 c 256,46,47
 698 106 698 106 712.5 121 c 128,-1,48
 727 136 727 136 761 136 c 2,49,-1
 870 136 l 1,50,-1
 615 501 l 1,51,-1
 354 136 l 1,52,-1
 437 136 l 2,53,54
 471 136 471 136 485.5 121 c 128,-1,55
 500 106 500 106 500 68 c 256,56,57
 500 30 500 30 485.5 15 c 128,-1,58
 471 0 471 0 437 0 c 2,59,-1
 113 0 l 2,60,61
 79 0 79 0 64.5 15 c 128,-1,62
 50 30 50 30 50 68 c 256,63,64
 50 106 50 106 64.5 121 c 128,-1,65
 79 136 79 136 113 136 c 2,66,-1
 175 136 l 1,67,-1
 524 619 l 1,0,-1
EndSplineSet
EndChar
StartChar: Y
Encoding: 89 89 57
Width: 1228
Flags: W
LayerCount: 2
Back
Fore
SplineSet
539 492 m 1,0,-1
 193 1051 l 1,1,-1
 123 1051 l 2,2,3
 89 1051 89 1051 74.5 1066 c 128,-1,4
 60 1081 60 1081 60 1119 c 256,5,6
 60 1157 60 1157 74.5 1172 c 128,-1,7
 89 1187 89 1187 123 1187 c 2,8,-1
 457 1187 l 2,9,10
 491 1187 491 1187 505.5 1172 c 128,-1,11
 520 1157 520 1157 520 1119 c 256,12,13
 520 1081 520 1081 505.5 1066 c 128,-1,14
 491 1051 491 1051 457 1051 c 2,15,-1
 364 1051 l 1,16,-1
 614 642 l 1,17,-1
 866 1051 l 1,18,-1
 801 1051 l 2,19,20
 767 1051 767 1051 752.5 1066 c 128,-1,21
 738 1081 738 1081 738 1119 c 256,22,23
 738 1157 738 1157 752.5 1172 c 128,-1,24
 767 1187 767 1187 801 1187 c 2,25,-1
 1105 1187 l 2,26,27
 1139 1187 1139 1187 1153.5 1172 c 128,-1,28
 1168 1157 1168 1157 1168 1119 c 256,29,30
 1168 1081 1168 1081 1153.5 1066 c 128,-1,31
 1139 1051 1139 1051 1105 1051 c 2,32,-1
 1037 1051 l 1,33,-1
 689 492 l 1,34,-1
 689 136 l 1,35,-1
 915 136 l 2,36,37
 949 136 949 136 963.5 121 c 128,-1,38
 978 106 978 106 978 68 c 256,39,40
 978 30 978 30 963.5 15 c 128,-1,41
 949 0 949 0 915 0 c 2,42,-1
 313 0 l 2,43,44
 279 0 279 0 264.5 15 c 128,-1,45
 250 30 250 30 250 68 c 256,46,47
 250 106 250 106 264.5 121 c 128,-1,48
 279 136 279 136 313 136 c 2,49,-1
 539 136 l 1,50,-1
 539 492 l 1,0,-1
EndSplineSet
EndChar
StartChar: Z
Encoding: 90 90 58
Width: 1228
Flags: W
LayerCount: 2
Back
Fore
SplineSet
909 136 m 1,0,-1
 909 405 l 2,1,2
 909 440 909 440 925.5 455 c 128,-1,3
 942 470 942 470 984 470 c 256,4,5
 1026 470 1026 470 1042.5 455 c 128,-1,6
 1059 440 1059 440 1059 405 c 2,7,-1
 1059 68 l 2,8,9
 1059 30 1059 30 1044.5 15 c 128,-1,10
 1030 0 1030 0 996 0 c 2,11,-1
 230 0 l 2,12,13
 196 0 196 0 181.5 15 c 128,-1,14
 167 30 167 30 167 68 c 0,15,16
 167 82 167 82 171 92 c 128,-1,17
 175 102 175 102 181 111 c 2,18,-1
 840 1051 l 1,19,-1
 338 1051 l 1,20,-1
 338 802 l 2,21,22
 338 767 338 767 321.5 752 c 128,-1,23
 305 737 305 737 263 737 c 256,24,25
 221 737 221 737 204.5 752 c 128,-1,26
 188 767 188 767 188 802 c 2,27,-1
 188 1119 l 2,28,29
 188 1157 188 1157 202.5 1172 c 128,-1,30
 217 1187 217 1187 251 1187 c 2,31,-1
 987 1187 l 2,32,33
 1021 1187 1021 1187 1035.5 1172 c 128,-1,34
 1050 1157 1050 1157 1050 1119 c 0,35,36
 1050 1094 1050 1094 1040 1080 c 2,37,-1
 377 136 l 1,38,-1
 909 136 l 1,0,-1
EndSplineSet
EndChar
StartChar: bracketleft
Encoding: 91 91 59
Width: 1228
Flags: W
LayerCount: 2
Back
Fore
SplineSet
807 -257 m 2,0,1
 841 -257 841 -257 855.5 -272 c 128,-1,2
 870 -287 870 -287 870 -325 c 256,3,4
 870 -363 870 -363 855.5 -378 c 128,-1,5
 841 -393 841 -393 807 -393 c 2,6,-1
 393 -393 l 2,7,8
 359 -393 359 -393 344.5 -378 c 128,-1,9
 330 -363 330 -363 330 -325 c 2,10,-1
 330 1244 l 2,11,12
 330 1282 330 1282 344.5 1297 c 128,-1,13
 359 1312 359 1312 393 1312 c 2,14,-1
 807 1312 l 2,15,16
 841 1312 841 1312 855.5 1297 c 128,-1,17
 870 1282 870 1282 870 1244 c 256,18,19
 870 1206 870 1206 855.5 1191 c 128,-1,20
 841 1176 841 1176 807 1176 c 2,21,-1
 480 1176 l 1,22,-1
 480 -257 l 1,23,-1
 807 -257 l 2,0,1
EndSplineSet
EndChar
StartChar: backslash
Encoding: 92 92 60
Width: 1228
Flags: W
LayerCount: 2
Back
Fore
SplineSet
1027 -233 m 2,0,1
 1033 -248 1033 -248 1028 -259.5 c 128,-1,2
 1023 -271 1023 -271 1011 -279.5 c 128,-1,3
 999 -288 999 -288 982.5 -292.5 c 128,-1,4
 966 -297 966 -297 948 -297 c 0,5,6
 927 -297 927 -297 908.5 -290 c 128,-1,7
 890 -283 890 -283 883 -267 c 2,8,-1
 201 1271 l 2,9,10
 195 1286 195 1286 199.5 1297.5 c 128,-1,11
 204 1309 204 1309 216 1317.5 c 128,-1,12
 228 1326 228 1326 245 1330.5 c 128,-1,13
 262 1335 262 1335 280 1335 c 0,14,15
 301 1335 301 1335 319.5 1328 c 128,-1,16
 338 1321 338 1321 345 1305 c 2,17,-1
 1027 -233 l 2,0,1
EndSplineSet
EndChar
StartChar: bracketright
Encoding: 93 93 61
Width: 1228
Flags: W
LayerCount: 2
Back
Fore
SplineSet
748 1176 m 1,0,-1
 421 1176 l 2,1,2
 387 1176 387 1176 372.5 1191 c 128,-1,3
 358 1206 358 1206 358 1244 c 256,4,5
 358 1282 358 1282 372.5 1297 c 128,-1,6
 387 1312 387 1312 421 1312 c 2,7,-1
 835 1312 l 2,8,9
 869 1312 869 1312 883.5 1297 c 128,-1,10
 898 1282 898 1282 898 1244 c 2,11,-1
 898 -325 l 2,12,13
 898 -363 898 -363 883.5 -378 c 128,-1,14
 869 -393 869 -393 835 -393 c 2,15,-1
 421 -393 l 2,16,17
 387 -393 387 -393 372.5 -378 c 128,-1,18
 358 -363 358 -363 358 -325 c 256,19,20
 358 -287 358 -287 372.5 -272 c 128,-1,21
 387 -257 387 -257 421 -257 c 2,22,-1
 748 -257 l 1,23,-1
 748 1176 l 1,0,-1
EndSplineSet
EndChar
StartChar: asciicircum
Encoding: 94 94 62
Width: 1228
Flags: W
LayerCount: 2
Back
Fore
SplineSet
614 1007 m 1,0,-1
 377 527 l 2,1,2
 367 507 367 507 338 503 c 128,-1,3
 309 499 309 499 282 509 c 0,4,5
 269 513 269 513 258 520.5 c 128,-1,6
 247 528 247 528 240 537 c 128,-1,7
 233 546 233 546 232 557 c 128,-1,8
 231 568 231 568 238 581 c 2,9,-1
 546 1172 l 2,10,11
 556 1190 556 1190 570.5 1199.5 c 128,-1,12
 585 1209 585 1209 614 1209 c 256,13,14
 643 1209 643 1209 657.5 1199.5 c 128,-1,15
 672 1190 672 1190 682 1172 c 2,16,-1
 990 581 l 2,17,18
 997 568 997 568 996 557 c 128,-1,19
 995 546 995 546 988 537 c 128,-1,20
 981 528 981 528 970 520.5 c 128,-1,21
 959 513 959 513 946 509 c 0,22,23
 919 499 919 499 890 503 c 128,-1,24
 861 507 861 507 851 527 c 2,25,-1
 614 1007 l 1,0,-1
EndSplineSet
EndChar
StartChar: underscore
Encoding: 95 95 63
Width: 1228
Flags: W
LayerCount: 2
Back
Fore
SplineSet
-5 -393 m 2,0,1
 -16 -393 -16 -393 -22 -381.5 c 128,-1,2
 -28 -370 -28 -370 -28 -325 c 256,3,4
 -28 -280 -28 -280 -22 -268.5 c 128,-1,5
 -16 -257 -16 -257 -5 -257 c 2,6,-1
 1233 -257 l 2,7,8
 1244 -257 1244 -257 1250 -268.5 c 128,-1,9
 1256 -280 1256 -280 1256 -325 c 256,10,11
 1256 -370 1256 -370 1250 -381.5 c 128,-1,12
 1244 -393 1244 -393 1233 -393 c 2,13,-1
 -5 -393 l 2,0,1
EndSplineSet
EndChar
StartChar: grave
Encoding: 96 96 64
Width: 1228
Flags: W
LayerCount: 2
Back
Fore
SplineSet
807 1133 m 2,0,1
 824 1123 824 1123 828.5 1105.5 c 128,-1,2
 833 1088 833 1088 826 1071 c 256,3,4
 819 1054 819 1054 804.5 1043.5 c 128,-1,5
 790 1033 790 1033 771 1039 c 2,6,-1
 290 1202 l 2,7,8
 280 1205 280 1205 273 1212.5 c 128,-1,9
 266 1220 266 1220 265 1232.5 c 128,-1,10
 264 1245 264 1245 269.5 1263.5 c 128,-1,11
 275 1282 275 1282 290 1309 c 0,12,13
 306 1337 306 1337 319 1351.5 c 128,-1,14
 332 1366 332 1366 343.5 1371 c 128,-1,15
 355 1376 355 1376 366.5 1373 c 128,-1,16
 378 1370 378 1370 391 1363 c 2,17,-1
 807 1133 l 2,0,1
EndSplineSet
EndChar
StartChar: a
Encoding: 97 97 65
Width: 1228
Flags: W
LayerCount: 2
Back
Fore
SplineSet
1095 136 m 2,0,1
 1129 136 1129 136 1143.5 121 c 128,-1,2
 1158 106 1158 106 1158 68 c 256,3,4
 1158 30 1158 30 1143.5 15 c 128,-1,5
 1129 0 1129 0 1095 0 c 2,6,-1
 1031 0 l 2,7,8
 1000 0 1000 0 972 7.5 c 128,-1,9
 944 15 944 15 921.5 31 c 128,-1,10
 899 47 899 47 882.5 71 c 128,-1,11
 866 95 866 95 859 128 c 1,12,13
 780 59 780 59 685 18.5 c 128,-1,14
 590 -22 590 -22 479 -22 c 0,15,16
 404 -22 404 -22 341 -2.5 c 128,-1,17
 278 17 278 17 232 54.5 c 128,-1,18
 186 92 186 92 160.5 146 c 128,-1,19
 135 200 135 200 135 270 c 0,20,21
 135 354 135 354 167.5 413 c 128,-1,22
 200 472 200 472 255.5 508.5 c 128,-1,23
 311 545 311 545 384.5 562 c 128,-1,24
 458 579 458 579 540 579 c 0,25,26
 621 579 621 579 697 566 c 128,-1,27
 773 553 773 553 844 528 c 1,28,-1
 844 613 l 2,29,30
 844 710 844 710 797.5 755.5 c 128,-1,31
 751 801 751 801 638 801 c 0,32,33
 557 801 557 801 475.5 779.5 c 128,-1,34
 394 758 394 758 331 713 c 0,35,36
 308 696 308 696 284 701 c 128,-1,37
 260 706 260 706 238 737 c 256,38,39
 216 768 216 768 220.5 792.5 c 128,-1,40
 225 817 225 817 248 834 c 0,41,42
 287 863 287 863 334 884.5 c 128,-1,43
 381 906 381 906 431.5 919.5 c 128,-1,44
 482 933 482 933 534.5 939.5 c 128,-1,45
 587 946 587 946 638 946 c 0,46,47
 817 946 817 946 905.5 862 c 128,-1,48
 994 778 994 778 994 613 c 2,49,-1
 994 215 l 2,50,51
 994 136 994 136 1060 136 c 2,52,-1
 1095 136 l 2,0,1
844 393 m 1,53,54
 775 416 775 416 697 427 c 128,-1,55
 619 438 619 438 541 438 c 0,56,57
 487 438 487 438 441.5 429 c 128,-1,58
 396 420 396 420 363 400.5 c 128,-1,59
 330 381 330 381 311.5 349.5 c 128,-1,60
 293 318 293 318 293 273 c 0,61,62
 293 200 293 200 343.5 159.5 c 128,-1,63
 394 119 394 119 485 119 c 0,64,65
 592 119 592 119 681 163.5 c 128,-1,66
 770 208 770 208 844 284 c 1,67,-1
 844 393 l 1,53,54
EndSplineSet
EndChar
StartChar: b
Encoding: 98 98 66
Width: 1228
Flags: W
LayerCount: 2
Back
Fore
SplineSet
202 1176 m 1,0,-1
 100 1176 l 2,1,2
 66 1176 66 1176 51.5 1191 c 128,-1,3
 37 1206 37 1206 37 1244 c 256,4,5
 37 1282 37 1282 51.5 1297 c 128,-1,6
 66 1312 66 1312 100 1312 c 2,7,-1
 289 1312 l 2,8,9
 323 1312 323 1312 337.5 1297 c 128,-1,10
 352 1282 352 1282 352 1244 c 2,11,-1
 352 781 l 1,12,13
 412 858 412 858 490.5 902 c 128,-1,14
 569 946 569 946 669 946 c 0,15,16
 762 946 762 946 841 913 c 128,-1,17
 920 880 920 880 977.5 817.5 c 128,-1,18
 1035 755 1035 755 1068 665 c 128,-1,19
 1101 575 1101 575 1101 462 c 256,20,21
 1101 349 1101 349 1068 259 c 128,-1,22
 1035 169 1035 169 977.5 106.5 c 128,-1,23
 920 44 920 44 841 11 c 128,-1,24
 762 -22 762 -22 669 -22 c 0,25,26
 569 -22 569 -22 486.5 22.5 c 128,-1,27
 404 67 404 67 342 148 c 1,28,-1
 342 68 l 2,29,30
 342 30 342 30 327.5 15 c 128,-1,31
 313 0 313 0 279 0 c 2,32,-1
 120 0 l 2,33,34
 86 0 86 0 71.5 15 c 128,-1,35
 57 30 57 30 57 68 c 256,36,37
 57 106 57 106 71.5 121 c 128,-1,38
 86 136 86 136 120 136 c 2,39,-1
 202 136 l 1,40,-1
 202 1176 l 1,0,-1
352 462 m 0,41,42
 352 382 352 382 375 320 c 128,-1,43
 398 258 398 258 439 214.5 c 128,-1,44
 480 171 480 171 536.5 148.5 c 128,-1,45
 593 126 593 126 659 126 c 0,46,47
 727 126 727 126 780 151 c 128,-1,48
 833 176 833 176 869 220.5 c 128,-1,49
 905 265 905 265 924 326.5 c 128,-1,50
 943 388 943 388 943 462 c 0,51,52
 943 535 943 535 924 597 c 128,-1,53
 905 659 905 659 869 703.5 c 128,-1,54
 833 748 833 748 780 773 c 128,-1,55
 727 798 727 798 659 798 c 0,56,57
 593 798 593 798 536.5 775.5 c 128,-1,58
 480 753 480 753 439 709.5 c 128,-1,59
 398 666 398 666 375 603.5 c 128,-1,60
 352 541 352 541 352 462 c 0,41,42
EndSplineSet
EndChar
StartChar: c
Encoding: 99 99 67
Width: 1228
Flags: W
LayerCount: 2
Back
Fore
SplineSet
899 591 m 0,0,1
 899 636 899 636 881 674 c 128,-1,2
 863 712 863 712 827.5 739.5 c 128,-1,3
 792 767 792 767 740 782.5 c 128,-1,4
 688 798 688 798 619 798 c 0,5,6
 546 798 546 798 484.5 773 c 128,-1,7
 423 748 423 748 379 703 c 128,-1,8
 335 658 335 658 310 596.5 c 128,-1,9
 285 535 285 535 285 462 c 256,10,11
 285 389 285 389 308 327.5 c 128,-1,12
 331 266 331 266 373.5 221 c 128,-1,13
 416 176 416 176 476 151 c 128,-1,14
 536 126 536 126 609 126 c 0,15,16
 701 126 701 126 787 154 c 128,-1,17
 873 182 873 182 945 237 c 0,18,19
 971 257 971 257 994 252 c 128,-1,20
 1017 247 1017 247 1038 212 c 0,21,22
 1055 185 1055 185 1052.5 156 c 128,-1,23
 1050 127 1050 127 1021 106 c 0,24,25
 940 46 940 46 832 12 c 128,-1,26
 724 -22 724 -22 609 -22 c 0,27,28
 499 -22 499 -22 410 14.5 c 128,-1,29
 321 51 321 51 258 116 c 128,-1,30
 195 181 195 181 161 269.5 c 128,-1,31
 127 358 127 358 127 462 c 256,32,33
 127 566 127 566 162 654.5 c 128,-1,34
 197 743 197 743 260.5 808 c 128,-1,35
 324 873 324 873 412.5 909.5 c 128,-1,36
 501 946 501 946 609 946 c 0,37,38
 700 946 700 946 774 913.5 c 128,-1,39
 848 881 848 881 899 821 c 1,40,-1
 899 881 l 2,41,42
 899 916 899 916 915.5 931 c 128,-1,43
 932 946 932 946 974 946 c 256,44,45
 1016 946 1016 946 1032.5 931 c 128,-1,46
 1049 916 1049 916 1049 881 c 2,47,-1
 1049 591 l 2,48,49
 1049 556 1049 556 1032.5 541 c 128,-1,50
 1016 526 1016 526 974 526 c 256,51,52
 932 526 932 526 915.5 541 c 128,-1,53
 899 556 899 556 899 591 c 0,0,1
EndSplineSet
EndChar
StartChar: d
Encoding: 100 100 68
Width: 1228
Flags: W
LayerCount: 2
Back
Fore
SplineSet
1108 136 m 2,0,1
 1142 136 1142 136 1156.5 121 c 128,-1,2
 1171 106 1171 106 1171 68 c 256,3,4
 1171 30 1171 30 1156.5 15 c 128,-1,5
 1142 0 1142 0 1108 0 c 2,6,-1
 949 0 l 2,7,8
 915 0 915 0 900.5 15 c 128,-1,9
 886 30 886 30 886 68 c 2,10,-1
 886 148 l 1,11,12
 824 67 824 67 741.5 22.5 c 128,-1,13
 659 -22 659 -22 559 -22 c 0,14,15
 466 -22 466 -22 387 9.5 c 128,-1,16
 308 41 308 41 250.5 100 c 128,-1,17
 193 159 193 159 160 244 c 128,-1,18
 127 329 127 329 127 437 c 256,19,20
 127 545 127 545 160 630 c 128,-1,21
 193 715 193 715 250.5 774 c 128,-1,22
 308 833 308 833 387 864.5 c 128,-1,23
 466 896 466 896 559 896 c 0,24,25
 659 896 659 896 737.5 855.5 c 128,-1,26
 816 815 816 815 876 740 c 1,27,-1
 876 1176 l 1,28,-1
 674 1176 l 2,29,30
 640 1176 640 1176 625.5 1191 c 128,-1,31
 611 1206 611 1206 611 1244 c 256,32,33
 611 1282 611 1282 625.5 1297 c 128,-1,34
 640 1312 640 1312 674 1312 c 2,35,-1
 963 1312 l 2,36,37
 997 1312 997 1312 1011.5 1297 c 128,-1,38
 1026 1282 1026 1282 1026 1244 c 2,39,-1
 1026 136 l 1,40,-1
 1108 136 l 2,0,1
876 437 m 256,41,42
 876 511 876 511 853 569 c 128,-1,43
 830 627 830 627 789 666.5 c 128,-1,44
 748 706 748 706 691.5 727 c 128,-1,45
 635 748 635 748 569 748 c 0,46,47
 501 748 501 748 448 725 c 128,-1,48
 395 702 395 702 359 660.5 c 128,-1,49
 323 619 323 619 304 562 c 128,-1,50
 285 505 285 505 285 437 c 256,51,52
 285 369 285 369 304 312 c 128,-1,53
 323 255 323 255 359 213.5 c 128,-1,54
 395 172 395 172 448 149 c 128,-1,55
 501 126 501 126 569 126 c 0,56,57
 635 126 635 126 691.5 147 c 128,-1,58
 748 168 748 168 789 207.5 c 128,-1,59
 830 247 830 247 853 305 c 128,-1,60
 876 363 876 363 876 437 c 256,41,42
EndSplineSet
EndChar
StartChar: e
Encoding: 101 101 69
Width: 1228
Flags: W
LayerCount: 2
Back
Fore
SplineSet
304 425 m 1,0,1
 312 274 312 274 387.5 198.5 c 128,-1,2
 463 123 463 123 603 123 c 0,3,4
 704 123 704 123 799 146 c 128,-1,5
 894 169 894 169 963 209 c 0,6,7
 995 227 995 227 1016.5 212 c 128,-1,8
 1038 197 1038 197 1051 165 c 0,9,10
 1065 133 1065 133 1057 107.5 c 128,-1,11
 1049 82 1049 82 1016 65 c 0,12,13
 977 46 977 46 929.5 30 c 128,-1,14
 882 14 882 14 828.5 2.5 c 128,-1,15
 775 -9 775 -9 718 -15.5 c 128,-1,16
 661 -22 661 -22 603 -22 c 0,17,18
 493 -22 493 -22 408 11.5 c 128,-1,19
 323 45 323 45 265 107.5 c 128,-1,20
 207 170 207 170 176.5 259.5 c 128,-1,21
 146 349 146 349 146 462 c 0,22,23
 146 571 146 571 181.5 660.5 c 128,-1,24
 217 750 217 750 280 813.5 c 128,-1,25
 343 877 343 877 430.5 911.5 c 128,-1,26
 518 946 518 946 623 946 c 0,27,28
 734 946 734 946 819 911.5 c 128,-1,29
 904 877 904 877 962.5 816 c 128,-1,30
 1021 755 1021 755 1053 671 c 128,-1,31
 1085 587 1085 587 1091 487 c 0,32,33
 1091 453 1091 453 1076.5 439 c 128,-1,34
 1062 425 1062 425 1028 425 c 2,35,-1
 304 425 l 1,0,1
623 801 m 0,36,37
 498 801 498 801 418.5 738.5 c 128,-1,38
 339 676 339 676 314 565 c 1,39,-1
 925 565 l 1,40,41
 904 678 904 678 830 739.5 c 128,-1,42
 756 801 756 801 623 801 c 0,36,37
EndSplineSet
EndChar
StartChar: f
Encoding: 102 102 70
Width: 1228
Flags: W
LayerCount: 2
Back
Fore
SplineSet
448 844 m 1,0,-1
 448 967 l 2,1,2
 448 1049 448 1049 471.5 1114 c 128,-1,3
 495 1179 495 1179 540 1224 c 128,-1,4
 585 1269 585 1269 650.5 1293 c 128,-1,5
 716 1317 716 1317 800 1317 c 0,6,7
 871 1317 871 1317 938.5 1303 c 128,-1,8
 1006 1289 1006 1289 1066 1266 c 0,9,10
 1093 1255 1093 1255 1106.5 1233.5 c 128,-1,11
 1120 1212 1120 1212 1111 1174 c 0,12,13
 1101 1133 1101 1133 1082 1122.5 c 128,-1,14
 1063 1112 1063 1112 1037 1122 c 0,15,16
 978 1145 978 1145 919 1158 c 128,-1,17
 860 1171 860 1171 800 1171 c 0,18,19
 694 1171 694 1171 646 1114 c 128,-1,20
 598 1057 598 1057 598 954 c 2,21,-1
 598 844 l 1,22,-1
 944 844 l 2,23,24
 978 844 978 844 992.5 829 c 128,-1,25
 1007 814 1007 814 1007 776 c 256,26,27
 1007 738 1007 738 992.5 723 c 128,-1,28
 978 708 978 708 944 708 c 2,29,-1
 598 708 l 1,30,-1
 598 136 l 1,31,-1
 944 136 l 2,32,33
 978 136 978 136 992.5 121 c 128,-1,34
 1007 106 1007 106 1007 68 c 256,35,36
 1007 30 1007 30 992.5 15 c 128,-1,37
 978 0 978 0 944 0 c 2,38,-1
 250 0 l 2,39,40
 216 0 216 0 201.5 15 c 128,-1,41
 187 30 187 30 187 68 c 256,42,43
 187 106 187 106 201.5 121 c 128,-1,44
 216 136 216 136 250 136 c 2,45,-1
 448 136 l 1,46,-1
 448 708 l 1,47,-1
 250 708 l 2,48,49
 216 708 216 708 201.5 723 c 128,-1,50
 187 738 187 738 187 776 c 256,51,52
 187 814 187 814 201.5 829 c 128,-1,53
 216 844 216 844 250 844 c 2,54,-1
 448 844 l 1,0,-1
EndSplineSet
EndChar
StartChar: g
Encoding: 103 103 71
Width: 1228
Flags: W
LayerCount: 2
Back
Fore
SplineSet
876 487 m 256,0,1
 876 561 876 561 853 619 c 128,-1,2
 830 677 830 677 789 716.5 c 128,-1,3
 748 756 748 756 691.5 777 c 128,-1,4
 635 798 635 798 569 798 c 0,5,6
 501 798 501 798 448 775 c 128,-1,7
 395 752 395 752 359 710.5 c 128,-1,8
 323 669 323 669 304 612 c 128,-1,9
 285 555 285 555 285 487 c 256,10,11
 285 419 285 419 304 362 c 128,-1,12
 323 305 323 305 359 263.5 c 128,-1,13
 395 222 395 222 448 199 c 128,-1,14
 501 176 501 176 569 176 c 0,15,16
 635 176 635 176 691.5 197 c 128,-1,17
 748 218 748 218 789 257.5 c 128,-1,18
 830 297 830 297 853 355 c 128,-1,19
 876 413 876 413 876 487 c 256,0,1
319 -211 m 0,20,21
 388 -240 388 -240 464 -253.5 c 128,-1,22
 540 -267 540 -267 613 -267 c 0,23,24
 680 -267 680 -267 729.5 -249.5 c 128,-1,25
 779 -232 779 -232 811.5 -199.5 c 128,-1,26
 844 -167 844 -167 860 -122 c 128,-1,27
 876 -77 876 -77 876 -22 c 2,28,-1
 876 184 l 1,29,30
 816 109 816 109 737.5 68.5 c 128,-1,31
 659 28 659 28 559 28 c 0,32,33
 466 28 466 28 387 59.5 c 128,-1,34
 308 91 308 91 250.5 150 c 128,-1,35
 193 209 193 209 160 294 c 128,-1,36
 127 379 127 379 127 487 c 256,37,38
 127 595 127 595 160 680 c 128,-1,39
 193 765 193 765 250.5 824 c 128,-1,40
 308 883 308 883 387 914.5 c 128,-1,41
 466 946 466 946 559 946 c 0,42,43
 659 946 659 946 741.5 901.5 c 128,-1,44
 824 857 824 857 886 776 c 1,45,-1
 886 856 l 2,46,47
 886 894 886 894 900.5 909 c 128,-1,48
 915 924 915 924 949 924 c 2,49,-1
 1108 924 l 2,50,51
 1142 924 1142 924 1156.5 909 c 128,-1,52
 1171 894 1171 894 1171 856 c 256,53,54
 1171 818 1171 818 1156.5 803 c 128,-1,55
 1142 788 1142 788 1108 788 c 2,56,-1
 1026 788 l 1,57,-1
 1026 -35 l 2,58,59
 1026 -125 1026 -125 998.5 -195.5 c 128,-1,60
 971 -266 971 -266 918 -314.5 c 128,-1,61
 865 -363 865 -363 788 -389 c 128,-1,62
 711 -415 711 -415 613 -415 c 0,63,64
 526 -415 526 -415 438 -400 c 128,-1,65
 350 -385 350 -385 271 -355 c 0,66,67
 244 -344 244 -344 235.5 -322 c 128,-1,68
 227 -300 227 -300 240 -262 c 256,69,70
 253 -224 253 -224 273.5 -212 c 128,-1,71
 294 -200 294 -200 319 -211 c 0,20,21
EndSplineSet
EndChar
StartChar: h
Encoding: 104 104 72
Width: 1228
Flags: W
LayerCount: 2
Back
Fore
SplineSet
232 1176 m 1,0,-1
 140 1176 l 2,1,2
 106 1176 106 1176 91.5 1191 c 128,-1,3
 77 1206 77 1206 77 1244 c 256,4,5
 77 1282 77 1282 91.5 1297 c 128,-1,6
 106 1312 106 1312 140 1312 c 2,7,-1
 319 1312 l 2,8,9
 353 1312 353 1312 367.5 1297 c 128,-1,10
 382 1282 382 1282 382 1244 c 2,11,-1
 382 746 l 1,12,13
 447 843 447 843 532 894.5 c 128,-1,14
 617 946 617 946 717 946 c 0,15,16
 786 946 786 946 841 923 c 128,-1,17
 896 900 896 900 934.5 858 c 128,-1,18
 973 816 973 816 993.5 755.5 c 128,-1,19
 1014 695 1014 695 1014 620 c 2,20,-1
 1014 136 l 1,21,-1
 1096 136 l 2,22,23
 1130 136 1130 136 1144.5 121 c 128,-1,24
 1159 106 1159 106 1159 68 c 256,25,26
 1159 30 1159 30 1144.5 15 c 128,-1,27
 1130 0 1130 0 1096 0 c 2,28,-1
 772 0 l 2,29,30
 738 0 738 0 723.5 15 c 128,-1,31
 709 30 709 30 709 68 c 256,32,33
 709 106 709 106 723.5 121 c 128,-1,34
 738 136 738 136 772 136 c 2,35,-1
 864 136 l 1,36,-1
 864 605 l 2,37,38
 864 648 864 648 854 683.5 c 128,-1,39
 844 719 844 719 824 744.5 c 128,-1,40
 804 770 804 770 773.5 784 c 128,-1,41
 743 798 743 798 702 798 c 0,42,43
 638 798 638 798 580 770 c 128,-1,44
 522 742 522 742 478 692 c 128,-1,45
 434 642 434 642 408 573 c 128,-1,46
 382 504 382 504 382 422 c 2,47,-1
 382 136 l 1,48,-1
 474 136 l 2,49,50
 508 136 508 136 522.5 121 c 128,-1,51
 537 106 537 106 537 68 c 256,52,53
 537 30 537 30 522.5 15 c 128,-1,54
 508 0 508 0 474 0 c 2,55,-1
 150 0 l 2,56,57
 116 0 116 0 101.5 15 c 128,-1,58
 87 30 87 30 87 68 c 256,59,60
 87 106 87 106 101.5 121 c 128,-1,61
 116 136 116 136 150 136 c 2,62,-1
 232 136 l 1,63,-1
 232 1176 l 1,0,-1
EndSplineSet
EndChar
StartChar: i
Encoding: 105 105 73
Width: 1228
Flags: W
LayerCount: 2
Back
Fore
SplineSet
563 788 m 1,0,-1
 310 788 l 2,1,2
 276 788 276 788 261.5 803 c 128,-1,3
 247 818 247 818 247 856 c 256,4,5
 247 894 247 894 261.5 909 c 128,-1,6
 276 924 276 924 310 924 c 2,7,-1
 650 924 l 2,8,9
 684 924 684 924 698.5 909 c 128,-1,10
 713 894 713 894 713 856 c 2,11,-1
 713 136 l 1,12,-1
 1034 136 l 2,13,14
 1068 136 1068 136 1082.5 121 c 128,-1,15
 1097 106 1097 106 1097 68 c 256,16,17
 1097 30 1097 30 1082.5 15 c 128,-1,18
 1068 0 1068 0 1034 0 c 2,19,-1
 250 0 l 2,20,21
 216 0 216 0 201.5 15 c 128,-1,22
 187 30 187 30 187 68 c 256,23,24
 187 106 187 106 201.5 121 c 128,-1,25
 216 136 216 136 250 136 c 2,26,-1
 563 136 l 1,27,-1
 563 788 l 1,0,-1
713 1168 m 2,28,29
 713 1133 713 1133 694 1118 c 128,-1,30
 675 1103 675 1103 618 1103 c 256,31,32
 561 1103 561 1103 542 1118 c 128,-1,33
 523 1133 523 1133 523 1168 c 2,34,-1
 523 1298 l 2,35,36
 523 1333 523 1333 542 1348 c 128,-1,37
 561 1363 561 1363 618 1363 c 256,38,39
 675 1363 675 1363 694 1348 c 128,-1,40
 713 1333 713 1333 713 1298 c 2,41,-1
 713 1168 l 2,28,29
EndSplineSet
EndChar
StartChar: j
Encoding: 106 106 74
Width: 1228
Flags: W
LayerCount: 2
Back
Fore
SplineSet
840 924 m 2,0,1
 874 924 874 924 888.5 909 c 128,-1,2
 903 894 903 894 903 856 c 2,3,-1
 903 -62 l 2,4,5
 903 -148 903 -148 884.5 -214 c 128,-1,6
 866 -280 866 -280 826.5 -324.5 c 128,-1,7
 787 -369 787 -369 725 -392 c 128,-1,8
 663 -415 663 -415 576 -415 c 0,9,10
 533 -415 533 -415 486.5 -406.5 c 128,-1,11
 440 -398 440 -398 394 -383 c 128,-1,12
 348 -368 348 -368 304 -347.5 c 128,-1,13
 260 -327 260 -327 223 -303 c 0,14,15
 198 -287 198 -287 191 -264.5 c 128,-1,16
 184 -242 184 -242 203 -206 c 256,17,18
 222 -170 222 -170 245.5 -162.5 c 128,-1,19
 269 -155 269 -155 292 -170 c 0,20,21
 358 -213 358 -213 432 -241 c 128,-1,22
 506 -269 506 -269 576 -269 c 0,23,24
 626 -269 626 -269 660 -255.5 c 128,-1,25
 694 -242 694 -242 714.5 -214.5 c 128,-1,26
 735 -187 735 -187 744 -145.5 c 128,-1,27
 753 -104 753 -104 753 -49 c 2,28,-1
 753 788 l 1,29,-1
 330 788 l 2,30,31
 296 788 296 788 281.5 803 c 128,-1,32
 267 818 267 818 267 856 c 256,33,34
 267 894 267 894 281.5 909 c 128,-1,35
 296 924 296 924 330 924 c 2,36,-1
 840 924 l 2,0,1
903 1168 m 2,37,38
 903 1133 903 1133 884 1118 c 128,-1,39
 865 1103 865 1103 808 1103 c 256,40,41
 751 1103 751 1103 732 1118 c 128,-1,42
 713 1133 713 1133 713 1168 c 2,43,-1
 713 1298 l 2,44,45
 713 1333 713 1333 732 1348 c 128,-1,46
 751 1363 751 1363 808 1363 c 256,47,48
 865 1363 865 1363 884 1348 c 128,-1,49
 903 1333 903 1333 903 1298 c 2,50,-1
 903 1168 l 2,37,38
EndSplineSet
EndChar
StartChar: k
Encoding: 107 107 176
Width: 1228
Flags: W
LayerCount: 2
Back
Fore
SplineSet
348 1312 m 2,0,1
 382 1312 382 1312 396.5 1297 c 128,-1,2
 411 1282 411 1282 411 1244 c 2,3,-1
 411 452 l 1,4,-1
 792 788 l 1,5,-1
 721 788 l 2,6,7
 687 788 687 788 672.5 803 c 128,-1,8
 658 818 658 818 658 856 c 256,9,10
 658 894 658 894 672.5 909 c 128,-1,11
 687 924 687 924 721 924 c 2,12,-1
 1055 924 l 2,13,14
 1089 924 1089 924 1103.5 909 c 128,-1,15
 1118 894 1118 894 1118 856 c 256,16,17
 1118 818 1118 818 1103.5 803 c 128,-1,18
 1089 788 1089 788 1055 788 c 2,19,-1
 996 788 l 1,20,-1
 702 529 l 1,21,-1
 1038 136 l 1,22,-1
 1096 136 l 2,23,24
 1130 136 1130 136 1144.5 121 c 128,-1,25
 1159 106 1159 106 1159 68 c 256,26,27
 1159 30 1159 30 1144.5 15 c 128,-1,28
 1130 0 1130 0 1096 0 c 2,29,-1
 762 0 l 2,30,31
 728 0 728 0 713.5 15 c 128,-1,32
 699 30 699 30 699 68 c 256,33,34
 699 106 699 106 713.5 121 c 128,-1,35
 728 136 728 136 762 136 c 2,36,-1
 844 136 l 1,37,-1
 593 434 l 1,38,-1
 411 274 l 1,39,-1
 411 136 l 1,40,-1
 474 136 l 2,41,42
 508 136 508 136 522.5 121 c 128,-1,43
 537 106 537 106 537 68 c 256,44,45
 537 30 537 30 522.5 15 c 128,-1,46
 508 0 508 0 474 0 c 2,47,-1
 150 0 l 2,48,49
 116 0 116 0 101.5 15 c 128,-1,50
 87 30 87 30 87 68 c 256,51,52
 87 106 87 106 101.5 121 c 128,-1,53
 116 136 116 136 150 136 c 2,54,-1
 261 136 l 1,55,-1
 261 1176 l 1,56,-1
 130 1176 l 2,57,58
 96 1176 96 1176 81.5 1191 c 128,-1,59
 67 1206 67 1206 67 1244 c 256,60,61
 67 1282 67 1282 81.5 1297 c 128,-1,62
 96 1312 96 1312 130 1312 c 2,63,-1
 348 1312 l 2,0,1
EndSplineSet
EndChar
StartChar: l
Encoding: 108 108 75
Width: 1228
Flags: W
LayerCount: 2
Back
Fore
SplineSet
553 1176 m 1,0,-1
 280 1176 l 2,1,2
 246 1176 246 1176 231.5 1191 c 128,-1,3
 217 1206 217 1206 217 1244 c 256,4,5
 217 1282 217 1282 231.5 1297 c 128,-1,6
 246 1312 246 1312 280 1312 c 2,7,-1
 640 1312 l 2,8,9
 674 1312 674 1312 688.5 1297 c 128,-1,10
 703 1282 703 1282 703 1244 c 2,11,-1
 703 136 l 1,12,-1
 1024 136 l 2,13,14
 1058 136 1058 136 1072.5 121 c 128,-1,15
 1087 106 1087 106 1087 68 c 256,16,17
 1087 30 1087 30 1072.5 15 c 128,-1,18
 1058 0 1058 0 1024 0 c 2,19,-1
 240 0 l 2,20,21
 206 0 206 0 191.5 15 c 128,-1,22
 177 30 177 30 177 68 c 256,23,24
 177 106 177 106 191.5 121 c 128,-1,25
 206 136 206 136 240 136 c 2,26,-1
 553 136 l 1,27,-1
 553 1176 l 1,0,-1
EndSplineSet
EndChar
StartChar: m
Encoding: 109 109 76
Width: 1228
Flags: W
LayerCount: 2
Back
Fore
SplineSet
271 757 m 1,0,1
 315 854 315 854 375 900 c 128,-1,2
 435 946 435 946 504 946 c 0,3,4
 537 946 537 946 566.5 935 c 128,-1,5
 596 924 596 924 621 901.5 c 128,-1,6
 646 879 646 879 664.5 845 c 128,-1,7
 683 811 683 811 692 765 c 1,8,9
 737 857 737 857 795 901.5 c 128,-1,10
 853 946 853 946 922 946 c 0,11,12
 965 946 965 946 1002.5 930 c 128,-1,13
 1040 914 1040 914 1068 881 c 128,-1,14
 1096 848 1096 848 1112.5 797.5 c 128,-1,15
 1129 747 1129 747 1129 678 c 2,16,-1
 1129 136 l 1,17,-1
 1191 136 l 2,18,19
 1225 136 1225 136 1239.5 121 c 128,-1,20
 1254 106 1254 106 1254 68 c 256,21,22
 1254 30 1254 30 1239.5 15 c 128,-1,23
 1225 0 1225 0 1191 0 c 2,24,-1
 1042 0 l 2,25,26
 1008 0 1008 0 993.5 15 c 128,-1,27
 979 30 979 30 979 68 c 2,28,-1
 979 660 l 2,29,30
 979 727 979 727 957 762.5 c 128,-1,31
 935 798 935 798 884 798 c 0,32,33
 848 798 848 798 816.5 773 c 128,-1,34
 785 748 785 748 761.5 703 c 128,-1,35
 738 658 738 658 724 595.5 c 128,-1,36
 710 533 710 533 710 457 c 2,37,-1
 710 136 l 1,38,-1
 767 136 l 2,39,40
 801 136 801 136 815.5 121 c 128,-1,41
 830 106 830 106 830 68 c 256,42,43
 830 30 830 30 815.5 15 c 128,-1,44
 801 0 801 0 767 0 c 2,45,-1
 623 0 l 2,46,47
 589 0 589 0 574.5 15 c 128,-1,48
 560 30 560 30 560 68 c 2,49,-1
 560 660 l 2,50,51
 560 727 560 727 538 762.5 c 128,-1,52
 516 798 516 798 465 798 c 0,53,54
 429 798 429 798 397.5 773 c 128,-1,55
 366 748 366 748 342.5 703 c 128,-1,56
 319 658 319 658 305 595.5 c 128,-1,57
 291 533 291 533 291 457 c 2,58,-1
 291 136 l 1,59,-1
 343 136 l 2,60,61
 377 136 377 136 391.5 121 c 128,-1,62
 406 106 406 106 406 68 c 256,63,64
 406 30 406 30 391.5 15 c 128,-1,65
 377 0 377 0 343 0 c 2,66,-1
 59 0 l 2,67,68
 25 0 25 0 10.5 15 c 128,-1,69
 -4 30 -4 30 -4 68 c 256,70,71
 -4 106 -4 106 10.5 121 c 128,-1,72
 25 136 25 136 59 136 c 2,73,-1
 141 136 l 1,74,-1
 141 788 l 1,75,-1
 59 788 l 2,76,77
 25 788 25 788 10.5 803 c 128,-1,78
 -4 818 -4 818 -4 856 c 256,79,80
 -4 894 -4 894 10.5 909 c 128,-1,81
 25 924 25 924 59 924 c 2,82,-1
 208 924 l 2,83,84
 242 924 242 924 256.5 909 c 128,-1,85
 271 894 271 894 271 856 c 2,86,-1
 271 757 l 1,0,1
EndSplineSet
EndChar
StartChar: n
Encoding: 110 110 77
Width: 1228
Flags: W
LayerCount: 2
Back
Fore
SplineSet
242 788 m 1,0,-1
 140 788 l 2,1,2
 106 788 106 788 91.5 803 c 128,-1,3
 77 818 77 818 77 856 c 256,4,5
 77 894 77 894 91.5 909 c 128,-1,6
 106 924 106 924 140 924 c 2,7,-1
 319 924 l 2,8,9
 353 924 353 924 367.5 909 c 128,-1,10
 382 894 382 894 382 856 c 2,11,-1
 382 736 l 1,12,13
 448 839 448 839 536 892.5 c 128,-1,14
 624 946 624 946 727 946 c 0,15,16
 796 946 796 946 851 923 c 128,-1,17
 906 900 906 900 944.5 858 c 128,-1,18
 983 816 983 816 1003.5 755.5 c 128,-1,19
 1024 695 1024 695 1024 620 c 2,20,-1
 1024 136 l 1,21,-1
 1106 136 l 2,22,23
 1140 136 1140 136 1154.5 121 c 128,-1,24
 1169 106 1169 106 1169 68 c 256,25,26
 1169 30 1169 30 1154.5 15 c 128,-1,27
 1140 0 1140 0 1106 0 c 2,28,-1
 782 0 l 2,29,30
 748 0 748 0 733.5 15 c 128,-1,31
 719 30 719 30 719 68 c 256,32,33
 719 106 719 106 733.5 121 c 128,-1,34
 748 136 748 136 782 136 c 2,35,-1
 874 136 l 1,36,-1
 874 605 l 2,37,38
 874 648 874 648 864 683.5 c 128,-1,39
 854 719 854 719 834 744.5 c 128,-1,40
 814 770 814 770 783.5 784 c 128,-1,41
 753 798 753 798 712 798 c 0,42,43
 648 798 648 798 590 770 c 128,-1,44
 532 742 532 742 488 692 c 128,-1,45
 444 642 444 642 418 573 c 128,-1,46
 392 504 392 504 392 422 c 2,47,-1
 392 136 l 1,48,-1
 484 136 l 2,49,50
 518 136 518 136 532.5 121 c 128,-1,51
 547 106 547 106 547 68 c 256,52,53
 547 30 547 30 532.5 15 c 128,-1,54
 518 0 518 0 484 0 c 2,55,-1
 160 0 l 2,56,57
 126 0 126 0 111.5 15 c 128,-1,58
 97 30 97 30 97 68 c 256,59,60
 97 106 97 106 111.5 121 c 128,-1,61
 126 136 126 136 160 136 c 2,62,-1
 242 136 l 1,63,-1
 242 788 l 1,0,-1
EndSplineSet
EndChar
StartChar: o
Encoding: 111 111 78
Width: 1228
Flags: W
LayerCount: 2
Back
Fore
SplineSet
120 462 m 256,0,1
 120 568 120 568 157.5 656.5 c 128,-1,2
 195 745 195 745 261 809.5 c 128,-1,3
 327 874 327 874 417.5 910 c 128,-1,4
 508 946 508 946 614 946 c 256,5,6
 720 946 720 946 810.5 910 c 128,-1,7
 901 874 901 874 967 809.5 c 128,-1,8
 1033 745 1033 745 1070.5 656.5 c 128,-1,9
 1108 568 1108 568 1108 462 c 256,10,11
 1108 356 1108 356 1070.5 267.5 c 128,-1,12
 1033 179 1033 179 967 114.5 c 128,-1,13
 901 50 901 50 810.5 14 c 128,-1,14
 720 -22 720 -22 614 -22 c 256,15,16
 508 -22 508 -22 417.5 14 c 128,-1,17
 327 50 327 50 261 114.5 c 128,-1,18
 195 179 195 179 157.5 267.5 c 128,-1,19
 120 356 120 356 120 462 c 256,0,1
278 462 m 256,20,21
 278 389 278 389 302.5 327.5 c 128,-1,22
 327 266 327 266 371 221 c 128,-1,23
 415 176 415 176 477 151 c 128,-1,24
 539 126 539 126 614 126 c 256,25,26
 689 126 689 126 751 151 c 128,-1,27
 813 176 813 176 857 221 c 128,-1,28
 901 266 901 266 925.5 327.5 c 128,-1,29
 950 389 950 389 950 462 c 256,30,31
 950 535 950 535 925.5 596.5 c 128,-1,32
 901 658 901 658 857 703 c 128,-1,33
 813 748 813 748 751 773 c 128,-1,34
 689 798 689 798 614 798 c 256,35,36
 539 798 539 798 477 773 c 128,-1,37
 415 748 415 748 371 703 c 128,-1,38
 327 658 327 658 302.5 596.5 c 128,-1,39
 278 535 278 535 278 462 c 256,20,21
EndSplineSet
EndChar
StartChar: q
Encoding: 113 113 80
Width: 1228
Flags: W
LayerCount: 2
Back
Fore
SplineSet
876 184 m 1,0,1
 816 109 816 109 737.5 68.5 c 128,-1,2
 659 28 659 28 559 28 c 0,3,4
 466 28 466 28 387 59.5 c 128,-1,5
 308 91 308 91 250.5 150 c 128,-1,6
 193 209 193 209 160 294 c 128,-1,7
 127 379 127 379 127 487 c 256,8,9
 127 595 127 595 160 680 c 128,-1,10
 193 765 193 765 250.5 824 c 128,-1,11
 308 883 308 883 387 914.5 c 128,-1,12
 466 946 466 946 559 946 c 0,13,14
 659 946 659 946 741.5 901.5 c 128,-1,15
 824 857 824 857 886 776 c 1,16,-1
 886 856 l 2,17,18
 886 894 886 894 900.5 909 c 128,-1,19
 915 924 915 924 949 924 c 2,20,-1
 1108 924 l 2,21,22
 1142 924 1142 924 1156.5 909 c 128,-1,23
 1171 894 1171 894 1171 856 c 256,24,25
 1171 818 1171 818 1156.5 803 c 128,-1,26
 1142 788 1142 788 1108 788 c 2,27,-1
 1026 788 l 1,28,-1
 1026 -257 l 1,29,-1
 1138 -257 l 2,30,31
 1172 -257 1172 -257 1186.5 -272 c 128,-1,32
 1201 -287 1201 -287 1201 -325 c 256,33,34
 1201 -363 1201 -363 1186.5 -378 c 128,-1,35
 1172 -393 1172 -393 1138 -393 c 2,36,-1
 654 -393 l 2,37,38
 620 -393 620 -393 605.5 -378 c 128,-1,39
 591 -363 591 -363 591 -325 c 256,40,41
 591 -287 591 -287 605.5 -272 c 128,-1,42
 620 -257 620 -257 654 -257 c 2,43,-1
 876 -257 l 1,44,-1
 876 184 l 1,0,1
876 487 m 256,45,46
 876 561 876 561 853 619 c 128,-1,47
 830 677 830 677 789 716.5 c 128,-1,48
 748 756 748 756 691.5 777 c 128,-1,49
 635 798 635 798 569 798 c 0,50,51
 501 798 501 798 448 775 c 128,-1,52
 395 752 395 752 359 710.5 c 128,-1,53
 323 669 323 669 304 612 c 128,-1,54
 285 555 285 555 285 487 c 256,55,56
 285 419 285 419 304 362 c 128,-1,57
 323 305 323 305 359 263.5 c 128,-1,58
 395 222 395 222 448 199 c 128,-1,59
 501 176 501 176 569 176 c 0,60,61
 635 176 635 176 691.5 197 c 128,-1,62
 748 218 748 218 789 257.5 c 128,-1,63
 830 297 830 297 853 355 c 128,-1,64
 876 413 876 413 876 487 c 256,45,46
EndSplineSet
EndChar
StartChar: r
Encoding: 114 114 81
Width: 1228
Flags: W
LayerCount: 2
Back
Fore
SplineSet
367 788 m 1,0,-1
 240 788 l 2,1,2
 206 788 206 788 191.5 803 c 128,-1,3
 177 818 177 818 177 856 c 256,4,5
 177 894 177 894 191.5 909 c 128,-1,6
 206 924 206 924 240 924 c 2,7,-1
 444 924 l 2,8,9
 478 924 478 924 492.5 909 c 128,-1,10
 507 894 507 894 507 856 c 2,11,-1
 507 654 l 1,12,13
 544 721 544 721 591.5 775 c 128,-1,14
 639 829 639 829 693 867 c 128,-1,15
 747 905 747 905 805 925.5 c 128,-1,16
 863 946 863 946 920 946 c 0,17,18
 998 946 998 946 1066 906 c 0,19,20
 1095 889 1095 889 1103 864 c 128,-1,21
 1111 839 1111 839 1097 802 c 0,22,23
 1083 766 1083 766 1061.5 751 c 128,-1,24
 1040 736 1040 736 1011 753 c 0,25,26
 961 780 961 780 906 780 c 0,27,28
 861 780 861 780 814.5 763.5 c 128,-1,29
 768 747 768 747 724.5 717.5 c 128,-1,30
 681 688 681 688 643.5 646.5 c 128,-1,31
 606 605 606 605 577.5 555 c 128,-1,32
 549 505 549 505 533 448 c 128,-1,33
 517 391 517 391 517 330 c 2,34,-1
 517 136 l 1,35,-1
 854 136 l 2,36,37
 888 136 888 136 902.5 121 c 128,-1,38
 917 106 917 106 917 68 c 256,39,40
 917 30 917 30 902.5 15 c 128,-1,41
 888 0 888 0 854 0 c 2,42,-1
 210 0 l 2,43,44
 176 0 176 0 161.5 15 c 128,-1,45
 147 30 147 30 147 68 c 256,46,47
 147 106 147 106 161.5 121 c 128,-1,48
 176 136 176 136 210 136 c 2,49,-1
 367 136 l 1,50,-1
 367 788 l 1,0,-1
EndSplineSet
EndChar
StartChar: s
Encoding: 115 115 82
Width: 1228
Flags: W
LayerCount: 2
Back
Fore
SplineSet
329 43 m 2,0,1
 329 8 329 8 312.5 -7 c 128,-1,2
 296 -22 296 -22 254 -22 c 256,3,4
 212 -22 212 -22 195.5 -7 c 128,-1,5
 179 8 179 8 179 43 c 2,6,-1
 179 283 l 2,7,8
 179 318 179 318 195.5 333 c 128,-1,9
 212 348 212 348 254 348 c 0,10,11
 276 348 276 348 288 338 c 128,-1,12
 300 328 300 328 308 307 c 0,13,14
 345 210 345 210 429 166.5 c 128,-1,15
 513 123 513 123 652 123 c 0,16,17
 772 123 772 123 832 165.5 c 128,-1,18
 892 208 892 208 892 277 c 0,19,20
 892 313 892 313 869 334.5 c 128,-1,21
 846 356 846 356 807 369 c 0,22,23
 763 384 763 384 705 391 c 128,-1,24
 647 398 647 398 583 405 c 128,-1,25
 519 412 519 412 455.5 423 c 128,-1,26
 392 434 392 434 338 455 c 0,27,28
 304 468 304 468 276 487 c 128,-1,29
 248 506 248 506 227.5 532 c 128,-1,30
 207 558 207 558 195.5 592 c 128,-1,31
 184 626 184 626 184 670 c 0,32,33
 184 737 184 737 211 788.5 c 128,-1,34
 238 840 238 840 285.5 875 c 128,-1,35
 333 910 333 910 397.5 928 c 128,-1,36
 462 946 462 946 538 946 c 0,37,38
 638 946 638 946 717.5 916.5 c 128,-1,39
 797 887 797 887 854 836 c 1,40,-1
 854 881 l 2,41,42
 854 916 854 916 870.5 931 c 128,-1,43
 887 946 887 946 929 946 c 256,44,45
 971 946 971 946 987.5 931 c 128,-1,46
 1004 916 1004 916 1004 881 c 2,47,-1
 1004 691 l 2,48,49
 1004 656 1004 656 987.5 641 c 128,-1,50
 971 626 971 626 929 626 c 0,51,52
 895 626 895 626 881 652 c 0,53,54
 858 695 858 695 825.5 724 c 128,-1,55
 793 753 793 753 750.5 770 c 128,-1,56
 708 787 708 787 657 794 c 128,-1,57
 606 801 606 801 548 801 c 0,58,59
 451 801 451 801 396.5 767 c 128,-1,60
 342 733 342 733 342 670 c 0,61,62
 342 637 342 637 363.5 617 c 128,-1,63
 385 597 385 597 423 585 c 0,64,65
 465 571 465 571 521 564.5 c 128,-1,66
 577 558 577 558 639 551.5 c 128,-1,67
 701 545 701 545 764 535.5 c 128,-1,68
 827 526 827 526 881 506 c 0,69,70
 918 492 918 492 949 472.5 c 128,-1,71
 980 453 980 453 1002.5 425.5 c 128,-1,72
 1025 398 1025 398 1037.5 361.5 c 128,-1,73
 1050 325 1050 325 1050 277 c 0,74,75
 1050 210 1050 210 1024.5 155 c 128,-1,76
 999 100 999 100 949.5 60.5 c 128,-1,77
 900 21 900 21 827.5 -0.5 c 128,-1,78
 755 -22 755 -22 662 -22 c 0,79,80
 553 -22 553 -22 471.5 8 c 128,-1,81
 390 38 390 38 329 99 c 1,82,-1
 329 43 l 2,0,1
EndSplineSet
EndChar
StartChar: t
Encoding: 116 116 175
Width: 1228
Flags: W
LayerCount: 2
Back
Fore
SplineSet
383 844 m 1,0,-1
 383 1144 l 2,1,2
 383 1179 383 1179 399.5 1194 c 128,-1,3
 416 1209 416 1209 458 1209 c 256,4,5
 500 1209 500 1209 516.5 1194 c 128,-1,6
 533 1179 533 1179 533 1144 c 2,7,-1
 533 844 l 1,8,-1
 944 844 l 2,9,10
 978 844 978 844 992.5 829 c 128,-1,11
 1007 814 1007 814 1007 776 c 256,12,13
 1007 738 1007 738 992.5 723 c 128,-1,14
 978 708 978 708 944 708 c 2,15,-1
 533 708 l 1,16,-1
 533 344 l 2,17,18
 533 289 533 289 542 247.5 c 128,-1,19
 551 206 551 206 571.5 178.5 c 128,-1,20
 592 151 592 151 626 137.5 c 128,-1,21
 660 124 660 124 710 124 c 0,22,23
 780 124 780 124 854 152 c 128,-1,24
 928 180 928 180 994 223 c 0,25,26
 1017 238 1017 238 1040.5 230.5 c 128,-1,27
 1064 223 1064 223 1083 187 c 256,28,29
 1102 151 1102 151 1095 128.5 c 128,-1,30
 1088 106 1088 106 1063 90 c 0,31,32
 1025 66 1025 66 981.5 45.5 c 128,-1,33
 938 25 938 25 892 10 c 128,-1,34
 846 -5 846 -5 799.5 -13.5 c 128,-1,35
 753 -22 753 -22 710 -22 c 0,36,37
 623 -22 623 -22 561 1 c 128,-1,38
 499 24 499 24 459.5 68.5 c 128,-1,39
 420 113 420 113 401.5 179 c 128,-1,40
 383 245 383 245 383 331 c 2,41,-1
 383 708 l 1,42,-1
 180 708 l 2,43,44
 146 708 146 708 131.5 723 c 128,-1,45
 117 738 117 738 117 776 c 256,46,47
 117 814 117 814 131.5 829 c 128,-1,48
 146 844 146 844 180 844 c 2,49,-1
 383 844 l 1,0,-1
EndSplineSet
EndChar
StartChar: u
Encoding: 117 117 83
Width: 1228
Flags: W
LayerCount: 2
Back
Fore
SplineSet
1081 136 m 2,0,1
 1115 136 1115 136 1129.5 121 c 128,-1,2
 1144 106 1144 106 1144 68 c 256,3,4
 1144 30 1144 30 1129.5 15 c 128,-1,5
 1115 0 1115 0 1081 0 c 2,6,-1
 922 0 l 2,7,8
 888 0 888 0 873.5 14.5 c 128,-1,9
 859 29 859 29 859 67 c 2,10,-1
 859 188 l 1,11,12
 793 85 793 85 705 31.5 c 128,-1,13
 617 -22 617 -22 514 -22 c 0,14,15
 445 -22 445 -22 390 1 c 128,-1,16
 335 24 335 24 296.5 66 c 128,-1,17
 258 108 258 108 237.5 168.5 c 128,-1,18
 217 229 217 229 217 304 c 2,19,-1
 217 788 l 1,20,-1
 135 788 l 2,21,22
 101 788 101 788 86.5 803 c 128,-1,23
 72 818 72 818 72 856 c 256,24,25
 72 894 72 894 86.5 909 c 128,-1,26
 101 924 101 924 135 924 c 2,27,-1
 304 924 l 2,28,29
 338 924 338 924 352.5 909 c 128,-1,30
 367 894 367 894 367 856 c 2,31,-1
 367 319 l 2,32,33
 367 276 367 276 377 240.5 c 128,-1,34
 387 205 387 205 407 179.5 c 128,-1,35
 427 154 427 154 457.5 140 c 128,-1,36
 488 126 488 126 529 126 c 0,37,38
 593 126 593 126 651 154 c 128,-1,39
 709 182 709 182 753 232 c 128,-1,40
 797 282 797 282 823 351 c 128,-1,41
 849 420 849 420 849 502 c 2,42,-1
 849 788 l 1,43,-1
 707 788 l 2,44,45
 673 788 673 788 658.5 803 c 128,-1,46
 644 818 644 818 644 856 c 256,47,48
 644 894 644 894 658.5 909 c 128,-1,49
 673 924 673 924 707 924 c 2,50,-1
 936 924 l 2,51,52
 970 924 970 924 984.5 909 c 128,-1,53
 999 894 999 894 999 856 c 2,54,-1
 999 136 l 1,55,-1
 1081 136 l 2,0,1
EndSplineSet
EndChar
StartChar: v
Encoding: 118 118 84
Width: 1228
Flags: W
LayerCount: 2
Back
Fore
SplineSet
113 788 m 2,0,1
 79 788 79 788 64.5 803 c 128,-1,2
 50 818 50 818 50 856 c 256,3,4
 50 894 50 894 64.5 909 c 128,-1,5
 79 924 79 924 113 924 c 2,6,-1
 467 924 l 2,7,8
 501 924 501 924 515.5 909 c 128,-1,9
 530 894 530 894 530 856 c 256,10,11
 530 818 530 818 515.5 803 c 128,-1,12
 501 788 501 788 467 788 c 2,13,-1
 339 788 l 1,14,-1
 612 136 l 1,15,-1
 888 788 l 1,16,-1
 801 788 l 2,17,18
 767 788 767 788 752.5 803 c 128,-1,19
 738 818 738 818 738 856 c 256,20,21
 738 894 738 894 752.5 909 c 128,-1,22
 767 924 767 924 801 924 c 2,23,-1
 1115 924 l 2,24,25
 1149 924 1149 924 1163.5 909 c 128,-1,26
 1178 894 1178 894 1178 856 c 256,27,28
 1178 818 1178 818 1163.5 803 c 128,-1,29
 1149 788 1149 788 1115 788 c 2,30,-1
 1052 788 l 1,31,-1
 729 43 l 2,32,33
 715 9 715 9 688 -6.5 c 128,-1,34
 661 -22 661 -22 611 -22 c 256,35,36
 561 -22 561 -22 535 -6 c 128,-1,37
 509 10 509 10 495 43 c 2,38,-1
 175 788 l 1,39,-1
 113 788 l 2,0,1
EndSplineSet
EndChar
StartChar: w
Encoding: 119 119 85
Width: 1228
Flags: W
LayerCount: 2
Back
Fore
SplineSet
53 788 m 2,0,1
 19 788 19 788 4.5 803 c 128,-1,2
 -10 818 -10 818 -10 856 c 256,3,4
 -10 894 -10 894 4.5 909 c 128,-1,5
 19 924 19 924 53 924 c 2,6,-1
 347 924 l 2,7,8
 381 924 381 924 395.5 909 c 128,-1,9
 410 894 410 894 410 856 c 256,10,11
 410 818 410 818 395.5 803 c 128,-1,12
 381 788 381 788 347 788 c 2,13,-1
 224 788 l 1,14,-1
 368 206 l 1,15,-1
 535 670 l 2,16,17
 542 690 542 690 560 703.5 c 128,-1,18
 578 717 578 717 611 717 c 0,19,20
 645 717 645 717 663 707 c 128,-1,21
 681 697 681 697 688 677 c 2,22,-1
 854 206 l 1,23,-1
 1002 788 l 1,24,-1
 901 788 l 2,25,26
 867 788 867 788 852.5 803 c 128,-1,27
 838 818 838 818 838 856 c 256,28,29
 838 894 838 894 852.5 909 c 128,-1,30
 867 924 867 924 901 924 c 2,31,-1
 1175 924 l 2,32,33
 1209 924 1209 924 1223.5 909 c 128,-1,34
 1238 894 1238 894 1238 856 c 256,35,36
 1238 818 1238 818 1223.5 803 c 128,-1,37
 1209 788 1209 788 1175 788 c 2,38,-1
 1151 788 l 1,39,-1
 954 43 l 2,40,41
 944 7 944 7 924.5 -7.5 c 128,-1,42
 905 -22 905 -22 867 -22 c 0,43,44
 824 -22 824 -22 799.5 -6.5 c 128,-1,45
 775 9 775 9 763 43 c 2,46,-1
 610 477 l 1,47,-1
 455 43 l 2,48,49
 443 8 443 8 417.5 -7 c 128,-1,50
 392 -22 392 -22 349 -22 c 0,51,52
 311 -22 311 -22 292 -7 c 128,-1,53
 273 8 273 8 264 43 c 2,54,-1
 71 788 l 1,55,-1
 53 788 l 2,0,1
EndSplineSet
EndChar
StartChar: x
Encoding: 120 120 86
Width: 1228
Flags: W
LayerCount: 2
Back
Fore
SplineSet
183 136 m 1,0,-1
 508 477 l 1,1,-1
 214 788 l 1,2,-1
 143 788 l 2,3,4
 109 788 109 788 94.5 803 c 128,-1,5
 80 818 80 818 80 856 c 256,6,7
 80 894 80 894 94.5 909 c 128,-1,8
 109 924 109 924 143 924 c 2,9,-1
 487 924 l 2,10,11
 521 924 521 924 535.5 909 c 128,-1,12
 550 894 550 894 550 856 c 256,13,14
 550 818 550 818 535.5 803 c 128,-1,15
 521 788 521 788 487 788 c 2,16,-1
 411 788 l 1,17,-1
 623 558 l 1,18,-1
 836 788 l 1,19,-1
 781 788 l 2,20,21
 747 788 747 788 732.5 803 c 128,-1,22
 718 818 718 818 718 856 c 256,23,24
 718 894 718 894 732.5 909 c 128,-1,25
 747 924 747 924 781 924 c 2,26,-1
 1085 924 l 2,27,28
 1119 924 1119 924 1133.5 909 c 128,-1,29
 1148 894 1148 894 1148 856 c 256,30,31
 1148 818 1148 818 1133.5 803 c 128,-1,32
 1119 788 1119 788 1085 788 c 2,33,-1
 1020 788 l 1,34,-1
 723 475 l 1,35,-1
 1044 136 l 1,36,-1
 1095 136 l 2,37,38
 1129 136 1129 136 1143.5 121 c 128,-1,39
 1158 106 1158 106 1158 68 c 256,40,41
 1158 30 1158 30 1143.5 15 c 128,-1,42
 1129 0 1129 0 1095 0 c 2,43,-1
 751 0 l 2,44,45
 717 0 717 0 702.5 15 c 128,-1,46
 688 30 688 30 688 68 c 256,47,48
 688 106 688 106 702.5 121 c 128,-1,49
 717 136 717 136 751 136 c 2,50,-1
 847 136 l 1,51,-1
 607 394 l 1,52,-1
 368 136 l 1,53,-1
 447 136 l 2,54,55
 481 136 481 136 495.5 121 c 128,-1,56
 510 106 510 106 510 68 c 256,57,58
 510 30 510 30 495.5 15 c 128,-1,59
 481 0 481 0 447 0 c 2,60,-1
 133 0 l 2,61,62
 99 0 99 0 84.5 15 c 128,-1,63
 70 30 70 30 70 68 c 256,64,65
 70 106 70 106 84.5 121 c 128,-1,66
 99 136 99 136 133 136 c 2,67,-1
 183 136 l 1,0,-1
EndSplineSet
EndChar
StartChar: y
Encoding: 121 121 173
Width: 1228
Flags: W
LayerCount: 2
Back
Fore
SplineSet
1115 924 m 2,0,1
 1149 924 1149 924 1163.5 909 c 128,-1,2
 1178 894 1178 894 1178 856 c 256,3,4
 1178 818 1178 818 1163.5 803 c 128,-1,5
 1149 788 1149 788 1115 788 c 2,6,-1
 1053 788 l 1,7,-1
 644 -50 l 2,8,9
 596 -148 596 -148 550 -216 c 128,-1,10
 504 -284 504 -284 451 -327 c 128,-1,11
 398 -370 398 -370 334.5 -390.5 c 128,-1,12
 271 -411 271 -411 189 -414 c 0,13,14
 160 -415 160 -415 140.5 -401 c 128,-1,15
 121 -387 121 -387 117 -347 c 0,16,17
 113 -303 113 -303 127.5 -284 c 128,-1,18
 142 -265 142 -265 169 -263 c 0,19,20
 238 -259 238 -259 286.5 -244.5 c 128,-1,21
 335 -230 335 -230 375 -194 c 128,-1,22
 415 -158 415 -158 453.5 -94.5 c 128,-1,23
 492 -31 492 -31 542 70 c 1,24,-1
 176 788 l 1,25,-1
 113 788 l 2,26,27
 79 788 79 788 64.5 803 c 128,-1,28
 50 818 50 818 50 856 c 256,29,30
 50 894 50 894 64.5 909 c 128,-1,31
 79 924 79 924 113 924 c 2,32,-1
 467 924 l 2,33,34
 501 924 501 924 515.5 909 c 128,-1,35
 530 894 530 894 530 856 c 256,36,37
 530 818 530 818 515.5 803 c 128,-1,38
 501 788 501 788 467 788 c 2,39,-1
 339 788 l 1,40,-1
 621 226 l 1,41,-1
 890 788 l 1,42,-1
 801 788 l 2,43,44
 767 788 767 788 752.5 803 c 128,-1,45
 738 818 738 818 738 856 c 256,46,47
 738 894 738 894 752.5 909 c 128,-1,48
 767 924 767 924 801 924 c 2,49,-1
 1115 924 l 2,0,1
EndSplineSet
EndChar
StartChar: z
Encoding: 122 122 87
Width: 1228
Flags: W
LayerCount: 2
Back
Fore
SplineSet
900 136 m 1,0,-1
 900 308 l 2,1,2
 900 343 900 343 916.5 358 c 128,-1,3
 933 373 933 373 975 373 c 256,4,5
 1017 373 1017 373 1033.5 358 c 128,-1,6
 1050 343 1050 343 1050 308 c 2,7,-1
 1050 68 l 2,8,9
 1050 30 1050 30 1035.5 15 c 128,-1,10
 1021 0 1021 0 987 0 c 2,11,-1
 241 0 l 2,12,13
 207 0 207 0 192.5 15 c 128,-1,14
 178 30 178 30 178 68 c 0,15,16
 178 98 178 98 192 113 c 2,17,-1
 803 788 l 1,18,-1
 348 788 l 1,19,-1
 348 639 l 2,20,21
 348 604 348 604 331.5 589 c 128,-1,22
 315 574 315 574 273 574 c 256,23,24
 231 574 231 574 214.5 589 c 128,-1,25
 198 604 198 604 198 639 c 2,26,-1
 198 856 l 2,27,28
 198 894 198 894 212.5 909 c 128,-1,29
 227 924 227 924 261 924 c 2,30,-1
 977 924 l 2,31,32
 1011 924 1011 924 1025.5 909 c 128,-1,33
 1040 894 1040 894 1040 856 c 0,34,35
 1040 827 1040 827 1025 810 c 2,36,-1
 415 136 l 1,37,-1
 900 136 l 1,0,-1
EndSplineSet
EndChar
StartChar: braceleft
Encoding: 123 123 88
Width: 1228
Flags: W
LayerCount: 2
Back
Fore
SplineSet
488 482 m 1,0,1
 561 438 561 438 598 366.5 c 128,-1,2
 635 295 635 295 635 203 c 2,3,-1
 635 -8 l 2,4,5
 635 -75 635 -75 647 -122.5 c 128,-1,6
 659 -170 659 -170 684.5 -200 c 128,-1,7
 710 -230 710 -230 750.5 -243.5 c 128,-1,8
 791 -257 791 -257 847 -257 c 0,9,10
 881 -257 881 -257 895.5 -272 c 128,-1,11
 910 -287 910 -287 910 -325 c 256,12,13
 910 -363 910 -363 895.5 -378 c 128,-1,14
 881 -393 881 -393 847 -393 c 0,15,16
 672 -393 672 -393 578.5 -302 c 128,-1,17
 485 -211 485 -211 485 -20 c 2,18,-1
 485 193 l 2,19,20
 485 302 485 302 433 357.5 c 128,-1,21
 381 413 381 413 270 413 c 0,22,23
 236 413 236 413 221.5 428 c 128,-1,24
 207 443 207 443 207 481 c 256,25,26
 207 519 207 519 221.5 534 c 128,-1,27
 236 549 236 549 270 549 c 0,28,29
 381 549 381 549 433 605 c 128,-1,30
 485 661 485 661 485 770 c 2,31,-1
 485 939 l 2,32,33
 485 1129 485 1129 578.5 1220.5 c 128,-1,34
 672 1312 672 1312 847 1312 c 0,35,36
 881 1312 881 1312 895.5 1297 c 128,-1,37
 910 1282 910 1282 910 1244 c 256,38,39
 910 1206 910 1206 895.5 1191 c 128,-1,40
 881 1176 881 1176 847 1176 c 0,41,42
 791 1176 791 1176 750.5 1162.5 c 128,-1,43
 710 1149 710 1149 684.5 1119 c 128,-1,44
 659 1089 659 1089 647 1041.5 c 128,-1,45
 635 994 635 994 635 927 c 2,46,-1
 635 760 l 2,47,48
 635 668 635 668 598 597 c 128,-1,49
 561 526 561 526 488 482 c 1,0,1
EndSplineSet
EndChar
StartChar: bar
Encoding: 124 124 89
Width: 1228
Flags: W
LayerCount: 2
Back
Fore
SplineSet
539 1269 m 2,0,1
 539 1304 539 1304 555.5 1319 c 128,-1,2
 572 1334 572 1334 614 1334 c 256,3,4
 656 1334 656 1334 672.5 1319 c 128,-1,5
 689 1304 689 1304 689 1269 c 2,6,-1
 689 -350 l 2,7,8
 689 -385 689 -385 672.5 -400 c 128,-1,9
 656 -415 656 -415 614 -415 c 256,10,11
 572 -415 572 -415 555.5 -400 c 128,-1,12
 539 -385 539 -385 539 -350 c 2,13,-1
 539 1269 l 2,0,1
EndSplineSet
EndChar
StartChar: braceright
Encoding: 125 125 90
Width: 1228
Flags: W
LayerCount: 2
Back
Fore
SplineSet
740 482 m 1,0,1
 667 526 667 526 630 597 c 128,-1,2
 593 668 593 668 593 760 c 2,3,-1
 593 927 l 2,4,5
 593 1061 593 1061 543 1118.5 c 128,-1,6
 493 1176 493 1176 381 1176 c 0,7,8
 347 1176 347 1176 332.5 1191 c 128,-1,9
 318 1206 318 1206 318 1244 c 256,10,11
 318 1282 318 1282 332.5 1297 c 128,-1,12
 347 1312 347 1312 381 1312 c 0,13,14
 556 1312 556 1312 649.5 1220.5 c 128,-1,15
 743 1129 743 1129 743 939 c 2,16,-1
 743 770 l 2,17,18
 743 661 743 661 795 605 c 128,-1,19
 847 549 847 549 958 549 c 0,20,21
 992 549 992 549 1006.5 534 c 128,-1,22
 1021 519 1021 519 1021 481 c 256,23,24
 1021 443 1021 443 1006.5 428 c 128,-1,25
 992 413 992 413 958 413 c 0,26,27
 847 413 847 413 795 357.5 c 128,-1,28
 743 302 743 302 743 193 c 2,29,-1
 743 -20 l 2,30,31
 743 -211 743 -211 649.5 -302 c 128,-1,32
 556 -393 556 -393 381 -393 c 0,33,34
 347 -393 347 -393 332.5 -378 c 128,-1,35
 318 -363 318 -363 318 -325 c 256,36,37
 318 -287 318 -287 332.5 -272 c 128,-1,38
 347 -257 347 -257 381 -257 c 0,39,40
 493 -257 493 -257 543 -199.5 c 128,-1,41
 593 -142 593 -142 593 -8 c 2,42,-1
 593 203 l 2,43,44
 593 295 593 295 630 366.5 c 128,-1,45
 667 438 667 438 740 482 c 1,0,1
EndSplineSet
EndChar
StartChar: asciitilde
Encoding: 126 126 91
Width: 1228
Flags: W
LayerCount: 2
Back
Fore
SplineSet
238 490 m 0,0,1
 221 477 221 477 201.5 487 c 128,-1,2
 182 497 182 497 168 521 c 0,3,4
 154 544 154 544 153.5 565.5 c 128,-1,5
 153 587 153 587 170 601 c 0,6,7
 234 657 234 657 294 678.5 c 128,-1,8
 354 700 354 700 412 700 c 0,9,10
 466 700 466 700 517.5 686.5 c 128,-1,11
 569 673 569 673 619.5 657 c 128,-1,12
 670 641 670 641 720 627.5 c 128,-1,13
 770 614 770 614 820 614 c 0,14,15
 862 614 862 614 904 627 c 128,-1,16
 946 640 946 640 990 672 c 0,17,18
 1007 685 1007 685 1026.5 675 c 128,-1,19
 1046 665 1046 665 1060 641 c 0,20,21
 1074 618 1074 618 1074.5 596.5 c 128,-1,22
 1075 575 1075 575 1058 561 c 0,23,24
 993 505 993 505 933 483.5 c 128,-1,25
 873 462 873 462 816 462 c 0,26,27
 762 462 762 462 710.5 475.5 c 128,-1,28
 659 489 659 489 608.5 505 c 128,-1,29
 558 521 558 521 508 534.5 c 128,-1,30
 458 548 458 548 408 548 c 0,31,32
 366 548 366 548 324 535 c 128,-1,33
 282 522 282 522 238 490 c 0,0,1
EndSplineSet
EndChar
StartChar: exclamdown
Encoding: 161 161 121
Width: 1228
Flags: W
LayerCount: 2
Back
Fore
SplineSet
549 -22 m 2,0,1
 504 -22 504 -22 508 28 c 2,2,-1
 557 675 l 2,3,4
 560 723 560 723 614 723 c 0,5,6
 640 723 640 723 655 710.5 c 128,-1,7
 670 698 670 698 672 675 c 2,8,-1
 720 28 l 2,9,10
 724 -22 724 -22 679 -22 c 2,11,-1
 549 -22 l 2,0,1
768 1055 m 256,12,13
 768 1023 768 1023 756 995 c 128,-1,14
 744 967 744 967 723 946 c 128,-1,15
 702 925 702 925 674 913 c 128,-1,16
 646 901 646 901 614 901 c 256,17,18
 582 901 582 901 554 913 c 128,-1,19
 526 925 526 925 505 946 c 128,-1,20
 484 967 484 967 472 995 c 128,-1,21
 460 1023 460 1023 460 1055 c 256,22,23
 460 1087 460 1087 472 1115 c 128,-1,24
 484 1143 484 1143 505 1164 c 128,-1,25
 526 1185 526 1185 554 1197 c 128,-1,26
 582 1209 582 1209 614 1209 c 256,27,28
 646 1209 646 1209 674 1197 c 128,-1,29
 702 1185 702 1185 723 1164 c 128,-1,30
 744 1143 744 1143 756 1115 c 128,-1,31
 768 1087 768 1087 768 1055 c 256,12,13
EndSplineSet
EndChar
StartChar: cent
Encoding: 162 162 96
Width: 1228
Flags: W
LayerCount: 2
Back
Fore
SplineSet
899 731 m 0,0,1
 899 811 899 811 844.5 865.5 c 128,-1,2
 790 920 790 920 684 934 c 1,3,-1
 684 271 l 1,4,5
 756 280 756 280 822 306.5 c 128,-1,6
 888 333 888 333 945 377 c 0,7,8
 971 397 971 397 994 392 c 128,-1,9
 1017 387 1017 387 1038 352 c 0,10,11
 1055 325 1055 325 1052.5 296 c 128,-1,12
 1050 267 1050 267 1021 246 c 0,13,14
 953 195 953 195 866 163 c 128,-1,15
 779 131 779 131 684 121 c 1,16,-1
 684 -60 l 2,17,18
 684 -95 684 -95 667.5 -110 c 128,-1,19
 651 -125 651 -125 614 -125 c 256,20,21
 577 -125 577 -125 560.5 -110 c 128,-1,22
 544 -95 544 -95 544 -60 c 2,23,-1
 544 121 l 1,24,25
 448 132 448 132 371 172.5 c 128,-1,26
 294 213 294 213 240 276.5 c 128,-1,27
 186 340 186 340 156.5 423 c 128,-1,28
 127 506 127 506 127 602 c 256,29,30
 127 698 127 698 157 780.5 c 128,-1,31
 187 863 187 863 241.5 926.5 c 128,-1,32
 296 990 296 990 373 1030.5 c 128,-1,33
 450 1071 450 1071 544 1082 c 1,34,-1
 544 1247 l 2,35,36
 544 1282 544 1282 560.5 1297 c 128,-1,37
 577 1312 577 1312 614 1312 c 256,38,39
 651 1312 651 1312 667.5 1297 c 128,-1,40
 684 1282 684 1282 684 1247 c 2,41,-1
 684 1079 l 1,42,43
 816 1056 816 1056 899 961 c 1,44,-1
 899 1021 l 2,45,46
 899 1056 899 1056 915.5 1071 c 128,-1,47
 932 1086 932 1086 974 1086 c 256,48,49
 1016 1086 1016 1086 1032.5 1071 c 128,-1,50
 1049 1056 1049 1056 1049 1021 c 2,51,-1
 1049 731 l 2,52,53
 1049 696 1049 696 1032.5 681 c 128,-1,54
 1016 666 1016 666 974 666 c 256,55,56
 932 666 932 666 915.5 681 c 128,-1,57
 899 696 899 696 899 731 c 0,0,1
285 602 m 0,58,59
 285 537 285 537 303 481 c 128,-1,60
 321 425 321 425 355 382 c 128,-1,61
 389 339 389 339 437 310 c 128,-1,62
 485 281 485 281 544 271 c 1,63,-1
 544 930 l 1,64,65
 486 918 486 918 438 889 c 128,-1,66
 390 860 390 860 356 817.5 c 128,-1,67
 322 775 322 775 303.5 720 c 128,-1,68
 285 665 285 665 285 602 c 0,58,59
EndSplineSet
EndChar
StartChar: sterling
Encoding: 163 163 97
Width: 1228
Flags: W
LayerCount: 2
Back
Fore
SplineSet
426 132 m 1,0,1
 466 146 466 146 500.5 151.5 c 128,-1,2
 535 157 535 157 564 157 c 0,3,4
 598 157 598 157 627.5 151.5 c 128,-1,5
 657 146 657 146 684 140 c 128,-1,6
 711 134 711 134 736.5 128.5 c 128,-1,7
 762 123 762 123 789 123 c 0,8,9
 822 123 822 123 858.5 135 c 128,-1,10
 895 147 895 147 940 179 c 0,11,12
 955 190 955 190 976.5 181.5 c 128,-1,13
 998 173 998 173 1015 146 c 0,14,15
 1034 119 1034 119 1030.5 93.5 c 128,-1,16
 1027 68 1027 68 1010 56 c 0,17,18
 948 10 948 10 898 -7 c 128,-1,19
 848 -24 848 -24 803 -24 c 0,20,21
 770 -24 770 -24 738.5 -18 c 128,-1,22
 707 -12 707 -12 674 -4.5 c 128,-1,23
 641 3 641 3 605 9 c 128,-1,24
 569 15 569 15 528 15 c 0,25,26
 482 15 482 15 427.5 4.5 c 128,-1,27
 373 -6 373 -6 307 -34 c 0,28,29
 287 -42 287 -42 267 -32.5 c 128,-1,30
 247 -23 247 -23 229 0 c 0,31,32
 209 26 209 26 204 51 c 128,-1,33
 199 76 199 76 215 92 c 0,34,35
 279 150 279 150 320.5 199.5 c 128,-1,36
 362 249 362 249 384.5 295 c 128,-1,37
 407 341 407 341 413.5 387 c 128,-1,38
 420 433 420 433 414 484 c 1,39,-1
 273 484 l 2,40,41
 239 484 239 484 224.5 499 c 128,-1,42
 210 514 210 514 210 552 c 256,43,44
 210 590 210 590 224.5 605 c 128,-1,45
 239 620 239 620 273 620 c 2,46,-1
 368 620 l 1,47,48
 353 650 353 650 337 680.5 c 128,-1,49
 321 711 321 711 308 743.5 c 128,-1,50
 295 776 295 776 286.5 810.5 c 128,-1,51
 278 845 278 845 278 884 c 0,52,53
 278 953 278 953 302.5 1012.5 c 128,-1,54
 327 1072 327 1072 371.5 1115.5 c 128,-1,55
 416 1159 416 1159 478.5 1184 c 128,-1,56
 541 1209 541 1209 618 1209 c 0,57,58
 712 1209 712 1209 793.5 1181 c 128,-1,59
 875 1153 875 1153 941 1105 c 0,60,61
 962 1090 962 1090 962 1051 c 2,62,-1
 962 924 l 2,63,64
 962 889 962 889 945.5 874 c 128,-1,65
 929 859 929 859 887 859 c 256,66,67
 845 859 845 859 828.5 874 c 128,-1,68
 812 889 812 889 812 924 c 2,69,-1
 812 1014 l 1,70,71
 776 1036 776 1036 726.5 1048.5 c 128,-1,72
 677 1061 677 1061 617 1061 c 0,73,74
 574 1061 574 1061 540 1047 c 128,-1,75
 506 1033 506 1033 482.5 1009 c 128,-1,76
 459 985 459 985 446.5 953 c 128,-1,77
 434 921 434 921 434 884 c 0,78,79
 434 849 434 849 444 817.5 c 128,-1,80
 454 786 454 786 469 754.5 c 128,-1,81
 484 723 484 723 502 690 c 128,-1,82
 520 657 520 657 535 620 c 1,83,-1
 845 620 l 2,84,85
 879 620 879 620 893.5 605 c 128,-1,86
 908 590 908 590 908 552 c 256,87,88
 908 514 908 514 893.5 499 c 128,-1,89
 879 484 879 484 845 484 c 2,90,-1
 567 484 l 1,91,92
 582 287 582 287 426 132 c 1,0,1
EndSplineSet
EndChar
StartChar: yen
Encoding: 165 165 113
Width: 1228
Flags: W
LayerCount: 2
Back
Fore
SplineSet
528 510 m 1,0,-1
 420 684 l 1,1,-1
 213 684 l 2,2,3
 179 684 179 684 164.5 699 c 128,-1,4
 150 714 150 714 150 752 c 256,5,6
 150 790 150 790 164.5 805 c 128,-1,7
 179 820 179 820 213 820 c 2,8,-1
 336 820 l 1,9,-1
 193 1051 l 1,10,-1
 123 1051 l 2,11,12
 89 1051 89 1051 74.5 1066 c 128,-1,13
 60 1081 60 1081 60 1119 c 256,14,15
 60 1157 60 1157 74.5 1172 c 128,-1,16
 89 1187 89 1187 123 1187 c 2,17,-1
 457 1187 l 2,18,19
 491 1187 491 1187 505.5 1172 c 128,-1,20
 520 1157 520 1157 520 1119 c 256,21,22
 520 1081 520 1081 505.5 1066 c 128,-1,23
 491 1051 491 1051 457 1051 c 2,24,-1
 364 1051 l 1,25,-1
 614 642 l 1,26,-1
 866 1051 l 1,27,-1
 801 1051 l 2,28,29
 767 1051 767 1051 752.5 1066 c 128,-1,30
 738 1081 738 1081 738 1119 c 256,31,32
 738 1157 738 1157 752.5 1172 c 128,-1,33
 767 1187 767 1187 801 1187 c 2,34,-1
 1105 1187 l 2,35,36
 1139 1187 1139 1187 1153.5 1172 c 128,-1,37
 1168 1157 1168 1157 1168 1119 c 256,38,39
 1168 1081 1168 1081 1153.5 1066 c 128,-1,40
 1139 1051 1139 1051 1105 1051 c 2,41,-1
 1037 1051 l 1,42,-1
 893 820 l 1,43,-1
 1015 820 l 2,44,45
 1049 820 1049 820 1063.5 805 c 128,-1,46
 1078 790 1078 790 1078 752 c 256,47,48
 1078 714 1078 714 1063.5 699 c 128,-1,49
 1049 684 1049 684 1015 684 c 2,50,-1
 808 684 l 1,51,-1
 700 510 l 1,52,-1
 995 510 l 2,53,54
 1029 510 1029 510 1043.5 495 c 128,-1,55
 1058 480 1058 480 1058 442 c 256,56,57
 1058 404 1058 404 1043.5 389 c 128,-1,58
 1029 374 1029 374 995 374 c 2,59,-1
 689 374 l 1,60,-1
 689 136 l 1,61,-1
 915 136 l 2,62,63
 949 136 949 136 963.5 121 c 128,-1,64
 978 106 978 106 978 68 c 256,65,66
 978 30 978 30 963.5 15 c 128,-1,67
 949 0 949 0 915 0 c 2,68,-1
 313 0 l 2,69,70
 279 0 279 0 264.5 15 c 128,-1,71
 250 30 250 30 250 68 c 256,72,73
 250 106 250 106 264.5 121 c 128,-1,74
 279 136 279 136 313 136 c 2,75,-1
 539 136 l 1,76,-1
 539 374 l 1,77,-1
 233 374 l 2,78,79
 199 374 199 374 184.5 389 c 128,-1,80
 170 404 170 404 170 442 c 256,81,82
 170 480 170 480 184.5 495 c 128,-1,83
 199 510 199 510 233 510 c 2,84,-1
 528 510 l 1,0,-1
EndSplineSet
EndChar
StartChar: brokenbar
Encoding: 166 166 156
Width: 1228
Flags: W
LayerCount: 2
Back
Fore
SplineSet
539 269 m 2,0,1
 539 304 539 304 555.5 319 c 128,-1,2
 572 334 572 334 614 334 c 256,3,4
 656 334 656 334 672.5 319 c 128,-1,5
 689 304 689 304 689 269 c 2,6,-1
 689 -350 l 2,7,8
 689 -385 689 -385 672.5 -400 c 128,-1,9
 656 -415 656 -415 614 -415 c 256,10,11
 572 -415 572 -415 555.5 -400 c 128,-1,12
 539 -385 539 -385 539 -350 c 2,13,-1
 539 269 l 2,0,1
539 1269 m 2,14,15
 539 1304 539 1304 555.5 1319 c 128,-1,16
 572 1334 572 1334 614 1334 c 256,17,18
 656 1334 656 1334 672.5 1319 c 128,-1,19
 689 1304 689 1304 689 1269 c 2,20,-1
 689 650 l 2,21,22
 689 615 689 615 672.5 600 c 128,-1,23
 656 585 656 585 614 585 c 256,24,25
 572 585 572 585 555.5 600 c 128,-1,26
 539 615 539 615 539 650 c 2,27,-1
 539 1269 l 2,14,15
EndSplineSet
EndChar
StartChar: section
Encoding: 167 167 98
Width: 1228
Flags: W
LayerCount: 2
Back
Fore
SplineSet
629 -94 m 2,0,1
 701 -94 701 -94 735.5 -66.5 c 128,-1,2
 770 -39 770 -39 770 14 c 0,3,4
 770 68 770 68 736.5 110.5 c 128,-1,5
 703 153 703 153 640 191 c 2,6,-1
 346 373 l 2,7,8
 268 421 268 421 223.5 481.5 c 128,-1,9
 179 542 179 542 179 629 c 0,10,11
 179 696 179 696 214.5 745.5 c 128,-1,12
 250 795 250 795 317 844 c 1,13,14
 300 892 300 892 300 947 c 0,15,16
 300 999 300 999 317.5 1043.5 c 128,-1,17
 335 1088 335 1088 370.5 1119.5 c 128,-1,18
 406 1151 406 1151 458 1169 c 128,-1,19
 510 1187 510 1187 579 1187 c 2,20,-1
 925 1187 l 2,21,22
 959 1187 959 1187 973.5 1172 c 128,-1,23
 988 1157 988 1157 988 1119 c 2,24,-1
 988 922 l 2,25,26
 988 887 988 887 971.5 872 c 128,-1,27
 955 857 955 857 913 857 c 256,28,29
 871 857 871 857 854.5 872 c 128,-1,30
 838 887 838 887 838 922 c 2,31,-1
 838 1051 l 1,32,-1
 599 1051 l 2,33,34
 527 1051 527 1051 492.5 1023.5 c 128,-1,35
 458 996 458 996 458 943 c 0,36,37
 458 889 458 889 491.5 846.5 c 128,-1,38
 525 804 525 804 588 766 c 2,39,-1
 882 584 l 2,40,41
 960 536 960 536 1004.5 475.5 c 128,-1,42
 1049 415 1049 415 1049 328 c 0,43,44
 1049 294 1049 294 1040 265.5 c 128,-1,45
 1031 237 1031 237 1013 211 c 128,-1,46
 995 185 995 185 969.5 161 c 128,-1,47
 944 137 944 137 911 113 c 1,48,49
 928 64 928 64 928 10 c 0,50,51
 928 -43 928 -43 910.5 -87 c 128,-1,52
 893 -131 893 -131 857.5 -162.5 c 128,-1,53
 822 -194 822 -194 770 -212 c 128,-1,54
 718 -230 718 -230 649 -230 c 2,55,-1
 303 -230 l 2,56,57
 269 -230 269 -230 254.5 -215 c 128,-1,58
 240 -200 240 -200 240 -162 c 2,59,-1
 240 55 l 2,60,61
 240 90 240 90 256.5 105 c 128,-1,62
 273 120 273 120 315 120 c 256,63,64
 357 120 357 120 373.5 105 c 128,-1,65
 390 90 390 90 390 55 c 2,66,-1
 390 -94 l 1,67,-1
 629 -94 l 2,0,1
833 233 m 1,68,69
 862 256 862 256 876.5 279.5 c 128,-1,70
 891 303 891 303 891 332 c 0,71,72
 891 374 891 374 865 403 c 128,-1,73
 839 432 839 432 791 462 c 2,74,-1
 497 644 l 2,75,76
 468 662 468 662 442 681.5 c 128,-1,77
 416 701 416 701 394 723 c 1,78,79
 366 701 366 701 351.5 677.5 c 128,-1,80
 337 654 337 654 337 625 c 0,81,82
 337 583 337 583 363 554 c 128,-1,83
 389 525 389 525 437 495 c 2,84,-1
 731 313 l 2,85,86
 788 278 788 278 833 233 c 1,68,69
EndSplineSet
EndChar
StartChar: dieresis
Encoding: 168 168 106
Width: 1228
Flags: W
LayerCount: 2
Back
Fore
SplineSet
269 1195 m 256,0,1
 269 1221 269 1221 279 1243.5 c 128,-1,2
 289 1266 289 1266 306 1283 c 128,-1,3
 323 1300 323 1300 345.5 1310 c 128,-1,4
 368 1320 368 1320 394 1320 c 256,5,6
 420 1320 420 1320 442.5 1310 c 128,-1,7
 465 1300 465 1300 482 1283 c 128,-1,8
 499 1266 499 1266 509 1243.5 c 128,-1,9
 519 1221 519 1221 519 1195 c 256,10,11
 519 1169 519 1169 509 1146.5 c 128,-1,12
 499 1124 499 1124 482 1107 c 128,-1,13
 465 1090 465 1090 442.5 1080 c 128,-1,14
 420 1070 420 1070 394 1070 c 256,15,16
 368 1070 368 1070 345.5 1080 c 128,-1,17
 323 1090 323 1090 306 1107 c 128,-1,18
 289 1124 289 1124 279 1146.5 c 128,-1,19
 269 1169 269 1169 269 1195 c 256,0,1
709 1195 m 256,20,21
 709 1221 709 1221 719 1243.5 c 128,-1,22
 729 1266 729 1266 746 1283 c 128,-1,23
 763 1300 763 1300 785.5 1310 c 128,-1,24
 808 1320 808 1320 834 1320 c 256,25,26
 860 1320 860 1320 882.5 1310 c 128,-1,27
 905 1300 905 1300 922 1283 c 128,-1,28
 939 1266 939 1266 949 1243.5 c 128,-1,29
 959 1221 959 1221 959 1195 c 256,30,31
 959 1169 959 1169 949 1146.5 c 128,-1,32
 939 1124 939 1124 922 1107 c 128,-1,33
 905 1090 905 1090 882.5 1080 c 128,-1,34
 860 1070 860 1070 834 1070 c 256,35,36
 808 1070 808 1070 785.5 1080 c 128,-1,37
 763 1090 763 1090 746 1107 c 128,-1,38
 729 1124 729 1124 719 1146.5 c 128,-1,39
 709 1169 709 1169 709 1195 c 256,20,21
EndSplineSet
EndChar
StartChar: copyright
Encoding: 169 169 103
Width: 1228
Flags: W
LayerCount: 2
Back
Fore
SplineSet
629 937 m 0,0,1
 674 937 674 937 720.5 927 c 128,-1,2
 767 917 767 917 809 897 c 0,3,4
 838 883 838 883 846.5 863 c 128,-1,5
 855 843 855 843 843 811 c 256,6,7
 831 779 831 779 812.5 773.5 c 128,-1,8
 794 768 794 768 769 779 c 0,9,10
 733 796 733 796 700 803.5 c 128,-1,11
 667 811 667 811 629 811 c 256,12,13
 591 811 591 811 558 797.5 c 128,-1,14
 525 784 525 784 500.5 756.5 c 128,-1,15
 476 729 476 729 462 688 c 128,-1,16
 448 647 448 647 448 593 c 256,17,18
 448 539 448 539 462 498 c 128,-1,19
 476 457 476 457 500.5 429.5 c 128,-1,20
 525 402 525 402 558 388.5 c 128,-1,21
 591 375 591 375 629 375 c 256,22,23
 667 375 667 375 700 382.5 c 128,-1,24
 733 390 733 390 769 407 c 0,25,26
 794 418 794 418 812.5 412.5 c 128,-1,27
 831 407 831 407 843 375 c 256,28,29
 855 343 855 343 846.5 323 c 128,-1,30
 838 303 838 303 809 289 c 0,31,32
 767 269 767 269 720.5 259 c 128,-1,33
 674 249 674 249 629 249 c 0,34,35
 561 249 561 249 503.5 272.5 c 128,-1,36
 446 296 446 296 404 340 c 128,-1,37
 362 384 362 384 338.5 448 c 128,-1,38
 315 512 315 512 315 593 c 256,39,40
 315 674 315 674 338.5 738 c 128,-1,41
 362 802 362 802 404 846 c 128,-1,42
 446 890 446 890 503.5 913.5 c 128,-1,43
 561 937 561 937 629 937 c 0,0,1
36 594 m 256,44,45
 36 723 36 723 78.5 835 c 128,-1,46
 121 947 121 947 197.5 1030 c 128,-1,47
 274 1113 274 1113 380 1161 c 128,-1,48
 486 1209 486 1209 614 1209 c 0,49,50
 741 1209 741 1209 847.5 1161 c 128,-1,51
 954 1113 954 1113 1030.5 1030 c 128,-1,52
 1107 947 1107 947 1149.5 835 c 128,-1,53
 1192 723 1192 723 1192 594 c 256,54,55
 1192 465 1192 465 1149.5 353 c 128,-1,56
 1107 241 1107 241 1030.5 157.5 c 128,-1,57
 954 74 954 74 847.5 26 c 128,-1,58
 741 -22 741 -22 614 -22 c 0,59,60
 486 -22 486 -22 380 26 c 128,-1,61
 274 74 274 74 197.5 157.5 c 128,-1,62
 121 241 121 241 78.5 353 c 128,-1,63
 36 465 36 465 36 594 c 256,44,45
158 594 m 256,64,65
 158 487 158 487 191 396 c 128,-1,66
 224 305 224 305 284 239 c 128,-1,67
 344 173 344 173 428 135.5 c 128,-1,68
 512 98 512 98 614 98 c 256,69,70
 716 98 716 98 800 135.5 c 128,-1,71
 884 173 884 173 944 239 c 128,-1,72
 1004 305 1004 305 1037 396 c 128,-1,73
 1070 487 1070 487 1070 594 c 256,74,75
 1070 701 1070 701 1037 792 c 128,-1,76
 1004 883 1004 883 944 949 c 128,-1,77
 884 1015 884 1015 800 1052 c 128,-1,78
 716 1089 716 1089 614 1089 c 256,79,80
 512 1089 512 1089 428 1052 c 128,-1,81
 344 1015 344 1015 284 949 c 128,-1,82
 224 883 224 883 191 792 c 128,-1,83
 158 701 158 701 158 594 c 256,64,65
EndSplineSet
EndChar
StartChar: ordfeminine
Encoding: 170 170 116
Width: 1228
Flags: W
LayerCount: 2
Back
Fore
SplineSet
984 602 m 2,0,1
 1010 602 1010 602 1021.5 587.5 c 128,-1,2
 1033 573 1033 573 1033 541 c 256,3,4
 1033 509 1033 509 1021.5 496 c 128,-1,5
 1010 483 1010 483 984 483 c 2,6,-1
 935 483 l 2,7,8
 887 483 887 483 847 505 c 128,-1,9
 807 527 807 527 794 574 c 1,10,11
 734 523 734 523 664.5 494 c 128,-1,12
 595 465 595 465 512 465 c 0,13,14
 454 465 454 465 404.5 479 c 128,-1,15
 355 493 355 493 319 521 c 128,-1,16
 283 549 283 549 262.5 590.5 c 128,-1,17
 242 632 242 632 242 687 c 0,18,19
 242 751 242 751 266 797 c 128,-1,20
 290 843 290 843 332 871.5 c 128,-1,21
 374 900 374 900 429.5 913.5 c 128,-1,22
 485 927 485 927 548 927 c 256,23,24
 611 927 611 927 669 920.5 c 128,-1,25
 727 914 727 914 782 899 c 1,26,-1
 782 950 l 2,27,28
 782 1010 782 1010 748 1045 c 128,-1,29
 714 1080 714 1080 634 1080 c 0,30,31
 514 1080 514 1080 402 1015 c 0,32,33
 383 1004 383 1004 363.5 1009 c 128,-1,34
 344 1014 344 1014 328 1042 c 0,35,36
 309 1074 309 1074 312.5 1095 c 128,-1,37
 316 1116 316 1116 335 1128 c 0,38,39
 397 1167 397 1167 476.5 1188 c 128,-1,40
 556 1209 556 1209 634 1209 c 0,41,42
 775 1209 775 1209 846 1142 c 128,-1,43
 917 1075 917 1075 917 954 c 2,44,-1
 917 657 l 2,45,46
 917 626 917 626 929.5 614 c 128,-1,47
 942 602 942 602 967 602 c 2,48,-1
 984 602 l 2,0,1
782 776 m 1,49,50
 729 788 729 788 674 794.5 c 128,-1,51
 619 801 619 801 559 801 c 0,52,53
 520 801 520 801 488 795 c 128,-1,54
 456 789 456 789 432.5 776 c 128,-1,55
 409 763 409 763 396 742 c 128,-1,56
 383 721 383 721 383 690 c 0,57,58
 383 641 383 641 419 615.5 c 128,-1,59
 455 590 455 590 516 590 c 0,60,61
 594 590 594 590 659.5 620 c 128,-1,62
 725 650 725 650 782 707 c 1,63,-1
 782 776 l 1,49,50
EndSplineSet
EndChar
StartChar: guillemotleft
Encoding: 171 171 125
Width: 1228
Flags: W
LayerCount: 2
Back
Fore
SplineSet
252 548 m 2,0,1
 238 572 238 572 252 596 c 2,2,-1
 450 922 l 2,3,4
 463 943 463 943 489 945.5 c 128,-1,5
 515 948 515 948 540 937 c 0,6,7
 553 931 553 931 564 923 c 128,-1,8
 575 915 575 915 581 904.5 c 128,-1,9
 587 894 587 894 587.5 882 c 128,-1,10
 588 870 588 870 580 857 c 2,11,-1
 406 572 l 1,12,-1
 580 287 l 2,13,14
 588 274 588 274 587.5 262 c 128,-1,15
 587 250 587 250 581 239.5 c 128,-1,16
 575 229 575 229 564 221 c 128,-1,17
 553 213 553 213 540 207 c 0,18,19
 515 196 515 196 489 198.5 c 128,-1,20
 463 201 463 201 450 222 c 2,21,-1
 252 548 l 2,0,1
652 548 m 2,22,23
 638 572 638 572 652 596 c 2,24,-1
 850 922 l 2,25,26
 863 943 863 943 889 945.5 c 128,-1,27
 915 948 915 948 940 937 c 0,28,29
 953 931 953 931 964 923 c 128,-1,30
 975 915 975 915 981 904.5 c 128,-1,31
 987 894 987 894 987.5 882 c 128,-1,32
 988 870 988 870 980 857 c 2,33,-1
 806 572 l 1,34,-1
 980 287 l 2,35,36
 988 274 988 274 987.5 262 c 128,-1,37
 987 250 987 250 981 239.5 c 128,-1,38
 975 229 975 229 964 221 c 128,-1,39
 953 213 953 213 940 207 c 0,40,41
 915 196 915 196 889 198.5 c 128,-1,42
 863 201 863 201 850 222 c 2,43,-1
 652 548 l 2,22,23
EndSplineSet
EndChar
StartChar: logicalnot
Encoding: 172 172 122
Width: 1228
Flags: W
LayerCount: 2
Back
Fore
SplineSet
203 709 m 2,0,1
 169 709 169 709 154.5 724 c 128,-1,2
 140 739 140 739 140 777 c 256,3,4
 140 815 140 815 154.5 830 c 128,-1,5
 169 845 169 845 203 845 c 2,6,-1
 1015 845 l 2,7,8
 1049 845 1049 845 1063.5 830 c 128,-1,9
 1078 815 1078 815 1078 777 c 2,10,-1
 1078 383 l 2,11,12
 1078 348 1078 348 1061.5 333 c 128,-1,13
 1045 318 1045 318 1003 318 c 256,14,15
 961 318 961 318 944.5 333 c 128,-1,16
 928 348 928 348 928 383 c 2,17,-1
 928 709 l 1,18,-1
 203 709 l 2,0,1
EndSplineSet
EndChar
StartChar: registered
Encoding: 174 174 102
Width: 1228
Flags: W
LayerCount: 2
Back
Fore
SplineSet
36 594 m 256,0,1
 36 723 36 723 78.5 835 c 128,-1,2
 121 947 121 947 197.5 1030 c 128,-1,3
 274 1113 274 1113 380 1161 c 128,-1,4
 486 1209 486 1209 614 1209 c 0,5,6
 741 1209 741 1209 847.5 1161 c 128,-1,7
 954 1113 954 1113 1030.5 1030 c 128,-1,8
 1107 947 1107 947 1149.5 835 c 128,-1,9
 1192 723 1192 723 1192 594 c 256,10,11
 1192 465 1192 465 1149.5 353 c 128,-1,12
 1107 241 1107 241 1030.5 157.5 c 128,-1,13
 954 74 954 74 847.5 26 c 128,-1,14
 741 -22 741 -22 614 -22 c 0,15,16
 486 -22 486 -22 380 26 c 128,-1,17
 274 74 274 74 197.5 157.5 c 128,-1,18
 121 241 121 241 78.5 353 c 128,-1,19
 36 465 36 465 36 594 c 256,0,1
158 594 m 256,20,21
 158 487 158 487 191 396 c 128,-1,22
 224 305 224 305 284 239 c 128,-1,23
 344 173 344 173 428 135.5 c 128,-1,24
 512 98 512 98 614 98 c 256,25,26
 716 98 716 98 800 135.5 c 128,-1,27
 884 173 884 173 944 239 c 128,-1,28
 1004 305 1004 305 1037 396 c 128,-1,29
 1070 487 1070 487 1070 594 c 256,30,31
 1070 701 1070 701 1037 792 c 128,-1,32
 1004 883 1004 883 944 949 c 128,-1,33
 884 1015 884 1015 800 1052 c 128,-1,34
 716 1089 716 1089 614 1089 c 256,35,36
 512 1089 512 1089 428 1052 c 128,-1,37
 344 1015 344 1015 284 949 c 128,-1,38
 224 883 224 883 191 792 c 128,-1,39
 158 701 158 701 158 594 c 256,20,21
385 854 m 2,40,41
 385 888 385 888 400.5 902.5 c 128,-1,42
 416 917 416 917 450 917 c 2,43,-1
 637 917 l 2,44,45
 692 917 692 917 737 900.5 c 128,-1,46
 782 884 782 884 813.5 854.5 c 128,-1,47
 845 825 845 825 862 784.5 c 128,-1,48
 879 744 879 744 879 695 c 0,49,50
 879 620 879 620 841 568.5 c 128,-1,51
 803 517 803 517 734 494 c 1,52,-1
 841 378 l 2,53,54
 864 353 864 353 867.5 330 c 128,-1,55
 871 307 871 307 845 284 c 0,56,57
 821 262 821 262 797 265 c 128,-1,58
 773 268 773 268 756 288 c 2,59,-1
 598 470 l 1,60,-1
 509 470 l 1,61,-1
 509 335 l 2,62,63
 509 300 509 300 495 285 c 128,-1,64
 481 270 481 270 446 270 c 256,65,66
 411 270 411 270 398 285 c 128,-1,67
 385 300 385 300 385 335 c 2,68,-1
 385 854 l 2,40,41
509 800 m 1,69,-1
 509 587 l 1,70,-1
 615 587 l 2,71,72
 683 587 683 587 716 615.5 c 128,-1,73
 749 644 749 644 749 695 c 0,74,75
 749 744 749 744 718 772 c 128,-1,76
 687 800 687 800 624 800 c 2,77,-1
 509 800 l 1,69,-1
EndSplineSet
EndChar
StartChar: macron
Encoding: 175 175 231
Width: 1228
Flags: W
LayerCount: 2
Back
Fore
SplineSet
895 1246 m 2,0,1
 929 1246 929 1246 943.5 1231 c 128,-1,2
 958 1216 958 1216 958 1178 c 256,3,4
 958 1140 958 1140 943.5 1125 c 128,-1,5
 929 1110 929 1110 895 1110 c 2,6,-1
 333 1110 l 2,7,8
 299 1110 299 1110 284.5 1125 c 128,-1,9
 270 1140 270 1140 270 1178 c 256,10,11
 270 1216 270 1216 284.5 1231 c 128,-1,12
 299 1246 299 1246 333 1246 c 2,13,-1
 895 1246 l 2,0,1
EndSplineSet
EndChar
StartChar: degree
Encoding: 176 176 95
Width: 1228
Flags: W
LayerCount: 2
Back
Fore
SplineSet
246 929 m 256,0,1
 246 987 246 987 268 1038 c 128,-1,2
 290 1089 290 1089 328 1127 c 128,-1,3
 366 1165 366 1165 417 1187 c 128,-1,4
 468 1209 468 1209 526 1209 c 256,5,6
 584 1209 584 1209 635 1187 c 128,-1,7
 686 1165 686 1165 724 1127 c 128,-1,8
 762 1089 762 1089 784 1038 c 128,-1,9
 806 987 806 987 806 929 c 256,10,11
 806 871 806 871 784 820 c 128,-1,12
 762 769 762 769 724 731 c 128,-1,13
 686 693 686 693 635 671 c 128,-1,14
 584 649 584 649 526 649 c 256,15,16
 468 649 468 649 417 671 c 128,-1,17
 366 693 366 693 328 731 c 128,-1,18
 290 769 290 769 268 820 c 128,-1,19
 246 871 246 871 246 929 c 256,0,1
381 929 m 256,20,21
 381 899 381 899 392.5 872.5 c 128,-1,22
 404 846 404 846 423.5 826.5 c 128,-1,23
 443 807 443 807 469.5 795.5 c 128,-1,24
 496 784 496 784 526 784 c 256,25,26
 556 784 556 784 582.5 795.5 c 128,-1,27
 609 807 609 807 628.5 826.5 c 128,-1,28
 648 846 648 846 659.5 872.5 c 128,-1,29
 671 899 671 899 671 929 c 256,30,31
 671 959 671 959 659.5 985.5 c 128,-1,32
 648 1012 648 1012 628.5 1031.5 c 128,-1,33
 609 1051 609 1051 582.5 1062.5 c 128,-1,34
 556 1074 556 1074 526 1074 c 256,35,36
 496 1074 496 1074 469.5 1062.5 c 128,-1,37
 443 1051 443 1051 423.5 1031.5 c 128,-1,38
 404 1012 404 1012 392.5 985.5 c 128,-1,39
 381 959 381 959 381 929 c 256,20,21
EndSplineSet
EndChar
StartChar: plusminus
Encoding: 177 177 110
Width: 1228
Flags: W
LayerCount: 2
Back
Fore
SplineSet
233 674 m 2,0,1
 199 674 199 674 184.5 689 c 128,-1,2
 170 704 170 704 170 742 c 256,3,4
 170 780 170 780 184.5 795 c 128,-1,5
 199 810 199 810 233 810 c 2,6,-1
 546 810 l 1,7,-1
 546 1063 l 2,8,9
 546 1097 546 1097 561 1111.5 c 128,-1,10
 576 1126 576 1126 614 1126 c 256,11,12
 652 1126 652 1126 667 1111.5 c 128,-1,13
 682 1097 682 1097 682 1063 c 2,14,-1
 682 810 l 1,15,-1
 995 810 l 2,16,17
 1029 810 1029 810 1043.5 795 c 128,-1,18
 1058 780 1058 780 1058 742 c 256,19,20
 1058 704 1058 704 1043.5 689 c 128,-1,21
 1029 674 1029 674 995 674 c 2,22,-1
 682 674 l 1,23,-1
 682 421 l 2,24,25
 682 387 682 387 667 372.5 c 128,-1,26
 652 358 652 358 614 358 c 256,27,28
 576 358 576 358 561 372.5 c 128,-1,29
 546 387 546 387 546 421 c 2,30,-1
 546 674 l 1,31,-1
 233 674 l 2,0,1
995 250 m 2,32,33
 1029 250 1029 250 1043.5 235 c 128,-1,34
 1058 220 1058 220 1058 182 c 256,35,36
 1058 144 1058 144 1043.5 129 c 128,-1,37
 1029 114 1029 114 995 114 c 2,38,-1
 233 114 l 2,39,40
 199 114 199 114 184.5 129 c 128,-1,41
 170 144 170 144 170 182 c 256,42,43
 170 220 170 220 184.5 235 c 128,-1,44
 199 250 199 250 233 250 c 2,45,-1
 995 250 l 2,32,33
EndSplineSet
EndChar
StartChar: twosuperior
Encoding: 178 178 163
Width: 1228
Flags: W
LayerCount: 2
Back
Fore
SplineSet
446 1063 m 2,0,1
 446 1038 446 1038 431 1025 c 128,-1,2
 416 1012 416 1012 378 1012 c 0,3,4
 341 1012 341 1012 326 1025 c 128,-1,5
 311 1038 311 1038 311 1063 c 2,6,-1
 311 1210 l 2,7,8
 311 1237 311 1237 332 1252 c 0,9,10
 392 1292 392 1292 468 1313 c 128,-1,11
 544 1334 544 1334 616 1334 c 0,12,13
 683 1334 683 1334 735.5 1316 c 128,-1,14
 788 1298 788 1298 825 1264.5 c 128,-1,15
 862 1231 862 1231 881.5 1183.5 c 128,-1,16
 901 1136 901 1136 901 1078 c 0,17,18
 901 1038 901 1038 890.5 1003 c 128,-1,19
 880 968 880 968 859.5 935 c 128,-1,20
 839 902 839 902 808.5 870.5 c 128,-1,21
 778 839 778 839 738 806 c 2,22,-1
 499 608 l 1,23,-1
 821 608 l 1,24,-1
 821 686 l 2,25,26
 821 711 821 711 836 724 c 128,-1,27
 851 737 851 737 889 737 c 0,28,29
 926 737 926 737 941 724 c 128,-1,30
 956 711 956 711 956 686 c 2,31,-1
 956 536 l 2,32,33
 956 483 956 483 906 483 c 2,34,-1
 335 483 l 2,35,36
 311 483 311 483 299.5 501.5 c 128,-1,37
 288 520 288 520 288 555 c 0,38,39
 288 577 288 577 296.5 592.5 c 128,-1,40
 305 608 305 608 319 620 c 2,41,-1
 651 900 l 2,42,43
 705 946 705 946 733 986.5 c 128,-1,44
 761 1027 761 1027 761 1078 c 0,45,46
 761 1135 761 1135 722 1170 c 128,-1,47
 683 1205 683 1205 607 1205 c 0,48,49
 564 1205 564 1205 522 1194.5 c 128,-1,50
 480 1184 480 1184 446 1166 c 1,51,-1
 446 1063 l 2,0,1
EndSplineSet
EndChar
StartChar: threesuperior
Encoding: 179 179 164
Width: 1228
Flags: W
LayerCount: 2
Back
Fore
SplineSet
332 1265 m 0,0,1
 392 1300 392 1300 464 1317 c 128,-1,2
 536 1334 536 1334 604 1334 c 0,3,4
 673 1334 673 1334 727.5 1316.5 c 128,-1,5
 782 1299 782 1299 820.5 1267.5 c 128,-1,6
 859 1236 859 1236 879 1192 c 128,-1,7
 899 1148 899 1148 899 1096 c 0,8,9
 899 1033 899 1033 870 988.5 c 128,-1,10
 841 944 841 944 787 915 c 1,11,12
 851 893 851 893 888.5 844 c 128,-1,13
 926 795 926 795 926 719 c 0,14,15
 926 661 926 661 906 614 c 128,-1,16
 886 567 886 567 846 534 c 128,-1,17
 806 501 806 501 746 483 c 128,-1,18
 686 465 686 465 605 465 c 0,19,20
 534 465 534 465 460 480.5 c 128,-1,21
 386 496 386 496 324 530 c 0,22,23
 303 541 303 541 302.5 562.5 c 128,-1,24
 302 584 302 584 310 607 c 0,25,26
 319 631 319 631 335.5 646 c 128,-1,27
 352 661 352 661 378 650 c 0,28,29
 427 625 427 625 484 609.5 c 128,-1,30
 541 594 541 594 598 594 c 0,31,32
 688 594 688 594 737 626.5 c 128,-1,33
 786 659 786 659 786 720 c 0,34,35
 786 755 786 755 772.5 778 c 128,-1,36
 759 801 759 801 735 815 c 128,-1,37
 711 829 711 829 677 834.5 c 128,-1,38
 643 840 643 840 602 840 c 2,39,-1
 550 840 l 2,40,41
 526 840 526 840 516 857.5 c 128,-1,42
 506 875 506 875 506 902 c 0,43,44
 506 928 506 928 516 946.5 c 128,-1,45
 526 965 526 965 550 965 c 2,46,-1
 589 965 l 2,47,48
 670 965 670 965 714.5 992.5 c 128,-1,49
 759 1020 759 1020 759 1086 c 0,50,51
 759 1146 759 1146 714.5 1175.5 c 128,-1,52
 670 1205 670 1205 593 1205 c 0,53,54
 551 1205 551 1205 514.5 1197.5 c 128,-1,55
 478 1190 478 1190 446 1176 c 1,56,-1
 446 1113 l 2,57,58
 446 1088 446 1088 431 1075 c 128,-1,59
 416 1062 416 1062 378 1062 c 0,60,61
 341 1062 341 1062 326 1075 c 128,-1,62
 311 1088 311 1088 311 1113 c 2,63,-1
 311 1223 l 2,64,65
 311 1252 311 1252 332 1265 c 0,0,1
EndSplineSet
EndChar
StartChar: acute
Encoding: 180 180 105
Width: 1228
Flags: W
LayerCount: 2
Back
Fore
SplineSet
837 1363 m 2,0,1
 850 1370 850 1370 861.5 1373 c 128,-1,2
 873 1376 873 1376 884.5 1371 c 128,-1,3
 896 1366 896 1366 909 1351.5 c 128,-1,4
 922 1337 922 1337 938 1309 c 0,5,6
 953 1282 953 1282 958.5 1263.5 c 128,-1,7
 964 1245 964 1245 963 1232.5 c 128,-1,8
 962 1220 962 1220 955 1212.5 c 128,-1,9
 948 1205 948 1205 938 1202 c 2,10,-1
 457 1039 l 2,11,12
 438 1033 438 1033 423.5 1043.5 c 128,-1,13
 409 1054 409 1054 402 1071 c 256,14,15
 395 1088 395 1088 399.5 1105.5 c 128,-1,16
 404 1123 404 1123 421 1133 c 2,17,-1
 837 1363 l 2,0,1
EndSplineSet
EndChar
StartChar: paragraph
Encoding: 182 182 100
Width: 1228
Flags: W
LayerCount: 2
Back
Fore
SplineSet
676 -350 m 2,0,1
 676 -385 676 -385 659.5 -400 c 128,-1,2
 643 -415 643 -415 601 -415 c 256,3,4
 559 -415 559 -415 542.5 -400 c 128,-1,5
 526 -385 526 -385 526 -350 c 2,6,-1
 526 502 l 1,7,8
 439 505 439 505 366 529 c 128,-1,9
 293 553 293 553 241 597 c 128,-1,10
 189 641 189 641 160 703.5 c 128,-1,11
 131 766 131 766 131 844 c 0,12,13
 131 925 131 925 161.5 988.5 c 128,-1,14
 192 1052 192 1052 247.5 1096.5 c 128,-1,15
 303 1141 303 1141 379.5 1164 c 128,-1,16
 456 1187 456 1187 548 1187 c 2,17,-1
 1054 1187 l 2,18,19
 1088 1187 1088 1187 1102.5 1172 c 128,-1,20
 1117 1157 1117 1157 1117 1119 c 256,21,22
 1117 1081 1117 1081 1102.5 1066 c 128,-1,23
 1088 1051 1088 1051 1054 1051 c 2,24,-1
 986 1051 l 1,25,-1
 986 -350 l 2,26,27
 986 -385 986 -385 969.5 -400 c 128,-1,28
 953 -415 953 -415 911 -415 c 256,29,30
 869 -415 869 -415 852.5 -400 c 128,-1,31
 836 -385 836 -385 836 -350 c 2,32,-1
 836 1051 l 1,33,-1
 676 1051 l 1,34,-1
 676 -350 l 2,0,1
EndSplineSet
EndChar
StartChar: periodcentered
Encoding: 183 183 232
Width: 1228
Flags: W
LayerCount: 2
Back
Fore
SplineSet
445 582 m 256,0,1
 445 617 445 617 458.5 647.5 c 128,-1,2
 472 678 472 678 495 701 c 128,-1,3
 518 724 518 724 548.5 737.5 c 128,-1,4
 579 751 579 751 614 751 c 256,5,6
 649 751 649 751 679.5 737.5 c 128,-1,7
 710 724 710 724 733 701 c 128,-1,8
 756 678 756 678 769.5 647.5 c 128,-1,9
 783 617 783 617 783 582 c 256,10,11
 783 547 783 547 769.5 516.5 c 128,-1,12
 756 486 756 486 733 463 c 128,-1,13
 710 440 710 440 679.5 426.5 c 128,-1,14
 649 413 649 413 614 413 c 256,15,16
 579 413 579 413 548.5 426.5 c 128,-1,17
 518 440 518 440 495 463 c 128,-1,18
 472 486 472 486 458.5 516.5 c 128,-1,19
 445 547 445 547 445 582 c 256,0,1
EndSplineSet
EndChar
StartChar: cedilla
Encoding: 184 184 146
Width: 1228
Flags: W
LayerCount: 2
Back
Fore
SplineSet
529 28 m 1,0,-1
 664 28 l 1,1,-1
 664 -113 l 1,2,3
 716 -112 716 -112 754.5 -125 c 128,-1,4
 793 -138 793 -138 818.5 -161 c 128,-1,5
 844 -184 844 -184 857 -215 c 128,-1,6
 870 -246 870 -246 870 -281 c 0,7,8
 870 -323 870 -323 854.5 -358 c 128,-1,9
 839 -393 839 -393 808 -418.5 c 128,-1,10
 777 -444 777 -444 730.5 -458 c 128,-1,11
 684 -472 684 -472 621 -472 c 0,12,13
 554 -472 554 -472 490 -460 c 128,-1,14
 426 -448 426 -448 374 -424 c 0,15,16
 356 -416 356 -416 353.5 -396 c 128,-1,17
 351 -376 351 -376 359 -356 c 256,18,19
 367 -336 367 -336 383 -323 c 128,-1,20
 399 -310 399 -310 418 -318 c 0,21,22
 457 -333 457 -333 508.5 -342.5 c 128,-1,23
 560 -352 560 -352 611 -352 c 0,24,25
 661 -352 661 -352 687.5 -334.5 c 128,-1,26
 714 -317 714 -317 714 -285 c 0,27,28
 714 -243 714 -243 676 -227.5 c 128,-1,29
 638 -212 638 -212 569 -217 c 0,30,31
 562 -217 562 -217 555 -216 c 128,-1,32
 548 -215 548 -215 542 -210.5 c 128,-1,33
 536 -206 536 -206 532.5 -197.5 c 128,-1,34
 529 -189 529 -189 529 -175 c 2,35,-1
 529 28 l 1,0,-1
EndSplineSet
EndChar
StartChar: onesuperior
Encoding: 185 185 162
Width: 1228
Flags: W
LayerCount: 2
Back
Fore
SplineSet
569 1179 m 1,0,-1
 395 1122 l 2,1,2
 345 1105 345 1105 326 1162 c 0,3,4
 304 1223 304 1223 354 1239 c 2,5,-1
 638 1330 l 2,6,7
 665 1339 665 1339 684.5 1328.5 c 128,-1,8
 704 1318 704 1318 704 1292 c 2,9,-1
 704 608 l 1,10,-1
 898 608 l 2,11,12
 922 608 922 608 934.5 594 c 128,-1,13
 947 580 947 580 947 546 c 256,14,15
 947 512 947 512 934.5 497.5 c 128,-1,16
 922 483 922 483 898 483 c 2,17,-1
 365 483 l 2,18,19
 341 483 341 483 328 497.5 c 128,-1,20
 315 512 315 512 315 546 c 256,21,22
 315 580 315 580 328 594 c 128,-1,23
 341 608 341 608 365 608 c 2,24,-1
 569 608 l 1,25,-1
 569 1179 l 1,0,-1
EndSplineSet
EndChar
StartChar: ordmasculine
Encoding: 186 186 117
Width: 1228
Flags: W
LayerCount: 2
Back
Fore
SplineSet
235 837 m 256,0,1
 235 918 235 918 264 986 c 128,-1,2
 293 1054 293 1054 343.5 1103.5 c 128,-1,3
 394 1153 394 1153 463.5 1181 c 128,-1,4
 533 1209 533 1209 614 1209 c 256,5,6
 695 1209 695 1209 764.5 1181 c 128,-1,7
 834 1153 834 1153 884.5 1103.5 c 128,-1,8
 935 1054 935 1054 964 986 c 128,-1,9
 993 918 993 918 993 837 c 256,10,11
 993 756 993 756 964 687.5 c 128,-1,12
 935 619 935 619 884.5 569.5 c 128,-1,13
 834 520 834 520 764.5 492.5 c 128,-1,14
 695 465 695 465 614 465 c 256,15,16
 533 465 533 465 463.5 492.5 c 128,-1,17
 394 520 394 520 343.5 569.5 c 128,-1,18
 293 619 293 619 264 687.5 c 128,-1,19
 235 756 235 756 235 837 c 256,0,1
375 837 m 0,20,21
 375 784 375 784 392 740 c 128,-1,22
 409 696 409 696 440.5 664.5 c 128,-1,23
 472 633 472 633 516 615 c 128,-1,24
 560 597 560 597 614 597 c 256,25,26
 668 597 668 597 712 615 c 128,-1,27
 756 633 756 633 787.5 664.5 c 128,-1,28
 819 696 819 696 836 740 c 128,-1,29
 853 784 853 784 853 837 c 0,30,31
 853 889 853 889 836 933 c 128,-1,32
 819 977 819 977 787.5 1009 c 128,-1,33
 756 1041 756 1041 712 1059 c 128,-1,34
 668 1077 668 1077 614 1077 c 256,35,36
 560 1077 560 1077 516 1059 c 128,-1,37
 472 1041 472 1041 440.5 1009 c 128,-1,38
 409 977 409 977 392 933 c 128,-1,39
 375 889 375 889 375 837 c 0,20,21
EndSplineSet
EndChar
StartChar: guillemotright
Encoding: 187 187 126
Width: 1228
Flags: W
LayerCount: 2
Back
Fore
SplineSet
378 222 m 2,0,1
 365 201 365 201 339 198.5 c 128,-1,2
 313 196 313 196 288 207 c 0,3,4
 275 213 275 213 264 221 c 128,-1,5
 253 229 253 229 247 239.5 c 128,-1,6
 241 250 241 250 240.5 262 c 128,-1,7
 240 274 240 274 248 287 c 2,8,-1
 422 572 l 1,9,-1
 248 857 l 2,10,11
 240 870 240 870 240.5 882 c 128,-1,12
 241 894 241 894 247 904.5 c 128,-1,13
 253 915 253 915 264 923 c 128,-1,14
 275 931 275 931 288 937 c 0,15,16
 313 948 313 948 339 945.5 c 128,-1,17
 365 943 365 943 378 922 c 2,18,-1
 576 596 l 2,19,20
 590 572 590 572 576 548 c 2,21,-1
 378 222 l 2,0,1
778 222 m 2,22,23
 765 201 765 201 739 198.5 c 128,-1,24
 713 196 713 196 688 207 c 0,25,26
 675 213 675 213 664 221 c 128,-1,27
 653 229 653 229 647 239.5 c 128,-1,28
 641 250 641 250 640.5 262 c 128,-1,29
 640 274 640 274 648 287 c 2,30,-1
 822 572 l 1,31,-1
 648 857 l 2,32,33
 640 870 640 870 640.5 882 c 128,-1,34
 641 894 641 894 647 904.5 c 128,-1,35
 653 915 653 915 664 923 c 128,-1,36
 675 931 675 931 688 937 c 0,37,38
 713 948 713 948 739 945.5 c 128,-1,39
 765 943 765 943 778 922 c 2,40,-1
 976 596 l 2,41,42
 990 572 990 572 976 548 c 2,43,-1
 778 222 l 2,22,23
EndSplineSet
EndChar
StartChar: questiondown
Encoding: 191 191 120
Width: 1228
Flags: W
LayerCount: 2
Back
Fore
SplineSet
974 125 m 2,0,1
 974 84 974 84 949 69 c 0,2,3
 873 23 873 23 787.5 0.5 c 128,-1,4
 702 -22 702 -22 610 -22 c 0,5,6
 527 -22 527 -22 461.5 1 c 128,-1,7
 396 24 396 24 351 65 c 128,-1,8
 306 106 306 106 282 164 c 128,-1,9
 258 222 258 222 258 291 c 0,10,11
 258 358 258 358 278.5 408.5 c 128,-1,12
 299 459 299 459 339 499 c 128,-1,13
 379 539 379 539 438.5 571.5 c 128,-1,14
 498 604 498 604 575 636 c 1,15,-1
 585 777 l 2,16,17
 587 800 587 800 604.5 814 c 128,-1,18
 622 828 622 828 654 828 c 256,19,20
 686 828 686 828 703.5 814 c 128,-1,21
 721 800 721 800 723 777 c 2,22,-1
 733 582 l 2,23,24
 734 562 734 562 727 550 c 128,-1,25
 720 538 720 538 703 531 c 2,26,-1
 634 503 l 2,27,28
 577 480 577 480 536 458 c 128,-1,29
 495 436 495 436 468 411.5 c 128,-1,30
 441 387 441 387 428.5 357.5 c 128,-1,31
 416 328 416 328 416 291 c 0,32,33
 416 218 416 218 465.5 172 c 128,-1,34
 515 126 515 126 609 126 c 0,35,36
 670 126 670 126 723.5 134.5 c 128,-1,37
 777 143 777 143 824 163 c 1,38,-1
 824 252 l 2,39,40
 824 287 824 287 840.5 302 c 128,-1,41
 857 317 857 317 899 317 c 256,42,43
 941 317 941 317 957.5 302 c 128,-1,44
 974 287 974 287 974 252 c 2,45,-1
 974 125 l 2,0,1
792 1071 m 0,46,47
 792 1042 792 1042 781 1017 c 128,-1,48
 770 992 770 992 751.5 973.5 c 128,-1,49
 733 955 733 955 707.5 944 c 128,-1,50
 682 933 682 933 654 933 c 0,51,52
 625 933 625 933 600 944 c 128,-1,53
 575 955 575 955 556.5 973.5 c 128,-1,54
 538 992 538 992 527 1017 c 128,-1,55
 516 1042 516 1042 516 1071 c 0,56,57
 516 1099 516 1099 527 1124.5 c 128,-1,58
 538 1150 538 1150 556.5 1168.5 c 128,-1,59
 575 1187 575 1187 600 1198 c 128,-1,60
 625 1209 625 1209 654 1209 c 0,61,62
 682 1209 682 1209 707.5 1198 c 128,-1,63
 733 1187 733 1187 751.5 1168.5 c 128,-1,64
 770 1150 770 1150 781 1124.5 c 128,-1,65
 792 1099 792 1099 792 1071 c 0,46,47
EndSplineSet
EndChar
StartChar: AE
Encoding: 198 198 108
Width: 1228
Flags: W
LayerCount: 2
Back
Fore
SplineSet
393 1051 m 1,0,-1
 294 1051 l 2,1,2
 260 1051 260 1051 245.5 1066 c 128,-1,3
 231 1081 231 1081 231 1119 c 256,4,5
 231 1157 231 1157 245.5 1172 c 128,-1,6
 260 1187 260 1187 294 1187 c 2,7,-1
 1063 1187 l 2,8,9
 1097 1187 1097 1187 1111.5 1172 c 128,-1,10
 1126 1157 1126 1157 1126 1119 c 2,11,-1
 1126 865 l 2,12,13
 1126 830 1126 830 1109.5 815 c 128,-1,14
 1093 800 1093 800 1051 800 c 256,15,16
 1009 800 1009 800 992.5 815 c 128,-1,17
 976 830 976 830 976 865 c 2,18,-1
 976 1051 l 1,19,-1
 716 1051 l 1,20,-1
 716 685 l 1,21,-1
 908 685 l 2,22,23
 942 685 942 685 956.5 670 c 128,-1,24
 971 655 971 655 971 617 c 256,25,26
 971 579 971 579 956.5 564 c 128,-1,27
 942 549 942 549 908 549 c 2,28,-1
 716 549 l 1,29,-1
 716 136 l 1,30,-1
 988 136 l 1,31,-1
 988 365 l 2,32,33
 988 400 988 400 1004.5 415 c 128,-1,34
 1021 430 1021 430 1063 430 c 256,35,36
 1105 430 1105 430 1121.5 415 c 128,-1,37
 1138 400 1138 400 1138 365 c 2,38,-1
 1138 68 l 2,39,40
 1138 30 1138 30 1123.5 15 c 128,-1,41
 1109 0 1109 0 1075 0 c 2,42,-1
 629 0 l 2,43,44
 595 0 595 0 580.5 15 c 128,-1,45
 566 30 566 30 566 68 c 2,46,-1
 566 374 l 1,47,-1
 341 374 l 1,48,-1
 269 136 l 1,49,-1
 357 136 l 2,50,51
 391 136 391 136 405.5 121 c 128,-1,52
 420 106 420 106 420 68 c 256,53,54
 420 30 420 30 405.5 15 c 128,-1,55
 391 0 391 0 357 0 c 2,56,-1
 63 0 l 2,57,58
 29 0 29 0 14.5 15 c 128,-1,59
 0 30 0 30 0 68 c 256,60,61
 0 106 0 106 14.5 121 c 128,-1,62
 29 136 29 136 63 136 c 2,63,-1
 113 136 l 1,64,-1
 393 1051 l 1,0,-1
566 510 m 1,65,-1
 566 1051 l 1,66,-1
 546 1051 l 1,67,-1
 382 510 l 1,68,-1
 566 510 l 1,65,-1
EndSplineSet
EndChar
StartChar: Ccedilla
Encoding: 199 199 92
Width: 1228
Flags: W
LayerCount: 2
Back
Fore
SplineSet
559 -17 m 1,0,1
 457 -4 457 -4 375.5 45.5 c 128,-1,2
 294 95 294 95 236.5 174 c 128,-1,3
 179 253 179 253 148.5 359 c 128,-1,4
 118 465 118 465 118 593 c 0,5,6
 118 732 118 732 155.5 845.5 c 128,-1,7
 193 959 193 959 261.5 1040 c 128,-1,8
 330 1121 330 1121 425 1165 c 128,-1,9
 520 1209 520 1209 634 1209 c 0,10,11
 731 1209 731 1209 803 1176.5 c 128,-1,12
 875 1144 875 1144 924 1086 c 1,13,-1
 924 1144 l 2,14,15
 924 1179 924 1179 940.5 1194 c 128,-1,16
 957 1209 957 1209 999 1209 c 256,17,18
 1041 1209 1041 1209 1057.5 1194 c 128,-1,19
 1074 1179 1074 1179 1074 1144 c 2,20,-1
 1074 814 l 2,21,22
 1074 779 1074 779 1057.5 764 c 128,-1,23
 1041 749 1041 749 999 749 c 256,24,25
 957 749 957 749 940.5 764 c 128,-1,26
 924 779 924 779 924 814 c 0,27,28
 924 863 924 863 907.5 908 c 128,-1,29
 891 953 891 953 856.5 987 c 128,-1,30
 822 1021 822 1021 769 1041 c 128,-1,31
 716 1061 716 1061 644 1061 c 0,32,33
 563 1061 563 1061 495 1028.5 c 128,-1,34
 427 996 427 996 378.5 935 c 128,-1,35
 330 874 330 874 303 787.5 c 128,-1,36
 276 701 276 701 276 593 c 256,37,38
 276 485 276 485 301.5 398.5 c 128,-1,39
 327 312 327 312 373.5 251.5 c 128,-1,40
 420 191 420 191 486.5 158.5 c 128,-1,41
 553 126 553 126 634 126 c 0,42,43
 734 126 734 126 823.5 154.5 c 128,-1,44
 913 183 913 183 985 239 c 0,45,46
 1005 255 1005 255 1029 253 c 128,-1,47
 1053 251 1053 251 1075 214 c 0,48,49
 1096 179 1096 179 1092 153.5 c 128,-1,50
 1088 128 1088 128 1062 109 c 0,51,52
 979 51 979 51 886 20 c 128,-1,53
 793 -11 793 -11 694 -19 c 1,54,-1
 694 -113 l 1,55,56
 746 -112 746 -112 784.5 -125 c 128,-1,57
 823 -138 823 -138 848.5 -161 c 128,-1,58
 874 -184 874 -184 887 -215 c 128,-1,59
 900 -246 900 -246 900 -281 c 0,60,61
 900 -323 900 -323 884.5 -358 c 128,-1,62
 869 -393 869 -393 838 -418.5 c 128,-1,63
 807 -444 807 -444 760.5 -458 c 128,-1,64
 714 -472 714 -472 651 -472 c 0,65,66
 584 -472 584 -472 520 -460 c 128,-1,67
 456 -448 456 -448 404 -424 c 0,68,69
 386 -416 386 -416 383.5 -396 c 128,-1,70
 381 -376 381 -376 389 -356 c 256,71,72
 397 -336 397 -336 413 -323 c 128,-1,73
 429 -310 429 -310 448 -318 c 0,74,75
 487 -333 487 -333 538.5 -342.5 c 128,-1,76
 590 -352 590 -352 641 -352 c 0,77,78
 691 -352 691 -352 717.5 -334.5 c 128,-1,79
 744 -317 744 -317 744 -285 c 0,80,81
 744 -243 744 -243 706 -227.5 c 128,-1,82
 668 -212 668 -212 599 -217 c 0,83,84
 592 -217 592 -217 585 -216 c 128,-1,85
 578 -215 578 -215 572 -210.5 c 128,-1,86
 566 -206 566 -206 562.5 -197.5 c 128,-1,87
 559 -189 559 -189 559 -175 c 2,88,-1
 559 -17 l 1,0,1
EndSplineSet
EndChar
StartChar: Eth
Encoding: 208 208 157
Width: 1228
Flags: W
LayerCount: 2
Back
Fore
SplineSet
255 544 m 1,0,-1
 113 544 l 2,1,2
 79 544 79 544 64.5 559 c 128,-1,3
 50 574 50 574 50 612 c 256,4,5
 50 650 50 650 64.5 665 c 128,-1,6
 79 680 79 680 113 680 c 2,7,-1
 255 680 l 1,8,-1
 255 1051 l 1,9,-1
 143 1051 l 2,10,11
 109 1051 109 1051 94.5 1066 c 128,-1,12
 80 1081 80 1081 80 1119 c 256,13,14
 80 1157 80 1157 94.5 1172 c 128,-1,15
 109 1187 109 1187 143 1187 c 2,16,-1
 614 1187 l 2,17,18
 732 1187 732 1187 829 1146 c 128,-1,19
 926 1105 926 1105 995 1028.5 c 128,-1,20
 1064 952 1064 952 1102 842 c 128,-1,21
 1140 732 1140 732 1140 593 c 256,22,23
 1140 454 1140 454 1102 344 c 128,-1,24
 1064 234 1064 234 995 157.5 c 128,-1,25
 926 81 926 81 829 40.5 c 128,-1,26
 732 0 732 0 614 0 c 2,27,-1
 143 0 l 2,28,29
 109 0 109 0 94.5 15 c 128,-1,30
 80 30 80 30 80 68 c 256,31,32
 80 106 80 106 94.5 121 c 128,-1,33
 109 136 109 136 143 136 c 2,34,-1
 255 136 l 1,35,-1
 255 544 l 1,0,-1
591 136 m 2,36,37
 680 136 680 136 752 165.5 c 128,-1,38
 824 195 824 195 875 252.5 c 128,-1,39
 926 310 926 310 954 395.5 c 128,-1,40
 982 481 982 481 982 593 c 256,41,42
 982 705 982 705 954 790.5 c 128,-1,43
 926 876 926 876 875 934 c 128,-1,44
 824 992 824 992 752 1021.5 c 128,-1,45
 680 1051 680 1051 591 1051 c 2,46,-1
 405 1051 l 1,47,-1
 405 680 l 1,48,-1
 595 680 l 2,49,50
 629 680 629 680 643.5 665 c 128,-1,51
 658 650 658 650 658 612 c 256,52,53
 658 574 658 574 643.5 559 c 128,-1,54
 629 544 629 544 595 544 c 2,55,-1
 405 544 l 1,56,-1
 405 136 l 1,57,-1
 591 136 l 2,36,37
EndSplineSet
EndChar
StartChar: multiply
Encoding: 215 215 229
Width: 1228
Flags: W
LayerCount: 2
Back
Fore
SplineSet
614 678 m 1,0,-1
 875 939 l 2,1,2
 899 963 899 963 920.5 962.5 c 128,-1,3
 942 962 942 962 968 936 c 256,4,5
 994 910 994 910 994.5 888.5 c 128,-1,6
 995 867 995 867 971 843 c 2,7,-1
 710 582 l 1,8,-1
 971 321 l 2,9,10
 995 297 995 297 994.5 275.5 c 128,-1,11
 994 254 994 254 968 228 c 256,12,13
 942 202 942 202 920.5 201.5 c 128,-1,14
 899 201 899 201 875 225 c 2,15,-1
 614 486 l 1,16,-1
 353 225 l 2,17,18
 329 201 329 201 307.5 201.5 c 128,-1,19
 286 202 286 202 260 228 c 256,20,21
 234 254 234 254 233.5 275.5 c 128,-1,22
 233 297 233 297 257 321 c 2,23,-1
 518 582 l 1,24,-1
 257 843 l 2,25,26
 233 867 233 867 233.5 888.5 c 128,-1,27
 234 910 234 910 260 936 c 256,28,29
 286 962 286 962 307.5 962.5 c 128,-1,30
 329 963 329 963 353 939 c 2,31,-1
 614 678 l 1,0,-1
EndSplineSet
EndChar
StartChar: Oslash
Encoding: 216 216 109
Width: 1228
Flags: W
LayerCount: 2
Back
Fore
SplineSet
88 593 m 0,0,1
 88 732 88 732 126 845.5 c 128,-1,2
 164 959 164 959 233 1040 c 128,-1,3
 302 1121 302 1121 399 1165 c 128,-1,4
 496 1209 496 1209 614 1209 c 0,5,6
 696 1209 696 1209 767.5 1187.5 c 128,-1,7
 839 1166 839 1166 899 1126 c 1,8,-1
 936 1179 l 2,9,10
 956 1208 956 1208 978.5 1210.5 c 128,-1,11
 1001 1213 1001 1213 1031 1192 c 256,12,13
 1061 1171 1061 1171 1066 1149 c 128,-1,14
 1071 1127 1071 1127 1051 1099 c 2,15,-1
 1003 1030 l 1,16,17
 1069 949 1069 949 1104.5 838.5 c 128,-1,18
 1140 728 1140 728 1140 593 c 0,19,20
 1140 454 1140 454 1102 340.5 c 128,-1,21
 1064 227 1064 227 995 146.5 c 128,-1,22
 926 66 926 66 829 22 c 128,-1,23
 732 -22 732 -22 614 -22 c 0,24,25
 531 -22 531 -22 459.5 -1 c 128,-1,26
 388 20 388 20 328 61 c 1,27,-1
 292 10 l 2,28,29
 272 -19 272 -19 250 -21.5 c 128,-1,30
 228 -24 228 -24 198 -3 c 0,31,32
 167 18 167 18 162 39.5 c 128,-1,33
 157 61 157 61 177 90 c 2,34,-1
 224 157 l 1,35,36
 158 238 158 238 123 348 c 128,-1,37
 88 458 88 458 88 593 c 0,0,1
982 593 m 0,38,39
 982 685 982 685 963 760.5 c 128,-1,40
 944 836 944 836 909 895 c 1,41,-1
 415 186 l 1,42,43
 457 157 457 157 507 141.5 c 128,-1,44
 557 126 557 126 614 126 c 0,45,46
 697 126 697 126 765 158.5 c 128,-1,47
 833 191 833 191 881 251.5 c 128,-1,48
 929 312 929 312 955.5 398.5 c 128,-1,49
 982 485 982 485 982 593 c 0,38,39
246 593 m 0,50,51
 246 411 246 411 318 292 c 1,52,-1
 812 1001 l 1,53,54
 726 1061 726 1061 614 1061 c 0,55,56
 531 1061 531 1061 463 1028.5 c 128,-1,57
 395 996 395 996 347 935 c 128,-1,58
 299 874 299 874 272.5 787.5 c 128,-1,59
 246 701 246 701 246 593 c 0,50,51
EndSplineSet
EndChar
StartChar: Thorn
Encoding: 222 222 160
Width: 1228
Flags: W
LayerCount: 2
Back
Fore
SplineSet
329 1051 m 1,0,-1
 173 1051 l 2,1,2
 139 1051 139 1051 124.5 1066 c 128,-1,3
 110 1081 110 1081 110 1119 c 256,4,5
 110 1157 110 1157 124.5 1172 c 128,-1,6
 139 1187 139 1187 173 1187 c 2,7,-1
 695 1187 l 2,8,9
 729 1187 729 1187 743.5 1172 c 128,-1,10
 758 1157 758 1157 758 1119 c 256,11,12
 758 1081 758 1081 743.5 1066 c 128,-1,13
 729 1051 729 1051 695 1051 c 2,14,-1
 479 1051 l 1,15,-1
 479 927 l 1,16,-1
 710 927 l 2,17,18
 800 927 800 927 868 901.5 c 128,-1,19
 936 876 936 876 981 832 c 128,-1,20
 1026 788 1026 788 1049 728 c 128,-1,21
 1072 668 1072 668 1072 598 c 0,22,23
 1072 529 1072 529 1049 469.5 c 128,-1,24
 1026 410 1026 410 981 366.5 c 128,-1,25
 936 323 936 323 868 298 c 128,-1,26
 800 273 800 273 710 273 c 2,27,-1
 479 273 l 1,28,-1
 479 136 l 1,29,-1
 695 136 l 2,30,31
 729 136 729 136 743.5 121 c 128,-1,32
 758 106 758 106 758 68 c 256,33,34
 758 30 758 30 743.5 15 c 128,-1,35
 729 0 729 0 695 0 c 2,36,-1
 173 0 l 2,37,38
 139 0 139 0 124.5 15 c 128,-1,39
 110 30 110 30 110 68 c 256,40,41
 110 106 110 106 124.5 121 c 128,-1,42
 139 136 139 136 173 136 c 2,43,-1
 329 136 l 1,44,-1
 329 1051 l 1,0,-1
689 409 m 2,45,46
 800 409 800 409 857 458.5 c 128,-1,47
 914 508 914 508 914 598 c 0,48,49
 914 640 914 640 901 675 c 128,-1,50
 888 710 888 710 860.5 736 c 128,-1,51
 833 762 833 762 790.5 776.5 c 128,-1,52
 748 791 748 791 689 791 c 2,53,-1
 479 791 l 1,54,-1
 479 409 l 1,55,-1
 689 409 l 2,45,46
EndSplineSet
EndChar
StartChar: germandbls
Encoding: 223 223 101
Width: 1228
Flags: W
LayerCount: 2
Back
Fore
SplineSet
245 943 m 2,0,1
 245 1025 245 1025 270 1094 c 128,-1,2
 295 1163 295 1163 343 1212.5 c 128,-1,3
 391 1262 391 1262 460 1289.5 c 128,-1,4
 529 1317 529 1317 616 1317 c 0,5,6
 710 1317 710 1317 780.5 1290 c 128,-1,7
 851 1263 851 1263 898.5 1216.5 c 128,-1,8
 946 1170 946 1170 970 1106.5 c 128,-1,9
 994 1043 994 1043 994 971 c 0,10,11
 994 876 994 876 946.5 810 c 128,-1,12
 899 744 899 744 820 702 c 1,13,14
 927 661 927 661 989 573 c 128,-1,15
 1051 485 1051 485 1051 360 c 0,16,17
 1051 270 1051 270 1021.5 199 c 128,-1,18
 992 128 992 128 938.5 79 c 128,-1,19
 885 30 885 30 810 4 c 128,-1,20
 735 -22 735 -22 644 -22 c 0,21,22
 593 -22 593 -22 577 -5 c 128,-1,23
 561 12 561 12 561 55 c 0,24,25
 561 92 561 92 575.5 109 c 128,-1,26
 590 126 590 126 625 126 c 0,27,28
 750 126 750 126 821.5 186.5 c 128,-1,29
 893 247 893 247 893 362 c 0,30,31
 893 424 893 424 875 472 c 128,-1,32
 857 520 857 520 823.5 552.5 c 128,-1,33
 790 585 790 585 742.5 602 c 128,-1,34
 695 619 695 619 637 619 c 0,35,36
 603 619 603 619 588.5 635.5 c 128,-1,37
 574 652 574 652 574 688 c 256,38,39
 574 724 574 724 588.5 740 c 128,-1,40
 603 756 603 756 637 759 c 0,41,42
 737 769 737 769 787.5 826 c 128,-1,43
 838 883 838 883 838 971 c 0,44,45
 838 1064 838 1064 780.5 1118 c 128,-1,46
 723 1172 723 1172 612 1172 c 0,47,48
 560 1172 560 1172 519.5 1155 c 128,-1,49
 479 1138 479 1138 451.5 1106.5 c 128,-1,50
 424 1075 424 1075 409.5 1031 c 128,-1,51
 395 987 395 987 395 932 c 2,52,-1
 395 68 l 2,53,54
 395 30 395 30 380.5 15 c 128,-1,55
 366 0 366 0 332 0 c 2,56,-1
 103 0 l 2,57,58
 69 0 69 0 54.5 15 c 128,-1,59
 40 30 40 30 40 68 c 256,60,61
 40 106 40 106 54.5 121 c 128,-1,62
 69 136 69 136 103 136 c 2,63,-1
 245 136 l 1,64,-1
 245 943 l 2,0,1
EndSplineSet
EndChar
StartChar: ae
Encoding: 230 230 118
Width: 1228
Flags: W
LayerCount: 2
Back
Fore
SplineSet
1151 502 m 0,0,1
 1151 468 1151 468 1136.5 454 c 128,-1,2
 1122 440 1122 440 1088 440 c 2,3,-1
 689 440 l 1,4,5
 690 350 690 350 703.5 289 c 128,-1,6
 717 228 717 228 739 191 c 128,-1,7
 761 154 761 154 790.5 138.5 c 128,-1,8
 820 123 820 123 853 123 c 0,9,10
 901 123 901 123 941 141.5 c 128,-1,11
 981 160 981 160 1023 201 c 0,12,13
 1042 220 1042 220 1068.5 218 c 128,-1,14
 1095 216 1095 216 1118 187 c 256,15,16
 1141 158 1141 158 1138.5 132.5 c 128,-1,17
 1136 107 1136 107 1112 84 c 0,18,19
 1056 31 1056 31 990.5 4.5 c 128,-1,20
 925 -22 925 -22 853 -22 c 0,21,22
 774 -22 774 -22 712.5 13 c 128,-1,23
 651 48 651 48 609 122 c 1,24,25
 561 55 561 55 488.5 16.5 c 128,-1,26
 416 -22 416 -22 335 -22 c 0,27,28
 276 -22 276 -22 228 -3.5 c 128,-1,29
 180 15 180 15 146 49 c 128,-1,30
 112 83 112 83 93.5 131.5 c 128,-1,31
 75 180 75 180 75 240 c 0,32,33
 75 325 75 325 108.5 389 c 128,-1,34
 142 453 142 453 203 495.5 c 128,-1,35
 264 538 264 538 349.5 559 c 128,-1,36
 435 580 435 580 539 580 c 1,37,-1
 539 602 l 2,38,39
 539 648 539 648 533.5 685 c 128,-1,40
 528 722 528 722 513.5 748 c 128,-1,41
 499 774 499 774 473.5 787.5 c 128,-1,42
 448 801 448 801 408 801 c 0,43,44
 362 801 362 801 319.5 784 c 128,-1,45
 277 767 277 767 231 732 c 0,46,47
 209 715 209 715 184 716.5 c 128,-1,48
 159 718 159 718 137 742 c 0,49,50
 115 767 115 767 115.5 793.5 c 128,-1,51
 116 820 116 820 139 840 c 0,52,53
 203 895 203 895 270 920.5 c 128,-1,54
 337 946 337 946 408 946 c 0,55,56
 489 946 489 946 543 915.5 c 128,-1,57
 597 885 597 885 629 830 c 1,58,59
 669 888 669 888 725.5 917 c 128,-1,60
 782 946 782 946 853 946 c 0,61,62
 932 946 932 946 988 914 c 128,-1,63
 1044 882 1044 882 1079 824 c 128,-1,64
 1114 766 1114 766 1131 684 c 128,-1,65
 1148 602 1148 602 1151 502 c 0,0,1
539 440 m 1,66,67
 376 440 376 440 302 389 c 128,-1,68
 228 338 228 338 228 240 c 0,69,70
 228 182 228 182 258 150.5 c 128,-1,71
 288 119 288 119 339 119 c 0,72,73
 381 119 381 119 417.5 135.5 c 128,-1,74
 454 152 454 152 481 181 c 128,-1,75
 508 210 508 210 523.5 251 c 128,-1,76
 539 292 539 292 539 340 c 2,77,-1
 539 440 l 1,66,67
855 801 m 0,78,79
 786 801 786 801 746 750 c 128,-1,80
 706 699 706 699 694 580 c 1,81,-1
 994 580 l 1,82,83
 987 683 987 683 955 742 c 128,-1,84
 923 801 923 801 855 801 c 0,78,79
EndSplineSet
EndChar
StartChar: ccedilla
Encoding: 231 231 93
Width: 1228
Flags: W
LayerCount: 2
Back
Fore
SplineSet
529 -16 m 1,0,1
 437 -3 437 -3 362.5 38 c 128,-1,2
 288 79 288 79 235.5 142 c 128,-1,3
 183 205 183 205 155 286.5 c 128,-1,4
 127 368 127 368 127 462 c 0,5,6
 127 566 127 566 162 654.5 c 128,-1,7
 197 743 197 743 260.5 808 c 128,-1,8
 324 873 324 873 412.5 909.5 c 128,-1,9
 501 946 501 946 609 946 c 0,10,11
 700 946 700 946 774 913.5 c 128,-1,12
 848 881 848 881 899 821 c 1,13,-1
 899 881 l 2,14,15
 899 916 899 916 915.5 931 c 128,-1,16
 932 946 932 946 974 946 c 256,17,18
 1016 946 1016 946 1032.5 931 c 128,-1,19
 1049 916 1049 916 1049 881 c 2,20,-1
 1049 591 l 2,21,22
 1049 556 1049 556 1032.5 541 c 128,-1,23
 1016 526 1016 526 974 526 c 256,24,25
 932 526 932 526 915.5 541 c 128,-1,26
 899 556 899 556 899 591 c 0,27,28
 899 636 899 636 881 674 c 128,-1,29
 863 712 863 712 827.5 739.5 c 128,-1,30
 792 767 792 767 740 782.5 c 128,-1,31
 688 798 688 798 619 798 c 0,32,33
 546 798 546 798 484.5 773 c 128,-1,34
 423 748 423 748 379 703 c 128,-1,35
 335 658 335 658 310 596.5 c 128,-1,36
 285 535 285 535 285 462 c 256,37,38
 285 389 285 389 308 327.5 c 128,-1,39
 331 266 331 266 373.5 221 c 128,-1,40
 416 176 416 176 476 151 c 128,-1,41
 536 126 536 126 609 126 c 0,42,43
 701 126 701 126 787 154 c 128,-1,44
 873 182 873 182 945 237 c 0,45,46
 971 257 971 257 994 252 c 128,-1,47
 1017 247 1017 247 1038 212 c 0,48,49
 1055 185 1055 185 1052.5 156.5 c 128,-1,50
 1050 128 1050 128 1021 106 c 0,51,52
 950 53 950 53 857 20.5 c 128,-1,53
 764 -12 764 -12 664 -20 c 1,54,-1
 664 -113 l 1,55,56
 716 -112 716 -112 754.5 -125 c 128,-1,57
 793 -138 793 -138 818.5 -161 c 128,-1,58
 844 -184 844 -184 857 -215 c 128,-1,59
 870 -246 870 -246 870 -281 c 0,60,61
 870 -323 870 -323 854.5 -358 c 128,-1,62
 839 -393 839 -393 808 -418.5 c 128,-1,63
 777 -444 777 -444 730.5 -458 c 128,-1,64
 684 -472 684 -472 621 -472 c 0,65,66
 554 -472 554 -472 490 -460 c 128,-1,67
 426 -448 426 -448 374 -424 c 0,68,69
 356 -416 356 -416 353.5 -396 c 128,-1,70
 351 -376 351 -376 359 -356 c 256,71,72
 367 -336 367 -336 383 -323 c 128,-1,73
 399 -310 399 -310 418 -318 c 0,74,75
 457 -333 457 -333 508.5 -342.5 c 128,-1,76
 560 -352 560 -352 611 -352 c 0,77,78
 661 -352 661 -352 687.5 -334.5 c 128,-1,79
 714 -317 714 -317 714 -285 c 0,80,81
 714 -243 714 -243 676 -227.5 c 128,-1,82
 638 -212 638 -212 569 -217 c 0,83,84
 562 -217 562 -217 555 -216 c 128,-1,85
 548 -215 548 -215 542 -210.5 c 128,-1,86
 536 -206 536 -206 532.5 -197.5 c 128,-1,87
 529 -189 529 -189 529 -175 c 2,88,-1
 529 -16 l 1,0,1
EndSplineSet
EndChar
StartChar: eth
Encoding: 240 240 158
Width: 1228
Flags: W
LayerCount: 2
Back
Fore
SplineSet
505 1130 m 1,0,1
 476 1147 476 1147 445.5 1163 c 128,-1,2
 415 1179 415 1179 383 1195 c 0,3,4
 352 1210 352 1210 347.5 1232 c 128,-1,5
 343 1254 343 1254 360 1287 c 0,6,7
 394 1352 394 1352 453 1323 c 256,8,9
 512 1294 512 1294 567 1262 c 128,-1,10
 622 1230 622 1230 674 1193 c 1,11,-1
 911 1282 l 2,12,13
 943 1294 943 1294 961.5 1284.5 c 128,-1,14
 980 1275 980 1275 994 1240 c 256,15,16
 1008 1205 1008 1205 999.5 1185.5 c 128,-1,17
 991 1166 991 1166 959 1154 c 2,18,-1
 798 1094 l 1,19,20
 864 1034 864 1034 917.5 963.5 c 128,-1,21
 971 893 971 893 1009 811 c 128,-1,22
 1047 729 1047 729 1067.5 634.5 c 128,-1,23
 1088 540 1088 540 1088 432 c 0,24,25
 1088 330 1088 330 1052 246.5 c 128,-1,26
 1016 163 1016 163 953 103 c 128,-1,27
 890 43 890 43 803 10.5 c 128,-1,28
 716 -22 716 -22 614 -22 c 256,29,30
 512 -22 512 -22 425 10.5 c 128,-1,31
 338 43 338 43 275 103 c 128,-1,32
 212 163 212 163 176 246.5 c 128,-1,33
 140 330 140 330 140 432 c 256,34,35
 140 534 140 534 176 617.5 c 128,-1,36
 212 701 212 701 275 761 c 128,-1,37
 338 821 338 821 425 853.5 c 128,-1,38
 512 886 512 886 614 886 c 0,39,40
 682 886 682 886 741 864 c 128,-1,41
 800 842 800 842 852 809 c 1,42,43
 812 874 812 874 759.5 930 c 128,-1,44
 707 986 707 986 644 1036 c 1,45,-1
 404 946 l 2,46,47
 372 934 372 934 353.5 943.5 c 128,-1,48
 335 953 335 953 321 988 c 256,49,50
 307 1023 307 1023 315.5 1042.5 c 128,-1,51
 324 1062 324 1062 356 1074 c 2,52,-1
 505 1130 l 1,0,1
298 432 m 256,53,54
 298 363 298 363 320.5 306.5 c 128,-1,55
 343 250 343 250 384.5 210 c 128,-1,56
 426 170 426 170 484.5 148 c 128,-1,57
 543 126 543 126 614 126 c 256,58,59
 685 126 685 126 743.5 148 c 128,-1,60
 802 170 802 170 843.5 210 c 128,-1,61
 885 250 885 250 907.5 306.5 c 128,-1,62
 930 363 930 363 930 432 c 256,63,64
 930 501 930 501 907.5 557.5 c 128,-1,65
 885 614 885 614 843.5 654 c 128,-1,66
 802 694 802 694 743.5 716 c 128,-1,67
 685 738 685 738 614 738 c 256,68,69
 543 738 543 738 484.5 716 c 128,-1,70
 426 694 426 694 384.5 654 c 128,-1,71
 343 614 343 614 320.5 557.5 c 128,-1,72
 298 501 298 501 298 432 c 256,53,54
EndSplineSet
EndChar
StartChar: divide
Encoding: 247 247 130
Width: 1228
Flags: W
LayerCount: 2
Back
Fore
SplineSet
494 925 m 256,0,1
 494 950 494 950 503.5 971.5 c 128,-1,2
 513 993 513 993 529 1009.5 c 128,-1,3
 545 1026 545 1026 566.5 1035.5 c 128,-1,4
 588 1045 588 1045 613 1045 c 256,5,6
 638 1045 638 1045 659.5 1035.5 c 128,-1,7
 681 1026 681 1026 697.5 1009.5 c 128,-1,8
 714 993 714 993 723.5 971.5 c 128,-1,9
 733 950 733 950 733 925 c 256,10,11
 733 900 733 900 723.5 878.5 c 128,-1,12
 714 857 714 857 697.5 841 c 128,-1,13
 681 825 681 825 659.5 815.5 c 128,-1,14
 638 806 638 806 613 806 c 256,15,16
 588 806 588 806 566.5 815.5 c 128,-1,17
 545 825 545 825 529 841 c 128,-1,18
 513 857 513 857 503.5 878.5 c 128,-1,19
 494 900 494 900 494 925 c 256,0,1
494 239 m 256,20,21
 494 264 494 264 503.5 285.5 c 128,-1,22
 513 307 513 307 529 323.5 c 128,-1,23
 545 340 545 340 566.5 349.5 c 128,-1,24
 588 359 588 359 613 359 c 256,25,26
 638 359 638 359 659.5 349.5 c 128,-1,27
 681 340 681 340 697.5 323.5 c 128,-1,28
 714 307 714 307 723.5 285.5 c 128,-1,29
 733 264 733 264 733 239 c 256,30,31
 733 214 733 214 723.5 192.5 c 128,-1,32
 714 171 714 171 697.5 155 c 128,-1,33
 681 139 681 139 659.5 129.5 c 128,-1,34
 638 120 638 120 613 120 c 256,35,36
 588 120 588 120 566.5 129.5 c 128,-1,37
 545 139 545 139 529 155 c 128,-1,38
 513 171 513 171 503.5 192.5 c 128,-1,39
 494 214 494 214 494 239 c 256,20,21
995 650 m 2,40,41
 1029 650 1029 650 1043.5 635 c 128,-1,42
 1058 620 1058 620 1058 582 c 256,43,44
 1058 544 1058 544 1043.5 529 c 128,-1,45
 1029 514 1029 514 995 514 c 2,46,-1
 233 514 l 2,47,48
 199 514 199 514 184.5 529 c 128,-1,49
 170 544 170 544 170 582 c 256,50,51
 170 620 170 620 184.5 635 c 128,-1,52
 199 650 199 650 233 650 c 2,53,-1
 995 650 l 2,40,41
EndSplineSet
EndChar
StartChar: oslash
Encoding: 248 248 119
Width: 1228
Flags: W
LayerCount: 2
Back
Fore
SplineSet
120 462 m 0,0,1
 120 568 120 568 157.5 656.5 c 128,-1,2
 195 745 195 745 261 809.5 c 128,-1,3
 327 874 327 874 417.5 910 c 128,-1,4
 508 946 508 946 614 946 c 0,5,6
 702 946 702 946 778.5 921 c 128,-1,7
 855 896 855 896 917 851 c 1,8,-1
 992 923 l 2,9,10
 1017 947 1017 947 1039.5 945.5 c 128,-1,11
 1062 944 1062 944 1088 918 c 256,12,13
 1114 892 1114 892 1114.5 869 c 128,-1,14
 1115 846 1115 846 1089 822 c 2,15,-1
 1016 752 l 1,16,17
 1060 692 1060 692 1084 619.5 c 128,-1,18
 1108 547 1108 547 1108 462 c 0,19,20
 1108 356 1108 356 1070.5 267.5 c 128,-1,21
 1033 179 1033 179 967 114.5 c 128,-1,22
 901 50 901 50 810.5 14 c 128,-1,23
 720 -22 720 -22 614 -22 c 0,24,25
 526 -22 526 -22 449 2.5 c 128,-1,26
 372 27 372 27 310 73 c 1,27,-1
 235 1 l 2,28,29
 210 -23 210 -23 188 -21.5 c 128,-1,30
 166 -20 166 -20 140 6 c 256,31,32
 114 32 114 32 113.5 54.5 c 128,-1,33
 113 77 113 77 138 101 c 2,34,-1
 211 171 l 1,35,36
 167 231 167 231 143.5 304 c 128,-1,37
 120 377 120 377 120 462 c 0,0,1
950 462 m 0,38,39
 950 513 950 513 938 558.5 c 128,-1,40
 926 604 926 604 903 643 c 1,41,-1
 421 180 l 1,42,43
 461 154 461 154 509 140 c 128,-1,44
 557 126 557 126 614 126 c 0,45,46
 689 126 689 126 751 151 c 128,-1,47
 813 176 813 176 857 221 c 128,-1,48
 901 266 901 266 925.5 327.5 c 128,-1,49
 950 389 950 389 950 462 c 0,38,39
278 462 m 0,50,51
 278 410 278 410 290 364.5 c 128,-1,52
 302 319 302 319 325 281 c 1,53,-1
 806 744 l 1,54,55
 766 770 766 770 718 784 c 128,-1,56
 670 798 670 798 614 798 c 0,57,58
 539 798 539 798 477 773 c 128,-1,59
 415 748 415 748 371 703 c 128,-1,60
 327 658 327 658 302.5 596.5 c 128,-1,61
 278 535 278 535 278 462 c 0,50,51
EndSplineSet
EndChar
StartChar: thorn
Encoding: 254 254 161
Width: 1228
Flags: W
LayerCount: 2
Back
Fore
SplineSet
202 1176 m 1,0,-1
 120 1176 l 2,1,2
 86 1176 86 1176 71.5 1191 c 128,-1,3
 57 1206 57 1206 57 1244 c 256,4,5
 57 1282 57 1282 71.5 1297 c 128,-1,6
 86 1312 86 1312 120 1312 c 2,7,-1
 289 1312 l 2,8,9
 323 1312 323 1312 337.5 1297 c 128,-1,10
 352 1282 352 1282 352 1244 c 2,11,-1
 352 793 l 1,12,13
 413 867 413 867 492.5 906.5 c 128,-1,14
 572 946 572 946 669 946 c 0,15,16
 762 946 762 946 841 914.5 c 128,-1,17
 920 883 920 883 977.5 824 c 128,-1,18
 1035 765 1035 765 1068 680 c 128,-1,19
 1101 595 1101 595 1101 487 c 256,20,21
 1101 379 1101 379 1068 294 c 128,-1,22
 1035 209 1035 209 977.5 150 c 128,-1,23
 920 91 920 91 841 59.5 c 128,-1,24
 762 28 762 28 669 28 c 0,25,26
 569 28 569 28 490.5 68.5 c 128,-1,27
 412 109 412 109 352 184 c 1,28,-1
 352 -257 l 1,29,-1
 574 -257 l 2,30,31
 608 -257 608 -257 622.5 -272 c 128,-1,32
 637 -287 637 -287 637 -325 c 256,33,34
 637 -363 637 -363 622.5 -378 c 128,-1,35
 608 -393 608 -393 574 -393 c 2,36,-1
 90 -393 l 2,37,38
 56 -393 56 -393 41.5 -378 c 128,-1,39
 27 -363 27 -363 27 -325 c 256,40,41
 27 -287 27 -287 41.5 -272 c 128,-1,42
 56 -257 56 -257 90 -257 c 2,43,-1
 202 -257 l 1,44,-1
 202 1176 l 1,0,-1
352 487 m 256,45,46
 352 413 352 413 375 355 c 128,-1,47
 398 297 398 297 439 257.5 c 128,-1,48
 480 218 480 218 536.5 197 c 128,-1,49
 593 176 593 176 659 176 c 0,50,51
 727 176 727 176 780 199 c 128,-1,52
 833 222 833 222 869 263.5 c 128,-1,53
 905 305 905 305 924 362 c 128,-1,54
 943 419 943 419 943 487 c 256,55,56
 943 555 943 555 924 612 c 128,-1,57
 905 669 905 669 869 710.5 c 128,-1,58
 833 752 833 752 780 775 c 128,-1,59
 727 798 727 798 659 798 c 0,60,61
 593 798 593 798 536.5 777 c 128,-1,62
 480 756 480 756 439 716.5 c 128,-1,63
 398 677 398 677 375 619 c 128,-1,64
 352 561 352 561 352 487 c 256,45,46
EndSplineSet
EndChar
StartChar: Aogonek
Encoding: 260 260 238
Width: 1228
Flags: W
LayerCount: 2
Back
Fore
SplineSet
407 136 m 2,0,1
 441 136 441 136 455.5 121 c 128,-1,2
 470 106 470 106 470 68 c 256,3,4
 470 30 470 30 455.5 15 c 128,-1,5
 441 0 441 0 407 0 c 2,6,-1
 73 0 l 2,7,8
 39 0 39 0 24.5 15 c 128,-1,9
 10 30 10 30 10 68 c 256,10,11
 10 106 10 106 24.5 121 c 128,-1,12
 39 136 39 136 73 136 c 2,13,-1
 129 136 l 1,14,-1
 460 1051 l 1,15,-1
 273 1051 l 2,16,17
 239 1051 239 1051 224.5 1066 c 128,-1,18
 210 1081 210 1081 210 1119 c 256,19,20
 210 1157 210 1157 224.5 1172 c 128,-1,21
 239 1187 239 1187 273 1187 c 2,22,-1
 640 1187 l 2,23,24
 680 1187 680 1187 704.5 1172 c 128,-1,25
 729 1157 729 1157 741 1122 c 2,26,-1
 1094 136 l 1,27,-1
 1155 136 l 2,28,29
 1189 136 1189 136 1203.5 121 c 128,-1,30
 1218 106 1218 106 1218 68 c 256,31,32
 1218 30 1218 30 1203.5 15 c 128,-1,33
 1189 0 1189 0 1155 0 c 2,34,-1
 1093 0 l 1,35,36
 1004 -83 1004 -83 965.5 -144.5 c 128,-1,37
 927 -206 927 -206 927 -261 c 0,38,39
 927 -298 927 -298 948.5 -317 c 128,-1,40
 970 -336 970 -336 1004 -336 c 0,41,42
 1033 -336 1033 -336 1062 -333.5 c 128,-1,43
 1091 -331 1091 -331 1117 -326 c 0,44,45
 1137 -323 1137 -323 1150 -334.5 c 128,-1,46
 1163 -346 1163 -346 1167 -374 c 0,47,48
 1172 -405 1172 -405 1164.5 -421.5 c 128,-1,49
 1157 -438 1157 -438 1135 -446 c 0,50,51
 1100 -458 1100 -458 1059 -465 c 128,-1,52
 1018 -472 1018 -472 971 -472 c 0,53,54
 877 -472 877 -472 824 -420.5 c 128,-1,55
 771 -369 771 -369 771 -281 c 0,56,57
 771 -204 771 -204 815.5 -135 c 128,-1,58
 860 -66 860 -66 935 0 c 1,59,-1
 801 0 l 2,60,61
 767 0 767 0 752.5 15 c 128,-1,62
 738 30 738 30 738 68 c 256,63,64
 738 106 738 106 752.5 121 c 128,-1,65
 767 136 767 136 801 136 c 2,66,-1
 936 136 l 1,67,-1
 854 374 l 1,68,-1
 369 374 l 1,69,-1
 286 136 l 1,70,-1
 407 136 l 2,0,1
416 510 m 1,71,-1
 808 510 l 1,72,-1
 622 1051 l 1,73,-1
 603 1051 l 1,74,-1
 416 510 l 1,71,-1
EndSplineSet
EndChar
StartChar: aogonek
Encoding: 261 261 299
Width: 1228
Flags: W
LayerCount: 2
Back
Fore
SplineSet
1095 136 m 2,0,1
 1129 136 1129 136 1143.5 121 c 128,-1,2
 1158 106 1158 106 1158 68 c 256,3,4
 1158 30 1158 30 1143.5 15 c 128,-1,5
 1129 0 1129 0 1095 0 c 2,6,-1
 1073 0 l 1,7,8
 984 -83 984 -83 945.5 -144.5 c 128,-1,9
 907 -206 907 -206 907 -261 c 0,10,11
 907 -298 907 -298 928.5 -317 c 128,-1,12
 950 -336 950 -336 984 -336 c 0,13,14
 1013 -336 1013 -336 1042 -333.5 c 128,-1,15
 1071 -331 1071 -331 1097 -326 c 0,16,17
 1117 -323 1117 -323 1130 -334.5 c 128,-1,18
 1143 -346 1143 -346 1147 -374 c 0,19,20
 1152 -405 1152 -405 1144.5 -421.5 c 128,-1,21
 1137 -438 1137 -438 1115 -446 c 0,22,23
 1080 -458 1080 -458 1039 -465 c 128,-1,24
 998 -472 998 -472 951 -472 c 0,25,26
 857 -472 857 -472 804 -420.5 c 128,-1,27
 751 -369 751 -369 751 -281 c 0,28,29
 751 -198 751 -198 802.5 -124.5 c 128,-1,30
 854 -51 854 -51 939 20 c 1,31,32
 910 35 910 35 888.5 61.5 c 128,-1,33
 867 88 867 88 859 128 c 1,34,35
 780 59 780 59 685 18.5 c 128,-1,36
 590 -22 590 -22 479 -22 c 0,37,38
 404 -22 404 -22 341 -2.5 c 128,-1,39
 278 17 278 17 232 54.5 c 128,-1,40
 186 92 186 92 160.5 146 c 128,-1,41
 135 200 135 200 135 270 c 0,42,43
 135 354 135 354 167.5 413 c 128,-1,44
 200 472 200 472 255.5 508.5 c 128,-1,45
 311 545 311 545 384.5 562 c 128,-1,46
 458 579 458 579 540 579 c 0,47,48
 621 579 621 579 697 566 c 128,-1,49
 773 553 773 553 844 528 c 1,50,-1
 844 613 l 2,51,52
 844 710 844 710 797.5 755.5 c 128,-1,53
 751 801 751 801 638 801 c 0,54,55
 557 801 557 801 475.5 779.5 c 128,-1,56
 394 758 394 758 331 713 c 0,57,58
 308 696 308 696 284 701 c 128,-1,59
 260 706 260 706 238 737 c 256,60,61
 216 768 216 768 220.5 792.5 c 128,-1,62
 225 817 225 817 248 834 c 0,63,64
 287 863 287 863 334 884.5 c 128,-1,65
 381 906 381 906 431.5 919.5 c 128,-1,66
 482 933 482 933 534.5 939.5 c 128,-1,67
 587 946 587 946 638 946 c 0,68,69
 817 946 817 946 905.5 862 c 128,-1,70
 994 778 994 778 994 613 c 2,71,-1
 994 215 l 2,72,73
 994 136 994 136 1060 136 c 2,74,-1
 1095 136 l 2,0,1
844 393 m 1,75,76
 775 416 775 416 697 427 c 128,-1,77
 619 438 619 438 541 438 c 0,78,79
 487 438 487 438 441.5 429 c 128,-1,80
 396 420 396 420 363 400.5 c 128,-1,81
 330 381 330 381 311.5 349.5 c 128,-1,82
 293 318 293 318 293 273 c 0,83,84
 293 200 293 200 343.5 159.5 c 128,-1,85
 394 119 394 119 485 119 c 0,86,87
 592 119 592 119 681 163.5 c 128,-1,88
 770 208 770 208 844 284 c 1,89,-1
 844 393 l 1,75,76
EndSplineSet
EndChar
StartChar: dcaron
Encoding: 271 271 304
Width: 1228
Flags: W
LayerCount: 2
Back
Fore
SplineSet
1008 136 m 2,0,1
 1042 136 1042 136 1056.5 121 c 128,-1,2
 1071 106 1071 106 1071 68 c 256,3,4
 1071 30 1071 30 1056.5 15 c 128,-1,5
 1042 0 1042 0 1008 0 c 2,6,-1
 849 0 l 2,7,8
 815 0 815 0 800.5 15 c 128,-1,9
 786 30 786 30 786 68 c 2,10,-1
 786 138 l 1,11,12
 741 67 741 67 673.5 22.5 c 128,-1,13
 606 -22 606 -22 509 -22 c 0,14,15
 428 -22 428 -22 358 9.5 c 128,-1,16
 288 41 288 41 236.5 100 c 128,-1,17
 185 159 185 159 156 244 c 128,-1,18
 127 329 127 329 127 437 c 256,19,20
 127 545 127 545 156 630 c 128,-1,21
 185 715 185 715 236.5 774 c 128,-1,22
 288 833 288 833 358 864.5 c 128,-1,23
 428 896 428 896 509 896 c 0,24,25
 600 896 600 896 665.5 858.5 c 128,-1,26
 731 821 731 821 776 755 c 1,27,-1
 776 1176 l 1,28,-1
 594 1176 l 2,29,30
 560 1176 560 1176 545.5 1191 c 128,-1,31
 531 1206 531 1206 531 1244 c 256,32,33
 531 1282 531 1282 545.5 1297 c 128,-1,34
 560 1312 560 1312 594 1312 c 2,35,-1
 863 1312 l 2,36,37
 897 1312 897 1312 911.5 1297 c 128,-1,38
 926 1282 926 1282 926 1244 c 2,39,-1
 926 136 l 1,40,-1
 1008 136 l 2,0,1
776 437 m 256,41,42
 776 511 776 511 758 569 c 128,-1,43
 740 627 740 627 706.5 666.5 c 128,-1,44
 673 706 673 706 625.5 727 c 128,-1,45
 578 748 578 748 519 748 c 0,46,47
 462 748 462 748 418.5 725 c 128,-1,48
 375 702 375 702 345.5 660.5 c 128,-1,49
 316 619 316 619 300.5 562 c 128,-1,50
 285 505 285 505 285 437 c 256,51,52
 285 369 285 369 300.5 312 c 128,-1,53
 316 255 316 255 345.5 213.5 c 128,-1,54
 375 172 375 172 418.5 149 c 128,-1,55
 462 126 462 126 519 126 c 0,56,57
 578 126 578 126 625.5 147 c 128,-1,58
 673 168 673 168 706.5 207.5 c 128,-1,59
 740 247 740 247 758 305 c 128,-1,60
 776 363 776 363 776 437 c 256,41,42
1169 897 m 2,61,62
 1152 862 1152 862 1110 862 c 0,63,64
 1082 862 1082 862 1067.5 877 c 128,-1,65
 1053 892 1053 892 1059 918 c 2,66,-1
 1141 1280 l 2,67,68
 1149 1312 1149 1312 1183 1312 c 2,69,-1
 1325 1312 l 2,70,71
 1345 1312 1345 1312 1351.5 1297.5 c 128,-1,72
 1358 1283 1358 1283 1347 1261 c 2,73,-1
 1169 897 l 2,61,62
EndSplineSet
EndChar
StartChar: dcroat
Encoding: 273 273 305
Width: 1228
Flags: W
LayerCount: 2
Back
Fore
SplineSet
876 1106 m 1,0,-1
 876 1176 l 1,1,-1
 674 1176 l 2,2,3
 640 1176 640 1176 625.5 1191 c 128,-1,4
 611 1206 611 1206 611 1244 c 256,5,6
 611 1282 611 1282 625.5 1297 c 128,-1,7
 640 1312 640 1312 674 1312 c 2,8,-1
 963 1312 l 2,9,10
 997 1312 997 1312 1011.5 1297 c 128,-1,11
 1026 1282 1026 1282 1026 1244 c 2,12,-1
 1026 1106 l 1,13,-1
 1135 1106 l 2,14,15
 1169 1106 1169 1106 1183.5 1091 c 128,-1,16
 1198 1076 1198 1076 1198 1038 c 256,17,18
 1198 1000 1198 1000 1183.5 985 c 128,-1,19
 1169 970 1169 970 1135 970 c 2,20,-1
 1026 970 l 1,21,-1
 1026 136 l 1,22,-1
 1108 136 l 2,23,24
 1142 136 1142 136 1156.5 121 c 128,-1,25
 1171 106 1171 106 1171 68 c 256,26,27
 1171 30 1171 30 1156.5 15 c 128,-1,28
 1142 0 1142 0 1108 0 c 2,29,-1
 949 0 l 2,30,31
 915 0 915 0 900.5 15 c 128,-1,32
 886 30 886 30 886 68 c 2,33,-1
 886 148 l 1,34,35
 824 67 824 67 741.5 22.5 c 128,-1,36
 659 -22 659 -22 559 -22 c 0,37,38
 466 -22 466 -22 387 9.5 c 128,-1,39
 308 41 308 41 250.5 100 c 128,-1,40
 193 159 193 159 160 244 c 128,-1,41
 127 329 127 329 127 437 c 256,42,43
 127 545 127 545 160 630 c 128,-1,44
 193 715 193 715 250.5 774 c 128,-1,45
 308 833 308 833 387 864.5 c 128,-1,46
 466 896 466 896 559 896 c 0,47,48
 659 896 659 896 737.5 855.5 c 128,-1,49
 816 815 816 815 876 740 c 1,50,-1
 876 970 l 1,51,-1
 573 970 l 2,52,53
 539 970 539 970 524.5 985 c 128,-1,54
 510 1000 510 1000 510 1038 c 256,55,56
 510 1076 510 1076 524.5 1091 c 128,-1,57
 539 1106 539 1106 573 1106 c 2,58,-1
 876 1106 l 1,0,-1
876 437 m 256,59,60
 876 511 876 511 853 569 c 128,-1,61
 830 627 830 627 789 666.5 c 128,-1,62
 748 706 748 706 691.5 727 c 128,-1,63
 635 748 635 748 569 748 c 0,64,65
 501 748 501 748 448 725 c 128,-1,66
 395 702 395 702 359 660.5 c 128,-1,67
 323 619 323 619 304 562 c 128,-1,68
 285 505 285 505 285 437 c 256,69,70
 285 369 285 369 304 312 c 128,-1,71
 323 255 323 255 359 213.5 c 128,-1,72
 395 172 395 172 448 149 c 128,-1,73
 501 126 501 126 569 126 c 0,74,75
 635 126 635 126 691.5 147 c 128,-1,76
 748 168 748 168 789 207.5 c 128,-1,77
 830 247 830 247 853 305 c 128,-1,78
 876 363 876 363 876 437 c 256,59,60
EndSplineSet
EndChar
